%TF.GenerationSoftware,KiCad,Pcbnew,5.1.10*%
%TF.CreationDate,2021-06-14T02:10:03+02:00*%
%TF.ProjectId,output-cape-v1,6f757470-7574-42d6-9361-70652d76312e,1*%
%TF.SameCoordinates,Original*%
%TF.FileFunction,Legend,Top*%
%TF.FilePolarity,Positive*%
%FSLAX46Y46*%
G04 Gerber Fmt 4.6, Leading zero omitted, Abs format (unit mm)*
G04 Created by KiCad (PCBNEW 5.1.10) date 2021-06-14 02:10:03*
%MOMM*%
%LPD*%
G01*
G04 APERTURE LIST*
%ADD10C,0.150000*%
%ADD11C,0.120000*%
%ADD12R,1.800000X3.400000*%
%ADD13R,3.400000X1.800000*%
%ADD14R,0.740000X2.400000*%
%ADD15O,1.000000X1.000000*%
%ADD16R,1.000000X1.000000*%
%ADD17R,1.200000X0.900000*%
%ADD18R,5.800000X6.400000*%
%ADD19R,1.200000X2.200000*%
%ADD20R,1.100000X1.100000*%
%ADD21O,3.600000X1.800000*%
%ADD22R,0.900000X0.800000*%
%ADD23O,2.000000X3.600000*%
%ADD24C,5.500000*%
G04 APERTURE END LIST*
D10*
X105452380Y-94338095D02*
X106166666Y-94338095D01*
X106309523Y-94385714D01*
X106404761Y-94480952D01*
X106452380Y-94623809D01*
X106452380Y-94719047D01*
X106452380Y-93385714D02*
X106452380Y-93861904D01*
X105452380Y-93861904D01*
X106357142Y-92480952D02*
X106404761Y-92528571D01*
X106452380Y-92671428D01*
X106452380Y-92766666D01*
X106404761Y-92909523D01*
X106309523Y-93004761D01*
X106214285Y-93052380D01*
X106023809Y-93100000D01*
X105880952Y-93100000D01*
X105690476Y-93052380D01*
X105595238Y-93004761D01*
X105500000Y-92909523D01*
X105452380Y-92766666D01*
X105452380Y-92671428D01*
X105500000Y-92528571D01*
X105547619Y-92480952D01*
X106452380Y-91576190D02*
X106452380Y-92052380D01*
X105452380Y-92052380D01*
X106357142Y-90671428D02*
X106404761Y-90719047D01*
X106452380Y-90861904D01*
X106452380Y-90957142D01*
X106404761Y-91100000D01*
X106309523Y-91195238D01*
X106214285Y-91242857D01*
X106023809Y-91290476D01*
X105880952Y-91290476D01*
X105690476Y-91242857D01*
X105595238Y-91195238D01*
X105500000Y-91100000D01*
X105452380Y-90957142D01*
X105452380Y-90861904D01*
X105500000Y-90719047D01*
X105547619Y-90671428D01*
X105452380Y-89957142D02*
X106166666Y-89957142D01*
X106309523Y-90004761D01*
X106404761Y-90100000D01*
X106452380Y-90242857D01*
X106452380Y-90338095D01*
X106452380Y-89004761D02*
X106452380Y-89480952D01*
X105452380Y-89480952D01*
X106357142Y-88100000D02*
X106404761Y-88147619D01*
X106452380Y-88290476D01*
X106452380Y-88385714D01*
X106404761Y-88528571D01*
X106309523Y-88623809D01*
X106214285Y-88671428D01*
X106023809Y-88719047D01*
X105880952Y-88719047D01*
X105690476Y-88671428D01*
X105595238Y-88623809D01*
X105500000Y-88528571D01*
X105452380Y-88385714D01*
X105452380Y-88290476D01*
X105500000Y-88147619D01*
X105547619Y-88100000D01*
X105452380Y-87385714D02*
X106166666Y-87385714D01*
X106309523Y-87433333D01*
X106404761Y-87528571D01*
X106452380Y-87671428D01*
X106452380Y-87766666D01*
X106452380Y-86433333D02*
X106452380Y-86909523D01*
X105452380Y-86909523D01*
X106357142Y-85528571D02*
X106404761Y-85576190D01*
X106452380Y-85719047D01*
X106452380Y-85814285D01*
X106404761Y-85957142D01*
X106309523Y-86052380D01*
X106214285Y-86100000D01*
X106023809Y-86147619D01*
X105880952Y-86147619D01*
X105690476Y-86100000D01*
X105595238Y-86052380D01*
X105500000Y-85957142D01*
X105452380Y-85814285D01*
X105452380Y-85719047D01*
X105500000Y-85576190D01*
X105547619Y-85528571D01*
X108933333Y-118285714D02*
X108933333Y-118761904D01*
X108647619Y-118190476D02*
X109647619Y-118523809D01*
X108647619Y-118857142D01*
X109552380Y-119142857D02*
X109600000Y-119190476D01*
X109647619Y-119285714D01*
X109647619Y-119523809D01*
X109600000Y-119619047D01*
X109552380Y-119666666D01*
X109457142Y-119714285D01*
X109361904Y-119714285D01*
X109219047Y-119666666D01*
X108647619Y-119095238D01*
X108647619Y-119714285D01*
X103566666Y-119714285D02*
X103566666Y-119238095D01*
X103852380Y-119809523D02*
X102852380Y-119476190D01*
X103852380Y-119142857D01*
X103852380Y-118285714D02*
X103852380Y-118857142D01*
X103852380Y-118571428D02*
X102852380Y-118571428D01*
X102995238Y-118666666D01*
X103090476Y-118761904D01*
X103138095Y-118857142D01*
X102276190Y-124066666D02*
X102752380Y-124066666D01*
X102180952Y-124352380D02*
X102514285Y-123352380D01*
X102847619Y-124352380D01*
X103133333Y-123447619D02*
X103180952Y-123400000D01*
X103276190Y-123352380D01*
X103514285Y-123352380D01*
X103609523Y-123400000D01*
X103657142Y-123447619D01*
X103704761Y-123542857D01*
X103704761Y-123638095D01*
X103657142Y-123780952D01*
X103085714Y-124352380D01*
X103704761Y-124352380D01*
X104847619Y-124066666D02*
X105323809Y-124066666D01*
X104752380Y-124352380D02*
X105085714Y-123352380D01*
X105419047Y-124352380D01*
X106276190Y-124352380D02*
X105704761Y-124352380D01*
X105990476Y-124352380D02*
X105990476Y-123352380D01*
X105895238Y-123495238D01*
X105800000Y-123590476D01*
X105704761Y-123638095D01*
X107419047Y-124066666D02*
X107895238Y-124066666D01*
X107323809Y-124352380D02*
X107657142Y-123352380D01*
X107990476Y-124352380D01*
X108752380Y-124352380D02*
X108752380Y-123352380D01*
X108752380Y-124304761D02*
X108657142Y-124352380D01*
X108466666Y-124352380D01*
X108371428Y-124304761D01*
X108323809Y-124257142D01*
X108276190Y-124161904D01*
X108276190Y-123876190D01*
X108323809Y-123780952D01*
X108371428Y-123733333D01*
X108466666Y-123685714D01*
X108657142Y-123685714D01*
X108752380Y-123733333D01*
X109657142Y-124352380D02*
X109657142Y-123352380D01*
X109657142Y-124304761D02*
X109561904Y-124352380D01*
X109371428Y-124352380D01*
X109276190Y-124304761D01*
X109228571Y-124257142D01*
X109180952Y-124161904D01*
X109180952Y-123876190D01*
X109228571Y-123780952D01*
X109276190Y-123733333D01*
X109371428Y-123685714D01*
X109561904Y-123685714D01*
X109657142Y-123733333D01*
X110133333Y-124352380D02*
X110133333Y-123685714D01*
X110133333Y-123876190D02*
X110180952Y-123780952D01*
X110228571Y-123733333D01*
X110323809Y-123685714D01*
X110419047Y-123685714D01*
X103180952Y-125002380D02*
X103276190Y-125002380D01*
X103371428Y-125050000D01*
X103419047Y-125097619D01*
X103466666Y-125192857D01*
X103514285Y-125383333D01*
X103514285Y-125621428D01*
X103466666Y-125811904D01*
X103419047Y-125907142D01*
X103371428Y-125954761D01*
X103276190Y-126002380D01*
X103180952Y-126002380D01*
X103085714Y-125954761D01*
X103038095Y-125907142D01*
X102990476Y-125811904D01*
X102942857Y-125621428D01*
X102942857Y-125383333D01*
X102990476Y-125192857D01*
X103038095Y-125097619D01*
X103085714Y-125050000D01*
X103180952Y-125002380D01*
X105657142Y-125002380D02*
X105752380Y-125002380D01*
X105847619Y-125050000D01*
X105895238Y-125097619D01*
X105942857Y-125192857D01*
X105990476Y-125383333D01*
X105990476Y-125621428D01*
X105942857Y-125811904D01*
X105895238Y-125907142D01*
X105847619Y-125954761D01*
X105752380Y-126002380D01*
X105657142Y-126002380D01*
X105561904Y-125954761D01*
X105514285Y-125907142D01*
X105466666Y-125811904D01*
X105419047Y-125621428D01*
X105419047Y-125383333D01*
X105466666Y-125192857D01*
X105514285Y-125097619D01*
X105561904Y-125050000D01*
X105657142Y-125002380D01*
X107371428Y-125002380D02*
X107466666Y-125002380D01*
X107561904Y-125050000D01*
X107609523Y-125097619D01*
X107657142Y-125192857D01*
X107704761Y-125383333D01*
X107704761Y-125621428D01*
X107657142Y-125811904D01*
X107609523Y-125907142D01*
X107561904Y-125954761D01*
X107466666Y-126002380D01*
X107371428Y-126002380D01*
X107276190Y-125954761D01*
X107228571Y-125907142D01*
X107180952Y-125811904D01*
X107133333Y-125621428D01*
X107133333Y-125383333D01*
X107180952Y-125192857D01*
X107228571Y-125097619D01*
X107276190Y-125050000D01*
X107371428Y-125002380D01*
X108038095Y-126002380D02*
X108561904Y-125335714D01*
X108038095Y-125335714D02*
X108561904Y-126002380D01*
X109419047Y-125002380D02*
X108942857Y-125002380D01*
X108895238Y-125478571D01*
X108942857Y-125430952D01*
X109038095Y-125383333D01*
X109276190Y-125383333D01*
X109371428Y-125430952D01*
X109419047Y-125478571D01*
X109466666Y-125573809D01*
X109466666Y-125811904D01*
X109419047Y-125907142D01*
X109371428Y-125954761D01*
X109276190Y-126002380D01*
X109038095Y-126002380D01*
X108942857Y-125954761D01*
X108895238Y-125907142D01*
X110419047Y-126002380D02*
X109847619Y-126002380D01*
X110133333Y-126002380D02*
X110133333Y-125002380D01*
X110038095Y-125145238D01*
X109942857Y-125240476D01*
X109847619Y-125288095D01*
X103180952Y-126652380D02*
X103276190Y-126652380D01*
X103371428Y-126700000D01*
X103419047Y-126747619D01*
X103466666Y-126842857D01*
X103514285Y-127033333D01*
X103514285Y-127271428D01*
X103466666Y-127461904D01*
X103419047Y-127557142D01*
X103371428Y-127604761D01*
X103276190Y-127652380D01*
X103180952Y-127652380D01*
X103085714Y-127604761D01*
X103038095Y-127557142D01*
X102990476Y-127461904D01*
X102942857Y-127271428D01*
X102942857Y-127033333D01*
X102990476Y-126842857D01*
X103038095Y-126747619D01*
X103085714Y-126700000D01*
X103180952Y-126652380D01*
X105990476Y-127652380D02*
X105419047Y-127652380D01*
X105704761Y-127652380D02*
X105704761Y-126652380D01*
X105609523Y-126795238D01*
X105514285Y-126890476D01*
X105419047Y-126938095D01*
X107371428Y-126652380D02*
X107466666Y-126652380D01*
X107561904Y-126700000D01*
X107609523Y-126747619D01*
X107657142Y-126842857D01*
X107704761Y-127033333D01*
X107704761Y-127271428D01*
X107657142Y-127461904D01*
X107609523Y-127557142D01*
X107561904Y-127604761D01*
X107466666Y-127652380D01*
X107371428Y-127652380D01*
X107276190Y-127604761D01*
X107228571Y-127557142D01*
X107180952Y-127461904D01*
X107133333Y-127271428D01*
X107133333Y-127033333D01*
X107180952Y-126842857D01*
X107228571Y-126747619D01*
X107276190Y-126700000D01*
X107371428Y-126652380D01*
X108038095Y-127652380D02*
X108561904Y-126985714D01*
X108038095Y-126985714D02*
X108561904Y-127652380D01*
X109419047Y-126652380D02*
X108942857Y-126652380D01*
X108895238Y-127128571D01*
X108942857Y-127080952D01*
X109038095Y-127033333D01*
X109276190Y-127033333D01*
X109371428Y-127080952D01*
X109419047Y-127128571D01*
X109466666Y-127223809D01*
X109466666Y-127461904D01*
X109419047Y-127557142D01*
X109371428Y-127604761D01*
X109276190Y-127652380D01*
X109038095Y-127652380D01*
X108942857Y-127604761D01*
X108895238Y-127557142D01*
X109800000Y-126652380D02*
X110419047Y-126652380D01*
X110085714Y-127033333D01*
X110228571Y-127033333D01*
X110323809Y-127080952D01*
X110371428Y-127128571D01*
X110419047Y-127223809D01*
X110419047Y-127461904D01*
X110371428Y-127557142D01*
X110323809Y-127604761D01*
X110228571Y-127652380D01*
X109942857Y-127652380D01*
X109847619Y-127604761D01*
X109800000Y-127557142D01*
X103514285Y-129302380D02*
X102942857Y-129302380D01*
X103228571Y-129302380D02*
X103228571Y-128302380D01*
X103133333Y-128445238D01*
X103038095Y-128540476D01*
X102942857Y-128588095D01*
X105657142Y-128302380D02*
X105752380Y-128302380D01*
X105847619Y-128350000D01*
X105895238Y-128397619D01*
X105942857Y-128492857D01*
X105990476Y-128683333D01*
X105990476Y-128921428D01*
X105942857Y-129111904D01*
X105895238Y-129207142D01*
X105847619Y-129254761D01*
X105752380Y-129302380D01*
X105657142Y-129302380D01*
X105561904Y-129254761D01*
X105514285Y-129207142D01*
X105466666Y-129111904D01*
X105419047Y-128921428D01*
X105419047Y-128683333D01*
X105466666Y-128492857D01*
X105514285Y-128397619D01*
X105561904Y-128350000D01*
X105657142Y-128302380D01*
X107371428Y-128302380D02*
X107466666Y-128302380D01*
X107561904Y-128350000D01*
X107609523Y-128397619D01*
X107657142Y-128492857D01*
X107704761Y-128683333D01*
X107704761Y-128921428D01*
X107657142Y-129111904D01*
X107609523Y-129207142D01*
X107561904Y-129254761D01*
X107466666Y-129302380D01*
X107371428Y-129302380D01*
X107276190Y-129254761D01*
X107228571Y-129207142D01*
X107180952Y-129111904D01*
X107133333Y-128921428D01*
X107133333Y-128683333D01*
X107180952Y-128492857D01*
X107228571Y-128397619D01*
X107276190Y-128350000D01*
X107371428Y-128302380D01*
X108038095Y-129302380D02*
X108561904Y-128635714D01*
X108038095Y-128635714D02*
X108561904Y-129302380D01*
X109419047Y-128302380D02*
X108942857Y-128302380D01*
X108895238Y-128778571D01*
X108942857Y-128730952D01*
X109038095Y-128683333D01*
X109276190Y-128683333D01*
X109371428Y-128730952D01*
X109419047Y-128778571D01*
X109466666Y-128873809D01*
X109466666Y-129111904D01*
X109419047Y-129207142D01*
X109371428Y-129254761D01*
X109276190Y-129302380D01*
X109038095Y-129302380D01*
X108942857Y-129254761D01*
X108895238Y-129207142D01*
X110371428Y-128302380D02*
X109895238Y-128302380D01*
X109847619Y-128778571D01*
X109895238Y-128730952D01*
X109990476Y-128683333D01*
X110228571Y-128683333D01*
X110323809Y-128730952D01*
X110371428Y-128778571D01*
X110419047Y-128873809D01*
X110419047Y-129111904D01*
X110371428Y-129207142D01*
X110323809Y-129254761D01*
X110228571Y-129302380D01*
X109990476Y-129302380D01*
X109895238Y-129254761D01*
X109847619Y-129207142D01*
X103514285Y-130952380D02*
X102942857Y-130952380D01*
X103228571Y-130952380D02*
X103228571Y-129952380D01*
X103133333Y-130095238D01*
X103038095Y-130190476D01*
X102942857Y-130238095D01*
X105990476Y-130952380D02*
X105419047Y-130952380D01*
X105704761Y-130952380D02*
X105704761Y-129952380D01*
X105609523Y-130095238D01*
X105514285Y-130190476D01*
X105419047Y-130238095D01*
X107371428Y-129952380D02*
X107466666Y-129952380D01*
X107561904Y-130000000D01*
X107609523Y-130047619D01*
X107657142Y-130142857D01*
X107704761Y-130333333D01*
X107704761Y-130571428D01*
X107657142Y-130761904D01*
X107609523Y-130857142D01*
X107561904Y-130904761D01*
X107466666Y-130952380D01*
X107371428Y-130952380D01*
X107276190Y-130904761D01*
X107228571Y-130857142D01*
X107180952Y-130761904D01*
X107133333Y-130571428D01*
X107133333Y-130333333D01*
X107180952Y-130142857D01*
X107228571Y-130047619D01*
X107276190Y-130000000D01*
X107371428Y-129952380D01*
X108038095Y-130952380D02*
X108561904Y-130285714D01*
X108038095Y-130285714D02*
X108561904Y-130952380D01*
X109419047Y-129952380D02*
X108942857Y-129952380D01*
X108895238Y-130428571D01*
X108942857Y-130380952D01*
X109038095Y-130333333D01*
X109276190Y-130333333D01*
X109371428Y-130380952D01*
X109419047Y-130428571D01*
X109466666Y-130523809D01*
X109466666Y-130761904D01*
X109419047Y-130857142D01*
X109371428Y-130904761D01*
X109276190Y-130952380D01*
X109038095Y-130952380D01*
X108942857Y-130904761D01*
X108895238Y-130857142D01*
X109800000Y-129952380D02*
X110466666Y-129952380D01*
X110038095Y-130952380D01*
X97728571Y-136778571D02*
X97871428Y-136826190D01*
X97919047Y-136873809D01*
X97966666Y-136969047D01*
X97966666Y-137111904D01*
X97919047Y-137207142D01*
X97871428Y-137254761D01*
X97776190Y-137302380D01*
X97395238Y-137302380D01*
X97395238Y-136302380D01*
X97728571Y-136302380D01*
X97823809Y-136350000D01*
X97871428Y-136397619D01*
X97919047Y-136492857D01*
X97919047Y-136588095D01*
X97871428Y-136683333D01*
X97823809Y-136730952D01*
X97728571Y-136778571D01*
X97395238Y-136778571D01*
X98776190Y-137254761D02*
X98680952Y-137302380D01*
X98490476Y-137302380D01*
X98395238Y-137254761D01*
X98347619Y-137159523D01*
X98347619Y-136778571D01*
X98395238Y-136683333D01*
X98490476Y-136635714D01*
X98680952Y-136635714D01*
X98776190Y-136683333D01*
X98823809Y-136778571D01*
X98823809Y-136873809D01*
X98347619Y-136969047D01*
X99680952Y-137302380D02*
X99680952Y-136778571D01*
X99633333Y-136683333D01*
X99538095Y-136635714D01*
X99347619Y-136635714D01*
X99252380Y-136683333D01*
X99680952Y-137254761D02*
X99585714Y-137302380D01*
X99347619Y-137302380D01*
X99252380Y-137254761D01*
X99204761Y-137159523D01*
X99204761Y-137064285D01*
X99252380Y-136969047D01*
X99347619Y-136921428D01*
X99585714Y-136921428D01*
X99680952Y-136873809D01*
X100585714Y-136635714D02*
X100585714Y-137445238D01*
X100538095Y-137540476D01*
X100490476Y-137588095D01*
X100395238Y-137635714D01*
X100252380Y-137635714D01*
X100157142Y-137588095D01*
X100585714Y-137254761D02*
X100490476Y-137302380D01*
X100300000Y-137302380D01*
X100204761Y-137254761D01*
X100157142Y-137207142D01*
X100109523Y-137111904D01*
X100109523Y-136826190D01*
X100157142Y-136730952D01*
X100204761Y-136683333D01*
X100300000Y-136635714D01*
X100490476Y-136635714D01*
X100585714Y-136683333D01*
X101204761Y-137302380D02*
X101109523Y-137254761D01*
X101061904Y-137159523D01*
X101061904Y-136302380D01*
X101966666Y-137254761D02*
X101871428Y-137302380D01*
X101680952Y-137302380D01*
X101585714Y-137254761D01*
X101538095Y-137159523D01*
X101538095Y-136778571D01*
X101585714Y-136683333D01*
X101680952Y-136635714D01*
X101871428Y-136635714D01*
X101966666Y-136683333D01*
X102014285Y-136778571D01*
X102014285Y-136873809D01*
X101538095Y-136969047D01*
X102776190Y-136778571D02*
X102919047Y-136826190D01*
X102966666Y-136873809D01*
X103014285Y-136969047D01*
X103014285Y-137111904D01*
X102966666Y-137207142D01*
X102919047Y-137254761D01*
X102823809Y-137302380D01*
X102442857Y-137302380D01*
X102442857Y-136302380D01*
X102776190Y-136302380D01*
X102871428Y-136350000D01*
X102919047Y-136397619D01*
X102966666Y-136492857D01*
X102966666Y-136588095D01*
X102919047Y-136683333D01*
X102871428Y-136730952D01*
X102776190Y-136778571D01*
X102442857Y-136778571D01*
X103585714Y-137302380D02*
X103490476Y-137254761D01*
X103442857Y-137207142D01*
X103395238Y-137111904D01*
X103395238Y-136826190D01*
X103442857Y-136730952D01*
X103490476Y-136683333D01*
X103585714Y-136635714D01*
X103728571Y-136635714D01*
X103823809Y-136683333D01*
X103871428Y-136730952D01*
X103919047Y-136826190D01*
X103919047Y-137111904D01*
X103871428Y-137207142D01*
X103823809Y-137254761D01*
X103728571Y-137302380D01*
X103585714Y-137302380D01*
X104347619Y-136635714D02*
X104347619Y-137302380D01*
X104347619Y-136730952D02*
X104395238Y-136683333D01*
X104490476Y-136635714D01*
X104633333Y-136635714D01*
X104728571Y-136683333D01*
X104776190Y-136778571D01*
X104776190Y-137302380D01*
X105633333Y-137254761D02*
X105538095Y-137302380D01*
X105347619Y-137302380D01*
X105252380Y-137254761D01*
X105204761Y-137159523D01*
X105204761Y-136778571D01*
X105252380Y-136683333D01*
X105347619Y-136635714D01*
X105538095Y-136635714D01*
X105633333Y-136683333D01*
X105680952Y-136778571D01*
X105680952Y-136873809D01*
X105204761Y-136969047D01*
X106300000Y-136302380D02*
X106490476Y-136302380D01*
X106585714Y-136350000D01*
X106680952Y-136445238D01*
X106728571Y-136635714D01*
X106728571Y-136969047D01*
X106680952Y-137159523D01*
X106585714Y-137254761D01*
X106490476Y-137302380D01*
X106300000Y-137302380D01*
X106204761Y-137254761D01*
X106109523Y-137159523D01*
X106061904Y-136969047D01*
X106061904Y-136635714D01*
X106109523Y-136445238D01*
X106204761Y-136350000D01*
X106300000Y-136302380D01*
X107585714Y-136635714D02*
X107585714Y-137302380D01*
X107157142Y-136635714D02*
X107157142Y-137159523D01*
X107204761Y-137254761D01*
X107300000Y-137302380D01*
X107442857Y-137302380D01*
X107538095Y-137254761D01*
X107585714Y-137207142D01*
X107919047Y-136635714D02*
X108300000Y-136635714D01*
X108061904Y-136302380D02*
X108061904Y-137159523D01*
X108109523Y-137254761D01*
X108204761Y-137302380D01*
X108300000Y-137302380D01*
X108633333Y-136635714D02*
X108633333Y-137635714D01*
X108633333Y-136683333D02*
X108728571Y-136635714D01*
X108919047Y-136635714D01*
X109014285Y-136683333D01*
X109061904Y-136730952D01*
X109109523Y-136826190D01*
X109109523Y-137111904D01*
X109061904Y-137207142D01*
X109014285Y-137254761D01*
X108919047Y-137302380D01*
X108728571Y-137302380D01*
X108633333Y-137254761D01*
X109966666Y-136635714D02*
X109966666Y-137302380D01*
X109538095Y-136635714D02*
X109538095Y-137159523D01*
X109585714Y-137254761D01*
X109680952Y-137302380D01*
X109823809Y-137302380D01*
X109919047Y-137254761D01*
X109966666Y-137207142D01*
X110300000Y-136635714D02*
X110680952Y-136635714D01*
X110442857Y-136302380D02*
X110442857Y-137159523D01*
X110490476Y-137254761D01*
X110585714Y-137302380D01*
X110680952Y-137302380D01*
X111585714Y-137207142D02*
X111538095Y-137254761D01*
X111395238Y-137302380D01*
X111300000Y-137302380D01*
X111157142Y-137254761D01*
X111061904Y-137159523D01*
X111014285Y-137064285D01*
X110966666Y-136873809D01*
X110966666Y-136730952D01*
X111014285Y-136540476D01*
X111061904Y-136445238D01*
X111157142Y-136350000D01*
X111300000Y-136302380D01*
X111395238Y-136302380D01*
X111538095Y-136350000D01*
X111585714Y-136397619D01*
X112442857Y-137302380D02*
X112442857Y-136778571D01*
X112395238Y-136683333D01*
X112300000Y-136635714D01*
X112109523Y-136635714D01*
X112014285Y-136683333D01*
X112442857Y-137254761D02*
X112347619Y-137302380D01*
X112109523Y-137302380D01*
X112014285Y-137254761D01*
X111966666Y-137159523D01*
X111966666Y-137064285D01*
X112014285Y-136969047D01*
X112109523Y-136921428D01*
X112347619Y-136921428D01*
X112442857Y-136873809D01*
X112919047Y-136635714D02*
X112919047Y-137635714D01*
X112919047Y-136683333D02*
X113014285Y-136635714D01*
X113204761Y-136635714D01*
X113300000Y-136683333D01*
X113347619Y-136730952D01*
X113395238Y-136826190D01*
X113395238Y-137111904D01*
X113347619Y-137207142D01*
X113300000Y-137254761D01*
X113204761Y-137302380D01*
X113014285Y-137302380D01*
X112919047Y-137254761D01*
X114204761Y-137254761D02*
X114109523Y-137302380D01*
X113919047Y-137302380D01*
X113823809Y-137254761D01*
X113776190Y-137159523D01*
X113776190Y-136778571D01*
X113823809Y-136683333D01*
X113919047Y-136635714D01*
X114109523Y-136635714D01*
X114204761Y-136683333D01*
X114252380Y-136778571D01*
X114252380Y-136873809D01*
X113776190Y-136969047D01*
X93538095Y-138952380D02*
X93538095Y-137952380D01*
X93776190Y-137952380D01*
X93919047Y-138000000D01*
X94014285Y-138095238D01*
X94061904Y-138190476D01*
X94109523Y-138380952D01*
X94109523Y-138523809D01*
X94061904Y-138714285D01*
X94014285Y-138809523D01*
X93919047Y-138904761D01*
X93776190Y-138952380D01*
X93538095Y-138952380D01*
X95204761Y-139047619D02*
X95109523Y-139000000D01*
X95014285Y-138904761D01*
X94871428Y-138761904D01*
X94776190Y-138714285D01*
X94680952Y-138714285D01*
X94728571Y-138952380D02*
X94633333Y-138904761D01*
X94538095Y-138809523D01*
X94490476Y-138619047D01*
X94490476Y-138285714D01*
X94538095Y-138095238D01*
X94633333Y-138000000D01*
X94728571Y-137952380D01*
X94919047Y-137952380D01*
X95014285Y-138000000D01*
X95109523Y-138095238D01*
X95157142Y-138285714D01*
X95157142Y-138619047D01*
X95109523Y-138809523D01*
X95014285Y-138904761D01*
X94919047Y-138952380D01*
X94728571Y-138952380D01*
X96109523Y-138952380D02*
X95538095Y-138952380D01*
X95823809Y-138952380D02*
X95823809Y-137952380D01*
X95728571Y-138095238D01*
X95633333Y-138190476D01*
X95538095Y-138238095D01*
X96966666Y-137952380D02*
X96776190Y-137952380D01*
X96680952Y-138000000D01*
X96633333Y-138047619D01*
X96538095Y-138190476D01*
X96490476Y-138380952D01*
X96490476Y-138761904D01*
X96538095Y-138857142D01*
X96585714Y-138904761D01*
X96680952Y-138952380D01*
X96871428Y-138952380D01*
X96966666Y-138904761D01*
X97014285Y-138857142D01*
X97061904Y-138761904D01*
X97061904Y-138523809D01*
X97014285Y-138428571D01*
X96966666Y-138380952D01*
X96871428Y-138333333D01*
X96680952Y-138333333D01*
X96585714Y-138380952D01*
X96538095Y-138428571D01*
X96490476Y-138523809D01*
X98157142Y-137952380D02*
X98776190Y-137952380D01*
X98442857Y-138333333D01*
X98585714Y-138333333D01*
X98680952Y-138380952D01*
X98728571Y-138428571D01*
X98776190Y-138523809D01*
X98776190Y-138761904D01*
X98728571Y-138857142D01*
X98680952Y-138904761D01*
X98585714Y-138952380D01*
X98300000Y-138952380D01*
X98204761Y-138904761D01*
X98157142Y-138857142D01*
X99395238Y-137952380D02*
X99490476Y-137952380D01*
X99585714Y-138000000D01*
X99633333Y-138047619D01*
X99680952Y-138142857D01*
X99728571Y-138333333D01*
X99728571Y-138571428D01*
X99680952Y-138761904D01*
X99633333Y-138857142D01*
X99585714Y-138904761D01*
X99490476Y-138952380D01*
X99395238Y-138952380D01*
X99300000Y-138904761D01*
X99252380Y-138857142D01*
X99204761Y-138761904D01*
X99157142Y-138571428D01*
X99157142Y-138333333D01*
X99204761Y-138142857D01*
X99252380Y-138047619D01*
X99300000Y-138000000D01*
X99395238Y-137952380D01*
X100014285Y-137952380D02*
X100347619Y-138952380D01*
X100680952Y-137952380D01*
X102490476Y-137904761D02*
X101633333Y-139190476D01*
X104109523Y-138952380D02*
X103538095Y-138952380D01*
X103823809Y-138952380D02*
X103823809Y-137952380D01*
X103728571Y-138095238D01*
X103633333Y-138190476D01*
X103538095Y-138238095D01*
X105061904Y-138952380D02*
X104490476Y-138952380D01*
X104776190Y-138952380D02*
X104776190Y-137952380D01*
X104680952Y-138095238D01*
X104585714Y-138190476D01*
X104490476Y-138238095D01*
X105966666Y-137952380D02*
X105490476Y-137952380D01*
X105442857Y-138428571D01*
X105490476Y-138380952D01*
X105585714Y-138333333D01*
X105823809Y-138333333D01*
X105919047Y-138380952D01*
X105966666Y-138428571D01*
X106014285Y-138523809D01*
X106014285Y-138761904D01*
X105966666Y-138857142D01*
X105919047Y-138904761D01*
X105823809Y-138952380D01*
X105585714Y-138952380D01*
X105490476Y-138904761D01*
X105442857Y-138857142D01*
X106442857Y-138952380D02*
X106442857Y-138285714D01*
X106442857Y-138380952D02*
X106490476Y-138333333D01*
X106585714Y-138285714D01*
X106728571Y-138285714D01*
X106823809Y-138333333D01*
X106871428Y-138428571D01*
X106871428Y-138952380D01*
X106871428Y-138428571D02*
X106919047Y-138333333D01*
X107014285Y-138285714D01*
X107157142Y-138285714D01*
X107252380Y-138333333D01*
X107300000Y-138428571D01*
X107300000Y-138952380D01*
X107728571Y-138666666D02*
X108204761Y-138666666D01*
X107633333Y-138952380D02*
X107966666Y-137952380D01*
X108300000Y-138952380D01*
X109395238Y-138285714D02*
X109395238Y-139285714D01*
X109395238Y-138333333D02*
X109490476Y-138285714D01*
X109680952Y-138285714D01*
X109776190Y-138333333D01*
X109823809Y-138380952D01*
X109871428Y-138476190D01*
X109871428Y-138761904D01*
X109823809Y-138857142D01*
X109776190Y-138904761D01*
X109680952Y-138952380D01*
X109490476Y-138952380D01*
X109395238Y-138904761D01*
X110680952Y-138904761D02*
X110585714Y-138952380D01*
X110395238Y-138952380D01*
X110300000Y-138904761D01*
X110252380Y-138809523D01*
X110252380Y-138428571D01*
X110300000Y-138333333D01*
X110395238Y-138285714D01*
X110585714Y-138285714D01*
X110680952Y-138333333D01*
X110728571Y-138428571D01*
X110728571Y-138523809D01*
X110252380Y-138619047D01*
X111157142Y-138952380D02*
X111157142Y-138285714D01*
X111157142Y-138476190D02*
X111204761Y-138380952D01*
X111252380Y-138333333D01*
X111347619Y-138285714D01*
X111442857Y-138285714D01*
X113109523Y-138857142D02*
X113061904Y-138904761D01*
X112919047Y-138952380D01*
X112823809Y-138952380D01*
X112680952Y-138904761D01*
X112585714Y-138809523D01*
X112538095Y-138714285D01*
X112490476Y-138523809D01*
X112490476Y-138380952D01*
X112538095Y-138190476D01*
X112585714Y-138095238D01*
X112680952Y-138000000D01*
X112823809Y-137952380D01*
X112919047Y-137952380D01*
X113061904Y-138000000D01*
X113109523Y-138047619D01*
X113538095Y-138952380D02*
X113538095Y-137952380D01*
X113966666Y-138952380D02*
X113966666Y-138428571D01*
X113919047Y-138333333D01*
X113823809Y-138285714D01*
X113680952Y-138285714D01*
X113585714Y-138333333D01*
X113538095Y-138380952D01*
X114871428Y-138952380D02*
X114871428Y-138428571D01*
X114823809Y-138333333D01*
X114728571Y-138285714D01*
X114538095Y-138285714D01*
X114442857Y-138333333D01*
X114871428Y-138904761D02*
X114776190Y-138952380D01*
X114538095Y-138952380D01*
X114442857Y-138904761D01*
X114395238Y-138809523D01*
X114395238Y-138714285D01*
X114442857Y-138619047D01*
X114538095Y-138571428D01*
X114776190Y-138571428D01*
X114871428Y-138523809D01*
X115347619Y-138285714D02*
X115347619Y-138952380D01*
X115347619Y-138380952D02*
X115395238Y-138333333D01*
X115490476Y-138285714D01*
X115633333Y-138285714D01*
X115728571Y-138333333D01*
X115776190Y-138428571D01*
X115776190Y-138952380D01*
X116252380Y-138285714D02*
X116252380Y-138952380D01*
X116252380Y-138380952D02*
X116300000Y-138333333D01*
X116395238Y-138285714D01*
X116538095Y-138285714D01*
X116633333Y-138333333D01*
X116680952Y-138428571D01*
X116680952Y-138952380D01*
X117538095Y-138904761D02*
X117442857Y-138952380D01*
X117252380Y-138952380D01*
X117157142Y-138904761D01*
X117109523Y-138809523D01*
X117109523Y-138428571D01*
X117157142Y-138333333D01*
X117252380Y-138285714D01*
X117442857Y-138285714D01*
X117538095Y-138333333D01*
X117585714Y-138428571D01*
X117585714Y-138523809D01*
X117109523Y-138619047D01*
X118157142Y-138952380D02*
X118061904Y-138904761D01*
X118014285Y-138809523D01*
X118014285Y-137952380D01*
X102657142Y-140602380D02*
X102323809Y-140126190D01*
X102085714Y-140602380D02*
X102085714Y-139602380D01*
X102466666Y-139602380D01*
X102561904Y-139650000D01*
X102609523Y-139697619D01*
X102657142Y-139792857D01*
X102657142Y-139935714D01*
X102609523Y-140030952D01*
X102561904Y-140078571D01*
X102466666Y-140126190D01*
X102085714Y-140126190D01*
X103466666Y-140554761D02*
X103371428Y-140602380D01*
X103180952Y-140602380D01*
X103085714Y-140554761D01*
X103038095Y-140459523D01*
X103038095Y-140078571D01*
X103085714Y-139983333D01*
X103180952Y-139935714D01*
X103371428Y-139935714D01*
X103466666Y-139983333D01*
X103514285Y-140078571D01*
X103514285Y-140173809D01*
X103038095Y-140269047D01*
X103847619Y-139935714D02*
X104085714Y-140602380D01*
X104323809Y-139935714D01*
X104704761Y-140602380D02*
X104704761Y-139935714D01*
X104704761Y-139602380D02*
X104657142Y-139650000D01*
X104704761Y-139697619D01*
X104752380Y-139650000D01*
X104704761Y-139602380D01*
X104704761Y-139697619D01*
X105133333Y-140554761D02*
X105228571Y-140602380D01*
X105419047Y-140602380D01*
X105514285Y-140554761D01*
X105561904Y-140459523D01*
X105561904Y-140411904D01*
X105514285Y-140316666D01*
X105419047Y-140269047D01*
X105276190Y-140269047D01*
X105180952Y-140221428D01*
X105133333Y-140126190D01*
X105133333Y-140078571D01*
X105180952Y-139983333D01*
X105276190Y-139935714D01*
X105419047Y-139935714D01*
X105514285Y-139983333D01*
X105990476Y-140602380D02*
X105990476Y-139935714D01*
X105990476Y-139602380D02*
X105942857Y-139650000D01*
X105990476Y-139697619D01*
X106038095Y-139650000D01*
X105990476Y-139602380D01*
X105990476Y-139697619D01*
X106609523Y-140602380D02*
X106514285Y-140554761D01*
X106466666Y-140507142D01*
X106419047Y-140411904D01*
X106419047Y-140126190D01*
X106466666Y-140030952D01*
X106514285Y-139983333D01*
X106609523Y-139935714D01*
X106752380Y-139935714D01*
X106847619Y-139983333D01*
X106895238Y-140030952D01*
X106942857Y-140126190D01*
X106942857Y-140411904D01*
X106895238Y-140507142D01*
X106847619Y-140554761D01*
X106752380Y-140602380D01*
X106609523Y-140602380D01*
X107371428Y-139935714D02*
X107371428Y-140602380D01*
X107371428Y-140030952D02*
X107419047Y-139983333D01*
X107514285Y-139935714D01*
X107657142Y-139935714D01*
X107752380Y-139983333D01*
X107800000Y-140078571D01*
X107800000Y-140602380D01*
X109561904Y-140602380D02*
X108990476Y-140602380D01*
X109276190Y-140602380D02*
X109276190Y-139602380D01*
X109180952Y-139745238D01*
X109085714Y-139840476D01*
X108990476Y-139888095D01*
X84338095Y-65200000D02*
X84242857Y-65152380D01*
X84100000Y-65152380D01*
X83957142Y-65200000D01*
X83861904Y-65295238D01*
X83814285Y-65390476D01*
X83766666Y-65580952D01*
X83766666Y-65723809D01*
X83814285Y-65914285D01*
X83861904Y-66009523D01*
X83957142Y-66104761D01*
X84100000Y-66152380D01*
X84195238Y-66152380D01*
X84338095Y-66104761D01*
X84385714Y-66057142D01*
X84385714Y-65723809D01*
X84195238Y-65723809D01*
X84814285Y-66152380D02*
X84814285Y-65152380D01*
X85385714Y-66152380D01*
X85385714Y-65152380D01*
X85861904Y-66152380D02*
X85861904Y-65152380D01*
X86100000Y-65152380D01*
X86242857Y-65200000D01*
X86338095Y-65295238D01*
X86385714Y-65390476D01*
X86433333Y-65580952D01*
X86433333Y-65723809D01*
X86385714Y-65914285D01*
X86338095Y-66009523D01*
X86242857Y-66104761D01*
X86100000Y-66152380D01*
X85861904Y-66152380D01*
X86109523Y-73347619D02*
X86157142Y-73300000D01*
X86252380Y-73252380D01*
X86490476Y-73252380D01*
X86585714Y-73300000D01*
X86633333Y-73347619D01*
X86680952Y-73442857D01*
X86680952Y-73538095D01*
X86633333Y-73680952D01*
X86061904Y-74252380D01*
X86680952Y-74252380D01*
X87538095Y-73585714D02*
X87538095Y-74252380D01*
X87300000Y-73204761D02*
X87061904Y-73919047D01*
X87680952Y-73919047D01*
X87919047Y-73252380D02*
X88252380Y-74252380D01*
X88585714Y-73252380D01*
X100771428Y-106252380D02*
X101009523Y-107252380D01*
X101200000Y-106538095D01*
X101390476Y-107252380D01*
X101628571Y-106252380D01*
X102009523Y-107252380D02*
X102009523Y-106252380D01*
X102390476Y-106252380D01*
X102485714Y-106300000D01*
X102533333Y-106347619D01*
X102580952Y-106442857D01*
X102580952Y-106585714D01*
X102533333Y-106680952D01*
X102485714Y-106728571D01*
X102390476Y-106776190D01*
X102009523Y-106776190D01*
X104709523Y-101504761D02*
X104852380Y-101552380D01*
X105090476Y-101552380D01*
X105185714Y-101504761D01*
X105233333Y-101457142D01*
X105280952Y-101361904D01*
X105280952Y-101266666D01*
X105233333Y-101171428D01*
X105185714Y-101123809D01*
X105090476Y-101076190D01*
X104900000Y-101028571D01*
X104804761Y-100980952D01*
X104757142Y-100933333D01*
X104709523Y-100838095D01*
X104709523Y-100742857D01*
X104757142Y-100647619D01*
X104804761Y-100600000D01*
X104900000Y-100552380D01*
X105138095Y-100552380D01*
X105280952Y-100600000D01*
X106280952Y-101457142D02*
X106233333Y-101504761D01*
X106090476Y-101552380D01*
X105995238Y-101552380D01*
X105852380Y-101504761D01*
X105757142Y-101409523D01*
X105709523Y-101314285D01*
X105661904Y-101123809D01*
X105661904Y-100980952D01*
X105709523Y-100790476D01*
X105757142Y-100695238D01*
X105852380Y-100600000D01*
X105995238Y-100552380D01*
X106090476Y-100552380D01*
X106233333Y-100600000D01*
X106280952Y-100647619D01*
X107185714Y-101552380D02*
X106709523Y-101552380D01*
X106709523Y-100552380D01*
X107485714Y-101504761D02*
X107628571Y-101552380D01*
X107866666Y-101552380D01*
X107961904Y-101504761D01*
X108009523Y-101457142D01*
X108057142Y-101361904D01*
X108057142Y-101266666D01*
X108009523Y-101171428D01*
X107961904Y-101123809D01*
X107866666Y-101076190D01*
X107676190Y-101028571D01*
X107580952Y-100980952D01*
X107533333Y-100933333D01*
X107485714Y-100838095D01*
X107485714Y-100742857D01*
X107533333Y-100647619D01*
X107580952Y-100600000D01*
X107676190Y-100552380D01*
X107914285Y-100552380D01*
X108057142Y-100600000D01*
X108485714Y-101552380D02*
X108485714Y-100552380D01*
X108723809Y-100552380D01*
X108866666Y-100600000D01*
X108961904Y-100695238D01*
X109009523Y-100790476D01*
X109057142Y-100980952D01*
X109057142Y-101123809D01*
X109009523Y-101314285D01*
X108961904Y-101409523D01*
X108866666Y-101504761D01*
X108723809Y-101552380D01*
X108485714Y-101552380D01*
X109438095Y-101266666D02*
X109914285Y-101266666D01*
X109342857Y-101552380D02*
X109676190Y-100552380D01*
X110009523Y-101552380D01*
X103909523Y-95652380D02*
X103433333Y-95652380D01*
X103385714Y-96128571D01*
X103433333Y-96080952D01*
X103528571Y-96033333D01*
X103766666Y-96033333D01*
X103861904Y-96080952D01*
X103909523Y-96128571D01*
X103957142Y-96223809D01*
X103957142Y-96461904D01*
X103909523Y-96557142D01*
X103861904Y-96604761D01*
X103766666Y-96652380D01*
X103528571Y-96652380D01*
X103433333Y-96604761D01*
X103385714Y-96557142D01*
X104242857Y-95652380D02*
X104576190Y-96652380D01*
X104909523Y-95652380D01*
X135352380Y-82690476D02*
X135352380Y-83261904D01*
X135352380Y-82976190D02*
X134352380Y-82976190D01*
X134495238Y-83071428D01*
X134590476Y-83166666D01*
X134638095Y-83261904D01*
X134352380Y-81833333D02*
X134352380Y-82023809D01*
X134400000Y-82119047D01*
X134447619Y-82166666D01*
X134590476Y-82261904D01*
X134780952Y-82309523D01*
X135161904Y-82309523D01*
X135257142Y-82261904D01*
X135304761Y-82214285D01*
X135352380Y-82119047D01*
X135352380Y-81928571D01*
X135304761Y-81833333D01*
X135257142Y-81785714D01*
X135161904Y-81738095D01*
X134923809Y-81738095D01*
X134828571Y-81785714D01*
X134780952Y-81833333D01*
X134733333Y-81928571D01*
X134733333Y-82119047D01*
X134780952Y-82214285D01*
X134828571Y-82261904D01*
X134923809Y-82309523D01*
X135352380Y-89690476D02*
X135352380Y-90261904D01*
X135352380Y-89976190D02*
X134352380Y-89976190D01*
X134495238Y-90071428D01*
X134590476Y-90166666D01*
X134638095Y-90261904D01*
X134352380Y-88785714D02*
X134352380Y-89261904D01*
X134828571Y-89309523D01*
X134780952Y-89261904D01*
X134733333Y-89166666D01*
X134733333Y-88928571D01*
X134780952Y-88833333D01*
X134828571Y-88785714D01*
X134923809Y-88738095D01*
X135161904Y-88738095D01*
X135257142Y-88785714D01*
X135304761Y-88833333D01*
X135352380Y-88928571D01*
X135352380Y-89166666D01*
X135304761Y-89261904D01*
X135257142Y-89309523D01*
X135352380Y-96690476D02*
X135352380Y-97261904D01*
X135352380Y-96976190D02*
X134352380Y-96976190D01*
X134495238Y-97071428D01*
X134590476Y-97166666D01*
X134638095Y-97261904D01*
X134685714Y-95833333D02*
X135352380Y-95833333D01*
X134304761Y-96071428D02*
X135019047Y-96309523D01*
X135019047Y-95690476D01*
X135352380Y-103690476D02*
X135352380Y-104261904D01*
X135352380Y-103976190D02*
X134352380Y-103976190D01*
X134495238Y-104071428D01*
X134590476Y-104166666D01*
X134638095Y-104261904D01*
X134352380Y-103357142D02*
X134352380Y-102738095D01*
X134733333Y-103071428D01*
X134733333Y-102928571D01*
X134780952Y-102833333D01*
X134828571Y-102785714D01*
X134923809Y-102738095D01*
X135161904Y-102738095D01*
X135257142Y-102785714D01*
X135304761Y-102833333D01*
X135352380Y-102928571D01*
X135352380Y-103214285D01*
X135304761Y-103309523D01*
X135257142Y-103357142D01*
X135352380Y-110690476D02*
X135352380Y-111261904D01*
X135352380Y-110976190D02*
X134352380Y-110976190D01*
X134495238Y-111071428D01*
X134590476Y-111166666D01*
X134638095Y-111261904D01*
X134447619Y-110309523D02*
X134400000Y-110261904D01*
X134352380Y-110166666D01*
X134352380Y-109928571D01*
X134400000Y-109833333D01*
X134447619Y-109785714D01*
X134542857Y-109738095D01*
X134638095Y-109738095D01*
X134780952Y-109785714D01*
X135352380Y-110357142D01*
X135352380Y-109738095D01*
X135352380Y-117690476D02*
X135352380Y-118261904D01*
X135352380Y-117976190D02*
X134352380Y-117976190D01*
X134495238Y-118071428D01*
X134590476Y-118166666D01*
X134638095Y-118261904D01*
X135352380Y-116738095D02*
X135352380Y-117309523D01*
X135352380Y-117023809D02*
X134352380Y-117023809D01*
X134495238Y-117119047D01*
X134590476Y-117214285D01*
X134638095Y-117309523D01*
X135352380Y-124690476D02*
X135352380Y-125261904D01*
X135352380Y-124976190D02*
X134352380Y-124976190D01*
X134495238Y-125071428D01*
X134590476Y-125166666D01*
X134638095Y-125261904D01*
X134352380Y-124071428D02*
X134352380Y-123976190D01*
X134400000Y-123880952D01*
X134447619Y-123833333D01*
X134542857Y-123785714D01*
X134733333Y-123738095D01*
X134971428Y-123738095D01*
X135161904Y-123785714D01*
X135257142Y-123833333D01*
X135304761Y-123880952D01*
X135352380Y-123976190D01*
X135352380Y-124071428D01*
X135304761Y-124166666D01*
X135257142Y-124214285D01*
X135161904Y-124261904D01*
X134971428Y-124309523D01*
X134733333Y-124309523D01*
X134542857Y-124261904D01*
X134447619Y-124214285D01*
X134400000Y-124166666D01*
X134352380Y-124071428D01*
X134352380Y-132123809D02*
X134352380Y-132028571D01*
X134400000Y-131933333D01*
X134447619Y-131885714D01*
X134542857Y-131838095D01*
X134733333Y-131790476D01*
X134971428Y-131790476D01*
X135161904Y-131838095D01*
X135257142Y-131885714D01*
X135304761Y-131933333D01*
X135352380Y-132028571D01*
X135352380Y-132123809D01*
X135304761Y-132219047D01*
X135257142Y-132266666D01*
X135161904Y-132314285D01*
X134971428Y-132361904D01*
X134733333Y-132361904D01*
X134542857Y-132314285D01*
X134447619Y-132266666D01*
X134400000Y-132219047D01*
X134352380Y-132123809D01*
X135352380Y-131314285D02*
X135352380Y-131123809D01*
X135304761Y-131028571D01*
X135257142Y-130980952D01*
X135114285Y-130885714D01*
X134923809Y-130838095D01*
X134542857Y-130838095D01*
X134447619Y-130885714D01*
X134400000Y-130933333D01*
X134352380Y-131028571D01*
X134352380Y-131219047D01*
X134400000Y-131314285D01*
X134447619Y-131361904D01*
X134542857Y-131409523D01*
X134780952Y-131409523D01*
X134876190Y-131361904D01*
X134923809Y-131314285D01*
X134971428Y-131219047D01*
X134971428Y-131028571D01*
X134923809Y-130933333D01*
X134876190Y-130885714D01*
X134780952Y-130838095D01*
X78047619Y-131076190D02*
X78047619Y-131171428D01*
X78000000Y-131266666D01*
X77952380Y-131314285D01*
X77857142Y-131361904D01*
X77666666Y-131409523D01*
X77428571Y-131409523D01*
X77238095Y-131361904D01*
X77142857Y-131314285D01*
X77095238Y-131266666D01*
X77047619Y-131171428D01*
X77047619Y-131076190D01*
X77095238Y-130980952D01*
X77142857Y-130933333D01*
X77238095Y-130885714D01*
X77428571Y-130838095D01*
X77666666Y-130838095D01*
X77857142Y-130885714D01*
X77952380Y-130933333D01*
X78000000Y-130980952D01*
X78047619Y-131076190D01*
X77619047Y-131980952D02*
X77666666Y-131885714D01*
X77714285Y-131838095D01*
X77809523Y-131790476D01*
X77857142Y-131790476D01*
X77952380Y-131838095D01*
X78000000Y-131885714D01*
X78047619Y-131980952D01*
X78047619Y-132171428D01*
X78000000Y-132266666D01*
X77952380Y-132314285D01*
X77857142Y-132361904D01*
X77809523Y-132361904D01*
X77714285Y-132314285D01*
X77666666Y-132266666D01*
X77619047Y-132171428D01*
X77619047Y-131980952D01*
X77571428Y-131885714D01*
X77523809Y-131838095D01*
X77428571Y-131790476D01*
X77238095Y-131790476D01*
X77142857Y-131838095D01*
X77095238Y-131885714D01*
X77047619Y-131980952D01*
X77047619Y-132171428D01*
X77095238Y-132266666D01*
X77142857Y-132314285D01*
X77238095Y-132361904D01*
X77428571Y-132361904D01*
X77523809Y-132314285D01*
X77571428Y-132266666D01*
X77619047Y-132171428D01*
X78047619Y-124076190D02*
X78047619Y-124171428D01*
X78000000Y-124266666D01*
X77952380Y-124314285D01*
X77857142Y-124361904D01*
X77666666Y-124409523D01*
X77428571Y-124409523D01*
X77238095Y-124361904D01*
X77142857Y-124314285D01*
X77095238Y-124266666D01*
X77047619Y-124171428D01*
X77047619Y-124076190D01*
X77095238Y-123980952D01*
X77142857Y-123933333D01*
X77238095Y-123885714D01*
X77428571Y-123838095D01*
X77666666Y-123838095D01*
X77857142Y-123885714D01*
X77952380Y-123933333D01*
X78000000Y-123980952D01*
X78047619Y-124076190D01*
X78047619Y-124742857D02*
X78047619Y-125409523D01*
X77047619Y-124980952D01*
X78047619Y-117076190D02*
X78047619Y-117171428D01*
X78000000Y-117266666D01*
X77952380Y-117314285D01*
X77857142Y-117361904D01*
X77666666Y-117409523D01*
X77428571Y-117409523D01*
X77238095Y-117361904D01*
X77142857Y-117314285D01*
X77095238Y-117266666D01*
X77047619Y-117171428D01*
X77047619Y-117076190D01*
X77095238Y-116980952D01*
X77142857Y-116933333D01*
X77238095Y-116885714D01*
X77428571Y-116838095D01*
X77666666Y-116838095D01*
X77857142Y-116885714D01*
X77952380Y-116933333D01*
X78000000Y-116980952D01*
X78047619Y-117076190D01*
X78047619Y-118266666D02*
X78047619Y-118076190D01*
X78000000Y-117980952D01*
X77952380Y-117933333D01*
X77809523Y-117838095D01*
X77619047Y-117790476D01*
X77238095Y-117790476D01*
X77142857Y-117838095D01*
X77095238Y-117885714D01*
X77047619Y-117980952D01*
X77047619Y-118171428D01*
X77095238Y-118266666D01*
X77142857Y-118314285D01*
X77238095Y-118361904D01*
X77476190Y-118361904D01*
X77571428Y-118314285D01*
X77619047Y-118266666D01*
X77666666Y-118171428D01*
X77666666Y-117980952D01*
X77619047Y-117885714D01*
X77571428Y-117838095D01*
X77476190Y-117790476D01*
X78047619Y-110076190D02*
X78047619Y-110171428D01*
X78000000Y-110266666D01*
X77952380Y-110314285D01*
X77857142Y-110361904D01*
X77666666Y-110409523D01*
X77428571Y-110409523D01*
X77238095Y-110361904D01*
X77142857Y-110314285D01*
X77095238Y-110266666D01*
X77047619Y-110171428D01*
X77047619Y-110076190D01*
X77095238Y-109980952D01*
X77142857Y-109933333D01*
X77238095Y-109885714D01*
X77428571Y-109838095D01*
X77666666Y-109838095D01*
X77857142Y-109885714D01*
X77952380Y-109933333D01*
X78000000Y-109980952D01*
X78047619Y-110076190D01*
X78047619Y-111314285D02*
X78047619Y-110838095D01*
X77571428Y-110790476D01*
X77619047Y-110838095D01*
X77666666Y-110933333D01*
X77666666Y-111171428D01*
X77619047Y-111266666D01*
X77571428Y-111314285D01*
X77476190Y-111361904D01*
X77238095Y-111361904D01*
X77142857Y-111314285D01*
X77095238Y-111266666D01*
X77047619Y-111171428D01*
X77047619Y-110933333D01*
X77095238Y-110838095D01*
X77142857Y-110790476D01*
X78047619Y-103076190D02*
X78047619Y-103171428D01*
X78000000Y-103266666D01*
X77952380Y-103314285D01*
X77857142Y-103361904D01*
X77666666Y-103409523D01*
X77428571Y-103409523D01*
X77238095Y-103361904D01*
X77142857Y-103314285D01*
X77095238Y-103266666D01*
X77047619Y-103171428D01*
X77047619Y-103076190D01*
X77095238Y-102980952D01*
X77142857Y-102933333D01*
X77238095Y-102885714D01*
X77428571Y-102838095D01*
X77666666Y-102838095D01*
X77857142Y-102885714D01*
X77952380Y-102933333D01*
X78000000Y-102980952D01*
X78047619Y-103076190D01*
X77714285Y-104266666D02*
X77047619Y-104266666D01*
X78095238Y-104028571D02*
X77380952Y-103790476D01*
X77380952Y-104409523D01*
X78047619Y-96076190D02*
X78047619Y-96171428D01*
X78000000Y-96266666D01*
X77952380Y-96314285D01*
X77857142Y-96361904D01*
X77666666Y-96409523D01*
X77428571Y-96409523D01*
X77238095Y-96361904D01*
X77142857Y-96314285D01*
X77095238Y-96266666D01*
X77047619Y-96171428D01*
X77047619Y-96076190D01*
X77095238Y-95980952D01*
X77142857Y-95933333D01*
X77238095Y-95885714D01*
X77428571Y-95838095D01*
X77666666Y-95838095D01*
X77857142Y-95885714D01*
X77952380Y-95933333D01*
X78000000Y-95980952D01*
X78047619Y-96076190D01*
X78047619Y-96742857D02*
X78047619Y-97361904D01*
X77666666Y-97028571D01*
X77666666Y-97171428D01*
X77619047Y-97266666D01*
X77571428Y-97314285D01*
X77476190Y-97361904D01*
X77238095Y-97361904D01*
X77142857Y-97314285D01*
X77095238Y-97266666D01*
X77047619Y-97171428D01*
X77047619Y-96885714D01*
X77095238Y-96790476D01*
X77142857Y-96742857D01*
X78047619Y-89076190D02*
X78047619Y-89171428D01*
X78000000Y-89266666D01*
X77952380Y-89314285D01*
X77857142Y-89361904D01*
X77666666Y-89409523D01*
X77428571Y-89409523D01*
X77238095Y-89361904D01*
X77142857Y-89314285D01*
X77095238Y-89266666D01*
X77047619Y-89171428D01*
X77047619Y-89076190D01*
X77095238Y-88980952D01*
X77142857Y-88933333D01*
X77238095Y-88885714D01*
X77428571Y-88838095D01*
X77666666Y-88838095D01*
X77857142Y-88885714D01*
X77952380Y-88933333D01*
X78000000Y-88980952D01*
X78047619Y-89076190D01*
X77952380Y-89790476D02*
X78000000Y-89838095D01*
X78047619Y-89933333D01*
X78047619Y-90171428D01*
X78000000Y-90266666D01*
X77952380Y-90314285D01*
X77857142Y-90361904D01*
X77761904Y-90361904D01*
X77619047Y-90314285D01*
X77047619Y-89742857D01*
X77047619Y-90361904D01*
X78047619Y-82076190D02*
X78047619Y-82171428D01*
X78000000Y-82266666D01*
X77952380Y-82314285D01*
X77857142Y-82361904D01*
X77666666Y-82409523D01*
X77428571Y-82409523D01*
X77238095Y-82361904D01*
X77142857Y-82314285D01*
X77095238Y-82266666D01*
X77047619Y-82171428D01*
X77047619Y-82076190D01*
X77095238Y-81980952D01*
X77142857Y-81933333D01*
X77238095Y-81885714D01*
X77428571Y-81838095D01*
X77666666Y-81838095D01*
X77857142Y-81885714D01*
X77952380Y-81933333D01*
X78000000Y-81980952D01*
X78047619Y-82076190D01*
X77047619Y-83361904D02*
X77047619Y-82790476D01*
X77047619Y-83076190D02*
X78047619Y-83076190D01*
X77904761Y-82980952D01*
X77809523Y-82885714D01*
X77761904Y-82790476D01*
D11*
X135500000Y-135050000D02*
X127800000Y-135050000D01*
X135500000Y-100050000D02*
X127800000Y-100050000D01*
X135500000Y-93050000D02*
X127800000Y-93050000D01*
X135500000Y-79050000D02*
X127800000Y-79050000D01*
X135500000Y-107050000D02*
X127800000Y-107050000D01*
X135500000Y-114050000D02*
X127800000Y-114050000D01*
X135500000Y-128050000D02*
X127800000Y-128050000D01*
X135500000Y-86050000D02*
X127800000Y-86050000D01*
X135500000Y-121050000D02*
X127800000Y-121050000D01*
X84600000Y-79050000D02*
X76900000Y-79050000D01*
X84600000Y-135050000D02*
X76900000Y-135050000D01*
X84600000Y-128050000D02*
X76900000Y-128050000D01*
X84600000Y-121050000D02*
X76900000Y-121050000D01*
X84600000Y-114050000D02*
X76900000Y-114050000D01*
X84600000Y-107050000D02*
X76900000Y-107050000D01*
X84600000Y-100050000D02*
X76900000Y-100050000D01*
X84600000Y-93050000D02*
X76900000Y-93050000D01*
X84600000Y-86050000D02*
X76900000Y-86050000D01*
D10*
%TO.C,TP106*%
X86300000Y-70400000D02*
X84100000Y-70400000D01*
X86300000Y-66600000D02*
X86300000Y-70400000D01*
X84100000Y-66600000D02*
X86300000Y-66600000D01*
X84100000Y-70400000D02*
X84100000Y-66600000D01*
%TO.C,TP105*%
X86300000Y-76900000D02*
X86300000Y-74700000D01*
X90100000Y-76900000D02*
X86300000Y-76900000D01*
X90100000Y-74700000D02*
X90100000Y-76900000D01*
X86300000Y-74700000D02*
X90100000Y-74700000D01*
%TO.C,TP101*%
X105400000Y-98000000D02*
X105400000Y-95800000D01*
X109200000Y-98000000D02*
X105400000Y-98000000D01*
X109200000Y-95800000D02*
X109200000Y-98000000D01*
X105400000Y-95800000D02*
X109200000Y-95800000D01*
D11*
%TO.C,JP103*%
X108030000Y-117135000D02*
X108095000Y-117135000D01*
X108030000Y-120665000D02*
X108095000Y-120665000D01*
X106705000Y-117135000D02*
X106770000Y-117135000D01*
X106705000Y-120665000D02*
X106770000Y-120665000D01*
X106770000Y-121990000D02*
X106770000Y-120665000D01*
X108095000Y-120665000D02*
X108095000Y-117135000D01*
X106705000Y-120665000D02*
X106705000Y-117135000D01*
%TO.C,JP102*%
X105730000Y-117135000D02*
X105795000Y-117135000D01*
X105730000Y-120665000D02*
X105795000Y-120665000D01*
X104405000Y-117135000D02*
X104470000Y-117135000D01*
X104405000Y-120665000D02*
X104470000Y-120665000D01*
X104470000Y-121990000D02*
X104470000Y-120665000D01*
X105795000Y-120665000D02*
X105795000Y-117135000D01*
X104405000Y-120665000D02*
X104405000Y-117135000D01*
%TO.C,JP101*%
X95990000Y-79240000D02*
X97100000Y-79240000D01*
X95990000Y-80000000D02*
X95990000Y-79240000D01*
X97663471Y-80760000D02*
X98210000Y-80760000D01*
X95990000Y-80760000D02*
X96536529Y-80760000D01*
X98210000Y-80760000D02*
X98210000Y-81965000D01*
X95990000Y-80760000D02*
X95990000Y-81965000D01*
X97407530Y-81965000D02*
X98210000Y-81965000D01*
X95990000Y-81965000D02*
X96792470Y-81965000D01*
D10*
%TO.C,TP104*%
X107600000Y-102000000D02*
X109800000Y-102000000D01*
X107600000Y-105800000D02*
X107600000Y-102000000D01*
X109800000Y-105800000D02*
X107600000Y-105800000D01*
X109800000Y-102000000D02*
X109800000Y-105800000D01*
%TO.C,TP103*%
X104900000Y-102000000D02*
X107100000Y-102000000D01*
X104900000Y-105800000D02*
X104900000Y-102000000D01*
X107100000Y-105800000D02*
X104900000Y-105800000D01*
X107100000Y-102000000D02*
X107100000Y-105800000D01*
%TO.C,TP102*%
X102200000Y-102000000D02*
X104400000Y-102000000D01*
X102200000Y-105800000D02*
X102200000Y-102000000D01*
X104400000Y-105800000D02*
X102200000Y-105800000D01*
X104400000Y-102000000D02*
X104400000Y-105800000D01*
D11*
%TO.C,R1702*%
X112520000Y-83263641D02*
X112520000Y-82956359D01*
X113280000Y-83263641D02*
X113280000Y-82956359D01*
%TO.C,F101*%
X97570031Y-73290000D02*
X95029969Y-73290000D01*
X97570031Y-76710000D02*
X95029969Y-76710000D01*
%TO.C,D103*%
X90800000Y-77350000D02*
X90800000Y-73450000D01*
X92800000Y-77350000D02*
X92800000Y-73450000D01*
X90800000Y-77350000D02*
X92800000Y-77350000D01*
%TO.C,U101*%
X102820000Y-87330000D02*
X102820000Y-86230000D01*
X102550000Y-87330000D02*
X102820000Y-87330000D01*
X102550000Y-88830000D02*
X102550000Y-87330000D01*
X109180000Y-87330000D02*
X109180000Y-84500000D01*
X109450000Y-87330000D02*
X109180000Y-87330000D01*
X109450000Y-88830000D02*
X109450000Y-87330000D01*
%TO.C,R103*%
X108822500Y-82937258D02*
X108822500Y-82462742D01*
X107777500Y-82937258D02*
X107777500Y-82462742D01*
%TO.C,R102*%
X107380000Y-82843641D02*
X107380000Y-82536359D01*
X106620000Y-82843641D02*
X106620000Y-82536359D01*
%TO.C,R101*%
X113222500Y-92837258D02*
X113222500Y-92362742D01*
X112177500Y-92837258D02*
X112177500Y-92362742D01*
%TO.C,D102*%
X109700000Y-94000000D02*
X109700000Y-90150000D01*
X111700000Y-94000000D02*
X111700000Y-90150000D01*
X109700000Y-94000000D02*
X111700000Y-94000000D01*
%TO.C,D101*%
X102300000Y-85500000D02*
X102300000Y-89350000D01*
X100300000Y-85500000D02*
X100300000Y-89350000D01*
X102300000Y-85500000D02*
X100300000Y-85500000D01*
%TO.C,C103*%
X106360000Y-82807836D02*
X106360000Y-82592164D01*
X105640000Y-82807836D02*
X105640000Y-82592164D01*
%TO.C,C102*%
X102360000Y-92607836D02*
X102360000Y-92392164D01*
X101640000Y-92607836D02*
X101640000Y-92392164D01*
%TO.C,C101*%
X103859420Y-84010000D02*
X104140580Y-84010000D01*
X103859420Y-82990000D02*
X104140580Y-82990000D01*
%TO.C,R1703*%
X111520000Y-82946359D02*
X111520000Y-83253641D01*
X112280000Y-82946359D02*
X112280000Y-83253641D01*
%TO.C,R1603*%
X112346359Y-87980000D02*
X112653641Y-87980000D01*
X112346359Y-87220000D02*
X112653641Y-87220000D01*
%TO.C,R1503*%
X112346359Y-94980000D02*
X112653641Y-94980000D01*
X112346359Y-94220000D02*
X112653641Y-94220000D01*
%TO.C,R1403*%
X112346359Y-101880000D02*
X112653641Y-101880000D01*
X112346359Y-101120000D02*
X112653641Y-101120000D01*
%TO.C,R1303*%
X112336359Y-108980000D02*
X112643641Y-108980000D01*
X112336359Y-108220000D02*
X112643641Y-108220000D01*
%TO.C,R1203*%
X112346359Y-115980000D02*
X112653641Y-115980000D01*
X112346359Y-115220000D02*
X112653641Y-115220000D01*
%TO.C,R1103*%
X112346359Y-122980000D02*
X112653641Y-122980000D01*
X112346359Y-122220000D02*
X112653641Y-122220000D01*
%TO.C,R1003*%
X112346359Y-129980000D02*
X112653641Y-129980000D01*
X112346359Y-129220000D02*
X112653641Y-129220000D01*
%TO.C,R903*%
X100053641Y-133220000D02*
X99746359Y-133220000D01*
X100053641Y-133980000D02*
X99746359Y-133980000D01*
%TO.C,R803*%
X100053641Y-126120000D02*
X99746359Y-126120000D01*
X100053641Y-126880000D02*
X99746359Y-126880000D01*
%TO.C,R703*%
X100053641Y-119220000D02*
X99746359Y-119220000D01*
X100053641Y-119980000D02*
X99746359Y-119980000D01*
%TO.C,R603*%
X100053641Y-112120000D02*
X99746359Y-112120000D01*
X100053641Y-112880000D02*
X99746359Y-112880000D01*
%TO.C,R503*%
X100053641Y-105120000D02*
X99746359Y-105120000D01*
X100053641Y-105880000D02*
X99746359Y-105880000D01*
%TO.C,R403*%
X100053641Y-98120000D02*
X99746359Y-98120000D01*
X100053641Y-98880000D02*
X99746359Y-98880000D01*
%TO.C,R303*%
X100053641Y-91120000D02*
X99746359Y-91120000D01*
X100053641Y-91880000D02*
X99746359Y-91880000D01*
%TO.C,R203*%
X99220000Y-86846359D02*
X99220000Y-87153641D01*
X99980000Y-86846359D02*
X99980000Y-87153641D01*
%TO.C,D1701*%
X113485000Y-84065000D02*
X111200000Y-84065000D01*
X113485000Y-85535000D02*
X113485000Y-84065000D01*
X111200000Y-85535000D02*
X113485000Y-85535000D01*
%TO.C,D1601*%
X116485000Y-86265000D02*
X114200000Y-86265000D01*
X116485000Y-87735000D02*
X116485000Y-86265000D01*
X114200000Y-87735000D02*
X116485000Y-87735000D01*
%TO.C,D1501*%
X116485000Y-93265000D02*
X114200000Y-93265000D01*
X116485000Y-94735000D02*
X116485000Y-93265000D01*
X114200000Y-94735000D02*
X116485000Y-94735000D01*
%TO.C,D1401*%
X116485000Y-100165000D02*
X114200000Y-100165000D01*
X116485000Y-101635000D02*
X116485000Y-100165000D01*
X114200000Y-101635000D02*
X116485000Y-101635000D01*
%TO.C,D1301*%
X116485000Y-107265000D02*
X114200000Y-107265000D01*
X116485000Y-108735000D02*
X116485000Y-107265000D01*
X114200000Y-108735000D02*
X116485000Y-108735000D01*
%TO.C,D1201*%
X116485000Y-114265000D02*
X114200000Y-114265000D01*
X116485000Y-115735000D02*
X116485000Y-114265000D01*
X114200000Y-115735000D02*
X116485000Y-115735000D01*
%TO.C,D1101*%
X116485000Y-121265000D02*
X114200000Y-121265000D01*
X116485000Y-122735000D02*
X116485000Y-121265000D01*
X114200000Y-122735000D02*
X116485000Y-122735000D01*
%TO.C,D1001*%
X116485000Y-128265000D02*
X114200000Y-128265000D01*
X116485000Y-129735000D02*
X116485000Y-128265000D01*
X114200000Y-129735000D02*
X116485000Y-129735000D01*
%TO.C,D901*%
X95915000Y-134935000D02*
X98200000Y-134935000D01*
X95915000Y-133465000D02*
X95915000Y-134935000D01*
X98200000Y-133465000D02*
X95915000Y-133465000D01*
%TO.C,D801*%
X95915000Y-127835000D02*
X98200000Y-127835000D01*
X95915000Y-126365000D02*
X95915000Y-127835000D01*
X98200000Y-126365000D02*
X95915000Y-126365000D01*
%TO.C,D701*%
X95915000Y-120835000D02*
X98200000Y-120835000D01*
X95915000Y-119365000D02*
X95915000Y-120835000D01*
X98200000Y-119365000D02*
X95915000Y-119365000D01*
%TO.C,D601*%
X95915000Y-113735000D02*
X98200000Y-113735000D01*
X95915000Y-112265000D02*
X95915000Y-113735000D01*
X98200000Y-112265000D02*
X95915000Y-112265000D01*
%TO.C,D501*%
X95915000Y-106735000D02*
X98200000Y-106735000D01*
X95915000Y-105265000D02*
X95915000Y-106735000D01*
X98200000Y-105265000D02*
X95915000Y-105265000D01*
%TO.C,D401*%
X95915000Y-99735000D02*
X98200000Y-99735000D01*
X95915000Y-98265000D02*
X95915000Y-99735000D01*
X98200000Y-98265000D02*
X95915000Y-98265000D01*
%TO.C,D301*%
X95915000Y-92835000D02*
X98200000Y-92835000D01*
X95915000Y-91365000D02*
X95915000Y-92835000D01*
X98200000Y-91365000D02*
X95915000Y-91365000D01*
%TO.C,D201*%
X95515000Y-87635000D02*
X97800000Y-87635000D01*
X95515000Y-86165000D02*
X95515000Y-87635000D01*
X97800000Y-86165000D02*
X95515000Y-86165000D01*
%TO.C,J102*%
X117990000Y-135860000D02*
X127410000Y-135860000D01*
X127410000Y-135860000D02*
X127410000Y-78240000D01*
X127410000Y-78240000D02*
X117990000Y-78240000D01*
X117990000Y-135860000D02*
X117990000Y-134350000D01*
X117990000Y-78240000D02*
X117990000Y-79750000D01*
X117990000Y-132250000D02*
X117990000Y-130850000D01*
X117990000Y-128750000D02*
X117990000Y-127350000D01*
X117990000Y-125250000D02*
X117990000Y-123850000D01*
X117990000Y-121750000D02*
X117990000Y-120350000D01*
X117990000Y-118250000D02*
X117990000Y-116850000D01*
X117990000Y-114750000D02*
X117990000Y-113350000D01*
X117990000Y-111250000D02*
X117990000Y-109850000D01*
X117990000Y-107750000D02*
X117990000Y-106350000D01*
X117990000Y-104250000D02*
X117990000Y-102850000D01*
X117990000Y-100750000D02*
X117990000Y-99350000D01*
X117990000Y-97250000D02*
X117990000Y-95850000D01*
X117990000Y-93750000D02*
X117990000Y-92350000D01*
X117990000Y-90250000D02*
X117990000Y-88850000D01*
X117990000Y-86750000D02*
X117990000Y-85350000D01*
X117990000Y-83250000D02*
X117990000Y-81850000D01*
X124100000Y-135860000D02*
X124100000Y-78240000D01*
X116700000Y-133000000D02*
X117300000Y-133300000D01*
X117300000Y-133300000D02*
X116700000Y-133600000D01*
X116700000Y-133600000D02*
X116700000Y-133000000D01*
%TO.C,J101*%
X94410000Y-78240000D02*
X84990000Y-78240000D01*
X84990000Y-78240000D02*
X84990000Y-135860000D01*
X84990000Y-135860000D02*
X94410000Y-135860000D01*
X94410000Y-78240000D02*
X94410000Y-79750000D01*
X94410000Y-135860000D02*
X94410000Y-134350000D01*
X94410000Y-81850000D02*
X94410000Y-83250000D01*
X94410000Y-85350000D02*
X94410000Y-86750000D01*
X94410000Y-88850000D02*
X94410000Y-90250000D01*
X94410000Y-92350000D02*
X94410000Y-93750000D01*
X94410000Y-95850000D02*
X94410000Y-97250000D01*
X94410000Y-99350000D02*
X94410000Y-100750000D01*
X94410000Y-102850000D02*
X94410000Y-104250000D01*
X94410000Y-106350000D02*
X94410000Y-107750000D01*
X94410000Y-109850000D02*
X94410000Y-111250000D01*
X94410000Y-113350000D02*
X94410000Y-114750000D01*
X94410000Y-116850000D02*
X94410000Y-118250000D01*
X94410000Y-120350000D02*
X94410000Y-121750000D01*
X94410000Y-123850000D02*
X94410000Y-125250000D01*
X94410000Y-127350000D02*
X94410000Y-128750000D01*
X94410000Y-130850000D02*
X94410000Y-132250000D01*
X88300000Y-78240000D02*
X88300000Y-135860000D01*
X95700000Y-81100000D02*
X95100000Y-80800000D01*
X95100000Y-80800000D02*
X95700000Y-80500000D01*
X95700000Y-80500000D02*
X95700000Y-81100000D01*
%TO.C,R1701*%
X112336359Y-81220000D02*
X112643641Y-81220000D01*
X112336359Y-81980000D02*
X112643641Y-81980000D01*
%TO.C,R1602*%
X112520000Y-90263641D02*
X112520000Y-89956359D01*
X113280000Y-90263641D02*
X113280000Y-89956359D01*
%TO.C,R1601*%
X112336359Y-88220000D02*
X112643641Y-88220000D01*
X112336359Y-88980000D02*
X112643641Y-88980000D01*
%TO.C,R1502*%
X112520000Y-97263641D02*
X112520000Y-96956359D01*
X113280000Y-97263641D02*
X113280000Y-96956359D01*
%TO.C,R1501*%
X112336359Y-95220000D02*
X112643641Y-95220000D01*
X112336359Y-95980000D02*
X112643641Y-95980000D01*
%TO.C,R1402*%
X112520000Y-104153641D02*
X112520000Y-103846359D01*
X113280000Y-104153641D02*
X113280000Y-103846359D01*
%TO.C,R1401*%
X112346359Y-102120000D02*
X112653641Y-102120000D01*
X112346359Y-102880000D02*
X112653641Y-102880000D01*
%TO.C,Q1701*%
X115960000Y-84180000D02*
X115960000Y-83250000D01*
X115960000Y-81020000D02*
X115960000Y-81950000D01*
X115960000Y-81020000D02*
X113800000Y-81020000D01*
X115960000Y-84180000D02*
X114500000Y-84180000D01*
%TO.C,Q1601*%
X115960000Y-91180000D02*
X115960000Y-90250000D01*
X115960000Y-88020000D02*
X115960000Y-88950000D01*
X115960000Y-88020000D02*
X113800000Y-88020000D01*
X115960000Y-91180000D02*
X114500000Y-91180000D01*
%TO.C,Q1501*%
X115960000Y-98180000D02*
X115960000Y-97250000D01*
X115960000Y-95020000D02*
X115960000Y-95950000D01*
X115960000Y-95020000D02*
X113800000Y-95020000D01*
X115960000Y-98180000D02*
X114500000Y-98180000D01*
%TO.C,Q1401*%
X115960000Y-105080000D02*
X115960000Y-104150000D01*
X115960000Y-101920000D02*
X115960000Y-102850000D01*
X115960000Y-101920000D02*
X113800000Y-101920000D01*
X115960000Y-105080000D02*
X114500000Y-105080000D01*
%TO.C,R1302*%
X112520000Y-111253641D02*
X112520000Y-110946359D01*
X113280000Y-111253641D02*
X113280000Y-110946359D01*
%TO.C,R1301*%
X112346359Y-109220000D02*
X112653641Y-109220000D01*
X112346359Y-109980000D02*
X112653641Y-109980000D01*
%TO.C,R1202*%
X112520000Y-118253641D02*
X112520000Y-117946359D01*
X113280000Y-118253641D02*
X113280000Y-117946359D01*
%TO.C,R1201*%
X112346359Y-116220000D02*
X112653641Y-116220000D01*
X112346359Y-116980000D02*
X112653641Y-116980000D01*
%TO.C,R1102*%
X112520000Y-125253641D02*
X112520000Y-124946359D01*
X113280000Y-125253641D02*
X113280000Y-124946359D01*
%TO.C,R1101*%
X112336359Y-123220000D02*
X112643641Y-123220000D01*
X112336359Y-123980000D02*
X112643641Y-123980000D01*
%TO.C,R1002*%
X112520000Y-132253641D02*
X112520000Y-131946359D01*
X113280000Y-132253641D02*
X113280000Y-131946359D01*
%TO.C,R1001*%
X112336359Y-130220000D02*
X112643641Y-130220000D01*
X112336359Y-130980000D02*
X112643641Y-130980000D01*
%TO.C,R902*%
X99880000Y-130946359D02*
X99880000Y-131253641D01*
X99120000Y-130946359D02*
X99120000Y-131253641D01*
%TO.C,R901*%
X100053641Y-132980000D02*
X99746359Y-132980000D01*
X100053641Y-132220000D02*
X99746359Y-132220000D01*
%TO.C,R802*%
X99880000Y-123846359D02*
X99880000Y-124153641D01*
X99120000Y-123846359D02*
X99120000Y-124153641D01*
%TO.C,R801*%
X100053641Y-125856600D02*
X99746359Y-125856600D01*
X100053641Y-125096600D02*
X99746359Y-125096600D01*
%TO.C,R702*%
X99879600Y-116915039D02*
X99879600Y-117222321D01*
X99119600Y-116915039D02*
X99119600Y-117222321D01*
%TO.C,R701*%
X100053241Y-118948680D02*
X99745959Y-118948680D01*
X100053241Y-118188680D02*
X99745959Y-118188680D01*
%TO.C,R602*%
X99879600Y-109815039D02*
X99879600Y-110122321D01*
X99119600Y-109815039D02*
X99119600Y-110122321D01*
%TO.C,R601*%
X100053241Y-111848680D02*
X99745959Y-111848680D01*
X100053241Y-111088680D02*
X99745959Y-111088680D01*
%TO.C,R502*%
X99879600Y-102815039D02*
X99879600Y-103122321D01*
X99119600Y-102815039D02*
X99119600Y-103122321D01*
%TO.C,R501*%
X100053241Y-104848680D02*
X99745959Y-104848680D01*
X100053241Y-104088680D02*
X99745959Y-104088680D01*
%TO.C,R402*%
X99879600Y-95815039D02*
X99879600Y-96122321D01*
X99119600Y-95815039D02*
X99119600Y-96122321D01*
%TO.C,R401*%
X100053241Y-97848680D02*
X99745959Y-97848680D01*
X100053241Y-97088680D02*
X99745959Y-97088680D01*
%TO.C,R302*%
X99879600Y-88815039D02*
X99879600Y-89122321D01*
X99119600Y-88815039D02*
X99119600Y-89122321D01*
%TO.C,R301*%
X100053241Y-90848680D02*
X99745959Y-90848680D01*
X100053241Y-90088680D02*
X99745959Y-90088680D01*
%TO.C,Q1301*%
X115960000Y-112180000D02*
X115960000Y-111250000D01*
X115960000Y-109020000D02*
X115960000Y-109950000D01*
X115960000Y-109020000D02*
X113800000Y-109020000D01*
X115960000Y-112180000D02*
X114500000Y-112180000D01*
%TO.C,Q1201*%
X115960000Y-119180000D02*
X115960000Y-118250000D01*
X115960000Y-116020000D02*
X115960000Y-116950000D01*
X115960000Y-116020000D02*
X113800000Y-116020000D01*
X115960000Y-119180000D02*
X114500000Y-119180000D01*
%TO.C,Q1101*%
X115960000Y-126180000D02*
X115960000Y-125250000D01*
X115960000Y-123020000D02*
X115960000Y-123950000D01*
X115960000Y-123020000D02*
X113800000Y-123020000D01*
X115960000Y-126180000D02*
X114500000Y-126180000D01*
%TO.C,Q1001*%
X115960000Y-133180000D02*
X115960000Y-132250000D01*
X115960000Y-130020000D02*
X115960000Y-130950000D01*
X115960000Y-130020000D02*
X113800000Y-130020000D01*
X115960000Y-133180000D02*
X114500000Y-133180000D01*
%TO.C,Q901*%
X96440000Y-130020000D02*
X96440000Y-130950000D01*
X96440000Y-133180000D02*
X96440000Y-132250000D01*
X96440000Y-133180000D02*
X98600000Y-133180000D01*
X96440000Y-130020000D02*
X97900000Y-130020000D01*
%TO.C,Q801*%
X96440000Y-122920000D02*
X96440000Y-123850000D01*
X96440000Y-126080000D02*
X96440000Y-125150000D01*
X96440000Y-126080000D02*
X98600000Y-126080000D01*
X96440000Y-122920000D02*
X97900000Y-122920000D01*
%TO.C,Q701*%
X96439600Y-116000680D02*
X96439600Y-116930680D01*
X96439600Y-119160680D02*
X96439600Y-118230680D01*
X96439600Y-119160680D02*
X98599600Y-119160680D01*
X96439600Y-116000680D02*
X97899600Y-116000680D01*
%TO.C,Q601*%
X96439600Y-108888680D02*
X96439600Y-109818680D01*
X96439600Y-112048680D02*
X96439600Y-111118680D01*
X96439600Y-112048680D02*
X98599600Y-112048680D01*
X96439600Y-108888680D02*
X97899600Y-108888680D01*
%TO.C,Q501*%
X96439600Y-101888680D02*
X96439600Y-102818680D01*
X96439600Y-105048680D02*
X96439600Y-104118680D01*
X96439600Y-105048680D02*
X98599600Y-105048680D01*
X96439600Y-101888680D02*
X97899600Y-101888680D01*
%TO.C,Q401*%
X96439600Y-94888680D02*
X96439600Y-95818680D01*
X96439600Y-98048680D02*
X96439600Y-97118680D01*
X96439600Y-98048680D02*
X98599600Y-98048680D01*
X96439600Y-94888680D02*
X97899600Y-94888680D01*
%TO.C,Q301*%
X96439600Y-87888680D02*
X96439600Y-88818680D01*
X96439600Y-91048680D02*
X96439600Y-90118680D01*
X96439600Y-91048680D02*
X98599600Y-91048680D01*
X96439600Y-87888680D02*
X97899600Y-87888680D01*
%TO.C,Q201*%
X96440000Y-82720000D02*
X96440000Y-83650000D01*
X96440000Y-85880000D02*
X96440000Y-84950000D01*
X96440000Y-85880000D02*
X98600000Y-85880000D01*
X96440000Y-82720000D02*
X97900000Y-82720000D01*
%TO.C,R202*%
X101253641Y-85280000D02*
X100946359Y-85280000D01*
X101253641Y-84520000D02*
X100946359Y-84520000D01*
%TO.C,R201*%
X99220000Y-85253641D02*
X99220000Y-84946359D01*
X99980000Y-85253641D02*
X99980000Y-84946359D01*
%TO.C,R109*%
X103546359Y-106220000D02*
X103853641Y-106220000D01*
X103546359Y-106980000D02*
X103853641Y-106980000D01*
%TO.C,R108*%
X108720000Y-115653641D02*
X108720000Y-115346359D01*
X109480000Y-115653641D02*
X109480000Y-115346359D01*
%TO.C,R107*%
X103020000Y-115643641D02*
X103020000Y-115336359D01*
X103780000Y-115643641D02*
X103780000Y-115336359D01*
%TO.C,R106*%
X106246359Y-106220000D02*
X106553641Y-106220000D01*
X106246359Y-106980000D02*
X106553641Y-106980000D01*
%TO.C,R105*%
X108453641Y-106980000D02*
X108146359Y-106980000D01*
X108453641Y-106220000D02*
X108146359Y-106220000D01*
%TO.C,R104*%
X103380000Y-113346359D02*
X103380000Y-113653641D01*
X102620000Y-113346359D02*
X102620000Y-113653641D01*
%TO.C,J103*%
X99389000Y-72073000D02*
X99389000Y-59853000D01*
X99389000Y-59853000D02*
X87169000Y-59853000D01*
X87169000Y-59853000D02*
X87169000Y-72073000D01*
X87169000Y-72073000D02*
X99389000Y-72073000D01*
X99389000Y-61353000D02*
X99389000Y-63153000D01*
X99389000Y-63153000D02*
X87169000Y-63153000D01*
X87169000Y-63153000D02*
X87169000Y-61353000D01*
X87169000Y-61353000D02*
X99389000Y-61353000D01*
X96779000Y-59853000D02*
X94779000Y-59853000D01*
X94779000Y-59853000D02*
X95029000Y-61353000D01*
X95029000Y-61353000D02*
X96529000Y-61353000D01*
X96529000Y-61353000D02*
X96779000Y-59853000D01*
X91779000Y-59853000D02*
X89779000Y-59853000D01*
X89779000Y-59853000D02*
X90029000Y-61353000D01*
X90029000Y-61353000D02*
X91529000Y-61353000D01*
X91529000Y-61353000D02*
X91779000Y-59853000D01*
X95479000Y-72873000D02*
X95779000Y-72273000D01*
X95779000Y-72273000D02*
X96079000Y-72873000D01*
X96079000Y-72873000D02*
X95479000Y-72873000D01*
%TO.C,C104*%
X103225000Y-109036420D02*
X103225000Y-109317580D01*
X102205000Y-109036420D02*
X102205000Y-109317580D01*
%TO.C,U102*%
X108831000Y-110828000D02*
X108831000Y-108878000D01*
X108831000Y-110828000D02*
X108831000Y-112778000D01*
X103711000Y-110828000D02*
X103711000Y-108878000D01*
X103711000Y-110828000D02*
X103711000Y-114278000D01*
%TO.C,R101*%
D10*
X111722380Y-93719047D02*
X111246190Y-94052380D01*
X111722380Y-94290476D02*
X110722380Y-94290476D01*
X110722380Y-93909523D01*
X110770000Y-93814285D01*
X110817619Y-93766666D01*
X110912857Y-93719047D01*
X111055714Y-93719047D01*
X111150952Y-93766666D01*
X111198571Y-93814285D01*
X111246190Y-93909523D01*
X111246190Y-94290476D01*
X111722380Y-92766666D02*
X111722380Y-93338095D01*
X111722380Y-93052380D02*
X110722380Y-93052380D01*
X110865238Y-93147619D01*
X110960476Y-93242857D01*
X111008095Y-93338095D01*
X110722380Y-92147619D02*
X110722380Y-92052380D01*
X110770000Y-91957142D01*
X110817619Y-91909523D01*
X110912857Y-91861904D01*
X111103333Y-91814285D01*
X111341428Y-91814285D01*
X111531904Y-91861904D01*
X111627142Y-91909523D01*
X111674761Y-91957142D01*
X111722380Y-92052380D01*
X111722380Y-92147619D01*
X111674761Y-92242857D01*
X111627142Y-92290476D01*
X111531904Y-92338095D01*
X111341428Y-92385714D01*
X111103333Y-92385714D01*
X110912857Y-92338095D01*
X110817619Y-92290476D01*
X110770000Y-92242857D01*
X110722380Y-92147619D01*
X111722380Y-90861904D02*
X111722380Y-91433333D01*
X111722380Y-91147619D02*
X110722380Y-91147619D01*
X110865238Y-91242857D01*
X110960476Y-91338095D01*
X111008095Y-91433333D01*
%TO.C,D102*%
X109247380Y-93617476D02*
X108247380Y-93617476D01*
X108247380Y-93379380D01*
X108295000Y-93236523D01*
X108390238Y-93141285D01*
X108485476Y-93093666D01*
X108675952Y-93046047D01*
X108818809Y-93046047D01*
X109009285Y-93093666D01*
X109104523Y-93141285D01*
X109199761Y-93236523D01*
X109247380Y-93379380D01*
X109247380Y-93617476D01*
X109247380Y-92093666D02*
X109247380Y-92665095D01*
X109247380Y-92379380D02*
X108247380Y-92379380D01*
X108390238Y-92474619D01*
X108485476Y-92569857D01*
X108533095Y-92665095D01*
X108247380Y-91474619D02*
X108247380Y-91379380D01*
X108295000Y-91284142D01*
X108342619Y-91236523D01*
X108437857Y-91188904D01*
X108628333Y-91141285D01*
X108866428Y-91141285D01*
X109056904Y-91188904D01*
X109152142Y-91236523D01*
X109199761Y-91284142D01*
X109247380Y-91379380D01*
X109247380Y-91474619D01*
X109199761Y-91569857D01*
X109152142Y-91617476D01*
X109056904Y-91665095D01*
X108866428Y-91712714D01*
X108628333Y-91712714D01*
X108437857Y-91665095D01*
X108342619Y-91617476D01*
X108295000Y-91569857D01*
X108247380Y-91474619D01*
X108342619Y-90760333D02*
X108295000Y-90712714D01*
X108247380Y-90617476D01*
X108247380Y-90379380D01*
X108295000Y-90284142D01*
X108342619Y-90236523D01*
X108437857Y-90188904D01*
X108533095Y-90188904D01*
X108675952Y-90236523D01*
X109247380Y-90807952D01*
X109247380Y-90188904D01*
%TD*%
%LPC*%
D12*
%TO.C,TP106*%
X85200000Y-68500000D03*
%TD*%
D13*
%TO.C,TP105*%
X88200000Y-75800000D03*
%TD*%
%TO.C,TP101*%
X107300000Y-96900000D03*
%TD*%
D14*
%TO.C,JP103*%
X107400000Y-116950000D03*
X107400000Y-120850000D03*
%TD*%
%TO.C,JP102*%
X105100000Y-116950000D03*
X105100000Y-120850000D03*
%TD*%
D15*
%TO.C,JP101*%
X97100000Y-81270000D03*
D16*
X97100000Y-80000000D03*
%TD*%
D12*
%TO.C,TP104*%
X108700000Y-103900000D03*
%TD*%
%TO.C,TP103*%
X106000000Y-103900000D03*
%TD*%
%TO.C,TP102*%
X103300000Y-103900000D03*
%TD*%
%TO.C,R1702*%
G36*
G01*
X113085000Y-82870000D02*
X112715000Y-82870000D01*
G75*
G02*
X112580000Y-82735000I0J135000D01*
G01*
X112580000Y-82465000D01*
G75*
G02*
X112715000Y-82330000I135000J0D01*
G01*
X113085000Y-82330000D01*
G75*
G02*
X113220000Y-82465000I0J-135000D01*
G01*
X113220000Y-82735000D01*
G75*
G02*
X113085000Y-82870000I-135000J0D01*
G01*
G37*
G36*
G01*
X113085000Y-83890000D02*
X112715000Y-83890000D01*
G75*
G02*
X112580000Y-83755000I0J135000D01*
G01*
X112580000Y-83485000D01*
G75*
G02*
X112715000Y-83350000I135000J0D01*
G01*
X113085000Y-83350000D01*
G75*
G02*
X113220000Y-83485000I0J-135000D01*
G01*
X113220000Y-83755000D01*
G75*
G02*
X113085000Y-83890000I-135000J0D01*
G01*
G37*
%TD*%
%TO.C,F101*%
G36*
G01*
X94875000Y-73600000D02*
X94875000Y-76400000D01*
G75*
G02*
X94625000Y-76650000I-250000J0D01*
G01*
X93650000Y-76650000D01*
G75*
G02*
X93400000Y-76400000I0J250000D01*
G01*
X93400000Y-73600000D01*
G75*
G02*
X93650000Y-73350000I250000J0D01*
G01*
X94625000Y-73350000D01*
G75*
G02*
X94875000Y-73600000I0J-250000D01*
G01*
G37*
G36*
G01*
X99200000Y-73600000D02*
X99200000Y-76400000D01*
G75*
G02*
X98950000Y-76650000I-250000J0D01*
G01*
X97975000Y-76650000D01*
G75*
G02*
X97725000Y-76400000I0J250000D01*
G01*
X97725000Y-73600000D01*
G75*
G02*
X97975000Y-73350000I250000J0D01*
G01*
X98950000Y-73350000D01*
G75*
G02*
X99200000Y-73600000I0J-250000D01*
G01*
G37*
%TD*%
D17*
%TO.C,D103*%
X91800000Y-73450000D03*
X91800000Y-76750000D03*
%TD*%
D18*
%TO.C,U101*%
X106000000Y-91900000D03*
D19*
X103720000Y-85600000D03*
X108280000Y-85600000D03*
%TD*%
%TO.C,R103*%
G36*
G01*
X108575000Y-82275000D02*
X108025000Y-82275000D01*
G75*
G02*
X107825000Y-82075000I0J200000D01*
G01*
X107825000Y-81675000D01*
G75*
G02*
X108025000Y-81475000I200000J0D01*
G01*
X108575000Y-81475000D01*
G75*
G02*
X108775000Y-81675000I0J-200000D01*
G01*
X108775000Y-82075000D01*
G75*
G02*
X108575000Y-82275000I-200000J0D01*
G01*
G37*
G36*
G01*
X108575000Y-83925000D02*
X108025000Y-83925000D01*
G75*
G02*
X107825000Y-83725000I0J200000D01*
G01*
X107825000Y-83325000D01*
G75*
G02*
X108025000Y-83125000I200000J0D01*
G01*
X108575000Y-83125000D01*
G75*
G02*
X108775000Y-83325000I0J-200000D01*
G01*
X108775000Y-83725000D01*
G75*
G02*
X108575000Y-83925000I-200000J0D01*
G01*
G37*
%TD*%
%TO.C,R102*%
G36*
G01*
X107185000Y-82450000D02*
X106815000Y-82450000D01*
G75*
G02*
X106680000Y-82315000I0J135000D01*
G01*
X106680000Y-82045000D01*
G75*
G02*
X106815000Y-81910000I135000J0D01*
G01*
X107185000Y-81910000D01*
G75*
G02*
X107320000Y-82045000I0J-135000D01*
G01*
X107320000Y-82315000D01*
G75*
G02*
X107185000Y-82450000I-135000J0D01*
G01*
G37*
G36*
G01*
X107185000Y-83470000D02*
X106815000Y-83470000D01*
G75*
G02*
X106680000Y-83335000I0J135000D01*
G01*
X106680000Y-83065000D01*
G75*
G02*
X106815000Y-82930000I135000J0D01*
G01*
X107185000Y-82930000D01*
G75*
G02*
X107320000Y-83065000I0J-135000D01*
G01*
X107320000Y-83335000D01*
G75*
G02*
X107185000Y-83470000I-135000J0D01*
G01*
G37*
%TD*%
%TO.C,R101*%
G36*
G01*
X112975000Y-92175000D02*
X112425000Y-92175000D01*
G75*
G02*
X112225000Y-91975000I0J200000D01*
G01*
X112225000Y-91575000D01*
G75*
G02*
X112425000Y-91375000I200000J0D01*
G01*
X112975000Y-91375000D01*
G75*
G02*
X113175000Y-91575000I0J-200000D01*
G01*
X113175000Y-91975000D01*
G75*
G02*
X112975000Y-92175000I-200000J0D01*
G01*
G37*
G36*
G01*
X112975000Y-93825000D02*
X112425000Y-93825000D01*
G75*
G02*
X112225000Y-93625000I0J200000D01*
G01*
X112225000Y-93225000D01*
G75*
G02*
X112425000Y-93025000I200000J0D01*
G01*
X112975000Y-93025000D01*
G75*
G02*
X113175000Y-93225000I0J-200000D01*
G01*
X113175000Y-93625000D01*
G75*
G02*
X112975000Y-93825000I-200000J0D01*
G01*
G37*
%TD*%
D20*
%TO.C,D102*%
X110700000Y-90400000D03*
X110700000Y-93200000D03*
%TD*%
%TO.C,D101*%
X101300000Y-89100000D03*
X101300000Y-86300000D03*
%TD*%
%TO.C,C103*%
G36*
G01*
X106170000Y-82500000D02*
X105830000Y-82500000D01*
G75*
G02*
X105690000Y-82360000I0J140000D01*
G01*
X105690000Y-82080000D01*
G75*
G02*
X105830000Y-81940000I140000J0D01*
G01*
X106170000Y-81940000D01*
G75*
G02*
X106310000Y-82080000I0J-140000D01*
G01*
X106310000Y-82360000D01*
G75*
G02*
X106170000Y-82500000I-140000J0D01*
G01*
G37*
G36*
G01*
X106170000Y-83460000D02*
X105830000Y-83460000D01*
G75*
G02*
X105690000Y-83320000I0J140000D01*
G01*
X105690000Y-83040000D01*
G75*
G02*
X105830000Y-82900000I140000J0D01*
G01*
X106170000Y-82900000D01*
G75*
G02*
X106310000Y-83040000I0J-140000D01*
G01*
X106310000Y-83320000D01*
G75*
G02*
X106170000Y-83460000I-140000J0D01*
G01*
G37*
%TD*%
%TO.C,C102*%
G36*
G01*
X102170000Y-92300000D02*
X101830000Y-92300000D01*
G75*
G02*
X101690000Y-92160000I0J140000D01*
G01*
X101690000Y-91880000D01*
G75*
G02*
X101830000Y-91740000I140000J0D01*
G01*
X102170000Y-91740000D01*
G75*
G02*
X102310000Y-91880000I0J-140000D01*
G01*
X102310000Y-92160000D01*
G75*
G02*
X102170000Y-92300000I-140000J0D01*
G01*
G37*
G36*
G01*
X102170000Y-93260000D02*
X101830000Y-93260000D01*
G75*
G02*
X101690000Y-93120000I0J140000D01*
G01*
X101690000Y-92840000D01*
G75*
G02*
X101830000Y-92700000I140000J0D01*
G01*
X102170000Y-92700000D01*
G75*
G02*
X102310000Y-92840000I0J-140000D01*
G01*
X102310000Y-93120000D01*
G75*
G02*
X102170000Y-93260000I-140000J0D01*
G01*
G37*
%TD*%
%TO.C,C101*%
G36*
G01*
X104325000Y-83750000D02*
X104325000Y-83250000D01*
G75*
G02*
X104550000Y-83025000I225000J0D01*
G01*
X105000000Y-83025000D01*
G75*
G02*
X105225000Y-83250000I0J-225000D01*
G01*
X105225000Y-83750000D01*
G75*
G02*
X105000000Y-83975000I-225000J0D01*
G01*
X104550000Y-83975000D01*
G75*
G02*
X104325000Y-83750000I0J225000D01*
G01*
G37*
G36*
G01*
X102775000Y-83750000D02*
X102775000Y-83250000D01*
G75*
G02*
X103000000Y-83025000I225000J0D01*
G01*
X103450000Y-83025000D01*
G75*
G02*
X103675000Y-83250000I0J-225000D01*
G01*
X103675000Y-83750000D01*
G75*
G02*
X103450000Y-83975000I-225000J0D01*
G01*
X103000000Y-83975000D01*
G75*
G02*
X102775000Y-83750000I0J225000D01*
G01*
G37*
%TD*%
%TO.C,R1703*%
G36*
G01*
X111715000Y-83340000D02*
X112085000Y-83340000D01*
G75*
G02*
X112220000Y-83475000I0J-135000D01*
G01*
X112220000Y-83745000D01*
G75*
G02*
X112085000Y-83880000I-135000J0D01*
G01*
X111715000Y-83880000D01*
G75*
G02*
X111580000Y-83745000I0J135000D01*
G01*
X111580000Y-83475000D01*
G75*
G02*
X111715000Y-83340000I135000J0D01*
G01*
G37*
G36*
G01*
X111715000Y-82320000D02*
X112085000Y-82320000D01*
G75*
G02*
X112220000Y-82455000I0J-135000D01*
G01*
X112220000Y-82725000D01*
G75*
G02*
X112085000Y-82860000I-135000J0D01*
G01*
X111715000Y-82860000D01*
G75*
G02*
X111580000Y-82725000I0J135000D01*
G01*
X111580000Y-82455000D01*
G75*
G02*
X111715000Y-82320000I135000J0D01*
G01*
G37*
%TD*%
%TO.C,R1603*%
G36*
G01*
X112740000Y-87785000D02*
X112740000Y-87415000D01*
G75*
G02*
X112875000Y-87280000I135000J0D01*
G01*
X113145000Y-87280000D01*
G75*
G02*
X113280000Y-87415000I0J-135000D01*
G01*
X113280000Y-87785000D01*
G75*
G02*
X113145000Y-87920000I-135000J0D01*
G01*
X112875000Y-87920000D01*
G75*
G02*
X112740000Y-87785000I0J135000D01*
G01*
G37*
G36*
G01*
X111720000Y-87785000D02*
X111720000Y-87415000D01*
G75*
G02*
X111855000Y-87280000I135000J0D01*
G01*
X112125000Y-87280000D01*
G75*
G02*
X112260000Y-87415000I0J-135000D01*
G01*
X112260000Y-87785000D01*
G75*
G02*
X112125000Y-87920000I-135000J0D01*
G01*
X111855000Y-87920000D01*
G75*
G02*
X111720000Y-87785000I0J135000D01*
G01*
G37*
%TD*%
%TO.C,R1503*%
G36*
G01*
X112740000Y-94785000D02*
X112740000Y-94415000D01*
G75*
G02*
X112875000Y-94280000I135000J0D01*
G01*
X113145000Y-94280000D01*
G75*
G02*
X113280000Y-94415000I0J-135000D01*
G01*
X113280000Y-94785000D01*
G75*
G02*
X113145000Y-94920000I-135000J0D01*
G01*
X112875000Y-94920000D01*
G75*
G02*
X112740000Y-94785000I0J135000D01*
G01*
G37*
G36*
G01*
X111720000Y-94785000D02*
X111720000Y-94415000D01*
G75*
G02*
X111855000Y-94280000I135000J0D01*
G01*
X112125000Y-94280000D01*
G75*
G02*
X112260000Y-94415000I0J-135000D01*
G01*
X112260000Y-94785000D01*
G75*
G02*
X112125000Y-94920000I-135000J0D01*
G01*
X111855000Y-94920000D01*
G75*
G02*
X111720000Y-94785000I0J135000D01*
G01*
G37*
%TD*%
%TO.C,R1403*%
G36*
G01*
X112740000Y-101685000D02*
X112740000Y-101315000D01*
G75*
G02*
X112875000Y-101180000I135000J0D01*
G01*
X113145000Y-101180000D01*
G75*
G02*
X113280000Y-101315000I0J-135000D01*
G01*
X113280000Y-101685000D01*
G75*
G02*
X113145000Y-101820000I-135000J0D01*
G01*
X112875000Y-101820000D01*
G75*
G02*
X112740000Y-101685000I0J135000D01*
G01*
G37*
G36*
G01*
X111720000Y-101685000D02*
X111720000Y-101315000D01*
G75*
G02*
X111855000Y-101180000I135000J0D01*
G01*
X112125000Y-101180000D01*
G75*
G02*
X112260000Y-101315000I0J-135000D01*
G01*
X112260000Y-101685000D01*
G75*
G02*
X112125000Y-101820000I-135000J0D01*
G01*
X111855000Y-101820000D01*
G75*
G02*
X111720000Y-101685000I0J135000D01*
G01*
G37*
%TD*%
%TO.C,R1303*%
G36*
G01*
X112730000Y-108785000D02*
X112730000Y-108415000D01*
G75*
G02*
X112865000Y-108280000I135000J0D01*
G01*
X113135000Y-108280000D01*
G75*
G02*
X113270000Y-108415000I0J-135000D01*
G01*
X113270000Y-108785000D01*
G75*
G02*
X113135000Y-108920000I-135000J0D01*
G01*
X112865000Y-108920000D01*
G75*
G02*
X112730000Y-108785000I0J135000D01*
G01*
G37*
G36*
G01*
X111710000Y-108785000D02*
X111710000Y-108415000D01*
G75*
G02*
X111845000Y-108280000I135000J0D01*
G01*
X112115000Y-108280000D01*
G75*
G02*
X112250000Y-108415000I0J-135000D01*
G01*
X112250000Y-108785000D01*
G75*
G02*
X112115000Y-108920000I-135000J0D01*
G01*
X111845000Y-108920000D01*
G75*
G02*
X111710000Y-108785000I0J135000D01*
G01*
G37*
%TD*%
%TO.C,R1203*%
G36*
G01*
X112740000Y-115785000D02*
X112740000Y-115415000D01*
G75*
G02*
X112875000Y-115280000I135000J0D01*
G01*
X113145000Y-115280000D01*
G75*
G02*
X113280000Y-115415000I0J-135000D01*
G01*
X113280000Y-115785000D01*
G75*
G02*
X113145000Y-115920000I-135000J0D01*
G01*
X112875000Y-115920000D01*
G75*
G02*
X112740000Y-115785000I0J135000D01*
G01*
G37*
G36*
G01*
X111720000Y-115785000D02*
X111720000Y-115415000D01*
G75*
G02*
X111855000Y-115280000I135000J0D01*
G01*
X112125000Y-115280000D01*
G75*
G02*
X112260000Y-115415000I0J-135000D01*
G01*
X112260000Y-115785000D01*
G75*
G02*
X112125000Y-115920000I-135000J0D01*
G01*
X111855000Y-115920000D01*
G75*
G02*
X111720000Y-115785000I0J135000D01*
G01*
G37*
%TD*%
%TO.C,R1103*%
G36*
G01*
X112740000Y-122785000D02*
X112740000Y-122415000D01*
G75*
G02*
X112875000Y-122280000I135000J0D01*
G01*
X113145000Y-122280000D01*
G75*
G02*
X113280000Y-122415000I0J-135000D01*
G01*
X113280000Y-122785000D01*
G75*
G02*
X113145000Y-122920000I-135000J0D01*
G01*
X112875000Y-122920000D01*
G75*
G02*
X112740000Y-122785000I0J135000D01*
G01*
G37*
G36*
G01*
X111720000Y-122785000D02*
X111720000Y-122415000D01*
G75*
G02*
X111855000Y-122280000I135000J0D01*
G01*
X112125000Y-122280000D01*
G75*
G02*
X112260000Y-122415000I0J-135000D01*
G01*
X112260000Y-122785000D01*
G75*
G02*
X112125000Y-122920000I-135000J0D01*
G01*
X111855000Y-122920000D01*
G75*
G02*
X111720000Y-122785000I0J135000D01*
G01*
G37*
%TD*%
%TO.C,R1003*%
G36*
G01*
X112740000Y-129785000D02*
X112740000Y-129415000D01*
G75*
G02*
X112875000Y-129280000I135000J0D01*
G01*
X113145000Y-129280000D01*
G75*
G02*
X113280000Y-129415000I0J-135000D01*
G01*
X113280000Y-129785000D01*
G75*
G02*
X113145000Y-129920000I-135000J0D01*
G01*
X112875000Y-129920000D01*
G75*
G02*
X112740000Y-129785000I0J135000D01*
G01*
G37*
G36*
G01*
X111720000Y-129785000D02*
X111720000Y-129415000D01*
G75*
G02*
X111855000Y-129280000I135000J0D01*
G01*
X112125000Y-129280000D01*
G75*
G02*
X112260000Y-129415000I0J-135000D01*
G01*
X112260000Y-129785000D01*
G75*
G02*
X112125000Y-129920000I-135000J0D01*
G01*
X111855000Y-129920000D01*
G75*
G02*
X111720000Y-129785000I0J135000D01*
G01*
G37*
%TD*%
%TO.C,R903*%
G36*
G01*
X99660000Y-133415000D02*
X99660000Y-133785000D01*
G75*
G02*
X99525000Y-133920000I-135000J0D01*
G01*
X99255000Y-133920000D01*
G75*
G02*
X99120000Y-133785000I0J135000D01*
G01*
X99120000Y-133415000D01*
G75*
G02*
X99255000Y-133280000I135000J0D01*
G01*
X99525000Y-133280000D01*
G75*
G02*
X99660000Y-133415000I0J-135000D01*
G01*
G37*
G36*
G01*
X100680000Y-133415000D02*
X100680000Y-133785000D01*
G75*
G02*
X100545000Y-133920000I-135000J0D01*
G01*
X100275000Y-133920000D01*
G75*
G02*
X100140000Y-133785000I0J135000D01*
G01*
X100140000Y-133415000D01*
G75*
G02*
X100275000Y-133280000I135000J0D01*
G01*
X100545000Y-133280000D01*
G75*
G02*
X100680000Y-133415000I0J-135000D01*
G01*
G37*
%TD*%
%TO.C,R803*%
G36*
G01*
X99660000Y-126315000D02*
X99660000Y-126685000D01*
G75*
G02*
X99525000Y-126820000I-135000J0D01*
G01*
X99255000Y-126820000D01*
G75*
G02*
X99120000Y-126685000I0J135000D01*
G01*
X99120000Y-126315000D01*
G75*
G02*
X99255000Y-126180000I135000J0D01*
G01*
X99525000Y-126180000D01*
G75*
G02*
X99660000Y-126315000I0J-135000D01*
G01*
G37*
G36*
G01*
X100680000Y-126315000D02*
X100680000Y-126685000D01*
G75*
G02*
X100545000Y-126820000I-135000J0D01*
G01*
X100275000Y-126820000D01*
G75*
G02*
X100140000Y-126685000I0J135000D01*
G01*
X100140000Y-126315000D01*
G75*
G02*
X100275000Y-126180000I135000J0D01*
G01*
X100545000Y-126180000D01*
G75*
G02*
X100680000Y-126315000I0J-135000D01*
G01*
G37*
%TD*%
%TO.C,R703*%
G36*
G01*
X99660000Y-119415000D02*
X99660000Y-119785000D01*
G75*
G02*
X99525000Y-119920000I-135000J0D01*
G01*
X99255000Y-119920000D01*
G75*
G02*
X99120000Y-119785000I0J135000D01*
G01*
X99120000Y-119415000D01*
G75*
G02*
X99255000Y-119280000I135000J0D01*
G01*
X99525000Y-119280000D01*
G75*
G02*
X99660000Y-119415000I0J-135000D01*
G01*
G37*
G36*
G01*
X100680000Y-119415000D02*
X100680000Y-119785000D01*
G75*
G02*
X100545000Y-119920000I-135000J0D01*
G01*
X100275000Y-119920000D01*
G75*
G02*
X100140000Y-119785000I0J135000D01*
G01*
X100140000Y-119415000D01*
G75*
G02*
X100275000Y-119280000I135000J0D01*
G01*
X100545000Y-119280000D01*
G75*
G02*
X100680000Y-119415000I0J-135000D01*
G01*
G37*
%TD*%
%TO.C,R603*%
G36*
G01*
X99660000Y-112315000D02*
X99660000Y-112685000D01*
G75*
G02*
X99525000Y-112820000I-135000J0D01*
G01*
X99255000Y-112820000D01*
G75*
G02*
X99120000Y-112685000I0J135000D01*
G01*
X99120000Y-112315000D01*
G75*
G02*
X99255000Y-112180000I135000J0D01*
G01*
X99525000Y-112180000D01*
G75*
G02*
X99660000Y-112315000I0J-135000D01*
G01*
G37*
G36*
G01*
X100680000Y-112315000D02*
X100680000Y-112685000D01*
G75*
G02*
X100545000Y-112820000I-135000J0D01*
G01*
X100275000Y-112820000D01*
G75*
G02*
X100140000Y-112685000I0J135000D01*
G01*
X100140000Y-112315000D01*
G75*
G02*
X100275000Y-112180000I135000J0D01*
G01*
X100545000Y-112180000D01*
G75*
G02*
X100680000Y-112315000I0J-135000D01*
G01*
G37*
%TD*%
%TO.C,R503*%
G36*
G01*
X99660000Y-105315000D02*
X99660000Y-105685000D01*
G75*
G02*
X99525000Y-105820000I-135000J0D01*
G01*
X99255000Y-105820000D01*
G75*
G02*
X99120000Y-105685000I0J135000D01*
G01*
X99120000Y-105315000D01*
G75*
G02*
X99255000Y-105180000I135000J0D01*
G01*
X99525000Y-105180000D01*
G75*
G02*
X99660000Y-105315000I0J-135000D01*
G01*
G37*
G36*
G01*
X100680000Y-105315000D02*
X100680000Y-105685000D01*
G75*
G02*
X100545000Y-105820000I-135000J0D01*
G01*
X100275000Y-105820000D01*
G75*
G02*
X100140000Y-105685000I0J135000D01*
G01*
X100140000Y-105315000D01*
G75*
G02*
X100275000Y-105180000I135000J0D01*
G01*
X100545000Y-105180000D01*
G75*
G02*
X100680000Y-105315000I0J-135000D01*
G01*
G37*
%TD*%
%TO.C,R403*%
G36*
G01*
X99660000Y-98315000D02*
X99660000Y-98685000D01*
G75*
G02*
X99525000Y-98820000I-135000J0D01*
G01*
X99255000Y-98820000D01*
G75*
G02*
X99120000Y-98685000I0J135000D01*
G01*
X99120000Y-98315000D01*
G75*
G02*
X99255000Y-98180000I135000J0D01*
G01*
X99525000Y-98180000D01*
G75*
G02*
X99660000Y-98315000I0J-135000D01*
G01*
G37*
G36*
G01*
X100680000Y-98315000D02*
X100680000Y-98685000D01*
G75*
G02*
X100545000Y-98820000I-135000J0D01*
G01*
X100275000Y-98820000D01*
G75*
G02*
X100140000Y-98685000I0J135000D01*
G01*
X100140000Y-98315000D01*
G75*
G02*
X100275000Y-98180000I135000J0D01*
G01*
X100545000Y-98180000D01*
G75*
G02*
X100680000Y-98315000I0J-135000D01*
G01*
G37*
%TD*%
%TO.C,R303*%
G36*
G01*
X99660000Y-91315000D02*
X99660000Y-91685000D01*
G75*
G02*
X99525000Y-91820000I-135000J0D01*
G01*
X99255000Y-91820000D01*
G75*
G02*
X99120000Y-91685000I0J135000D01*
G01*
X99120000Y-91315000D01*
G75*
G02*
X99255000Y-91180000I135000J0D01*
G01*
X99525000Y-91180000D01*
G75*
G02*
X99660000Y-91315000I0J-135000D01*
G01*
G37*
G36*
G01*
X100680000Y-91315000D02*
X100680000Y-91685000D01*
G75*
G02*
X100545000Y-91820000I-135000J0D01*
G01*
X100275000Y-91820000D01*
G75*
G02*
X100140000Y-91685000I0J135000D01*
G01*
X100140000Y-91315000D01*
G75*
G02*
X100275000Y-91180000I135000J0D01*
G01*
X100545000Y-91180000D01*
G75*
G02*
X100680000Y-91315000I0J-135000D01*
G01*
G37*
%TD*%
%TO.C,R203*%
G36*
G01*
X99415000Y-87240000D02*
X99785000Y-87240000D01*
G75*
G02*
X99920000Y-87375000I0J-135000D01*
G01*
X99920000Y-87645000D01*
G75*
G02*
X99785000Y-87780000I-135000J0D01*
G01*
X99415000Y-87780000D01*
G75*
G02*
X99280000Y-87645000I0J135000D01*
G01*
X99280000Y-87375000D01*
G75*
G02*
X99415000Y-87240000I135000J0D01*
G01*
G37*
G36*
G01*
X99415000Y-86220000D02*
X99785000Y-86220000D01*
G75*
G02*
X99920000Y-86355000I0J-135000D01*
G01*
X99920000Y-86625000D01*
G75*
G02*
X99785000Y-86760000I-135000J0D01*
G01*
X99415000Y-86760000D01*
G75*
G02*
X99280000Y-86625000I0J135000D01*
G01*
X99280000Y-86355000D01*
G75*
G02*
X99415000Y-86220000I135000J0D01*
G01*
G37*
%TD*%
%TO.C,D1701*%
G36*
G01*
X111650000Y-84543750D02*
X111650000Y-85056250D01*
G75*
G02*
X111431250Y-85275000I-218750J0D01*
G01*
X110993750Y-85275000D01*
G75*
G02*
X110775000Y-85056250I0J218750D01*
G01*
X110775000Y-84543750D01*
G75*
G02*
X110993750Y-84325000I218750J0D01*
G01*
X111431250Y-84325000D01*
G75*
G02*
X111650000Y-84543750I0J-218750D01*
G01*
G37*
G36*
G01*
X113225000Y-84543750D02*
X113225000Y-85056250D01*
G75*
G02*
X113006250Y-85275000I-218750J0D01*
G01*
X112568750Y-85275000D01*
G75*
G02*
X112350000Y-85056250I0J218750D01*
G01*
X112350000Y-84543750D01*
G75*
G02*
X112568750Y-84325000I218750J0D01*
G01*
X113006250Y-84325000D01*
G75*
G02*
X113225000Y-84543750I0J-218750D01*
G01*
G37*
%TD*%
%TO.C,D1601*%
G36*
G01*
X114650000Y-86743750D02*
X114650000Y-87256250D01*
G75*
G02*
X114431250Y-87475000I-218750J0D01*
G01*
X113993750Y-87475000D01*
G75*
G02*
X113775000Y-87256250I0J218750D01*
G01*
X113775000Y-86743750D01*
G75*
G02*
X113993750Y-86525000I218750J0D01*
G01*
X114431250Y-86525000D01*
G75*
G02*
X114650000Y-86743750I0J-218750D01*
G01*
G37*
G36*
G01*
X116225000Y-86743750D02*
X116225000Y-87256250D01*
G75*
G02*
X116006250Y-87475000I-218750J0D01*
G01*
X115568750Y-87475000D01*
G75*
G02*
X115350000Y-87256250I0J218750D01*
G01*
X115350000Y-86743750D01*
G75*
G02*
X115568750Y-86525000I218750J0D01*
G01*
X116006250Y-86525000D01*
G75*
G02*
X116225000Y-86743750I0J-218750D01*
G01*
G37*
%TD*%
%TO.C,D1501*%
G36*
G01*
X114650000Y-93743750D02*
X114650000Y-94256250D01*
G75*
G02*
X114431250Y-94475000I-218750J0D01*
G01*
X113993750Y-94475000D01*
G75*
G02*
X113775000Y-94256250I0J218750D01*
G01*
X113775000Y-93743750D01*
G75*
G02*
X113993750Y-93525000I218750J0D01*
G01*
X114431250Y-93525000D01*
G75*
G02*
X114650000Y-93743750I0J-218750D01*
G01*
G37*
G36*
G01*
X116225000Y-93743750D02*
X116225000Y-94256250D01*
G75*
G02*
X116006250Y-94475000I-218750J0D01*
G01*
X115568750Y-94475000D01*
G75*
G02*
X115350000Y-94256250I0J218750D01*
G01*
X115350000Y-93743750D01*
G75*
G02*
X115568750Y-93525000I218750J0D01*
G01*
X116006250Y-93525000D01*
G75*
G02*
X116225000Y-93743750I0J-218750D01*
G01*
G37*
%TD*%
%TO.C,D1401*%
G36*
G01*
X114650000Y-100643750D02*
X114650000Y-101156250D01*
G75*
G02*
X114431250Y-101375000I-218750J0D01*
G01*
X113993750Y-101375000D01*
G75*
G02*
X113775000Y-101156250I0J218750D01*
G01*
X113775000Y-100643750D01*
G75*
G02*
X113993750Y-100425000I218750J0D01*
G01*
X114431250Y-100425000D01*
G75*
G02*
X114650000Y-100643750I0J-218750D01*
G01*
G37*
G36*
G01*
X116225000Y-100643750D02*
X116225000Y-101156250D01*
G75*
G02*
X116006250Y-101375000I-218750J0D01*
G01*
X115568750Y-101375000D01*
G75*
G02*
X115350000Y-101156250I0J218750D01*
G01*
X115350000Y-100643750D01*
G75*
G02*
X115568750Y-100425000I218750J0D01*
G01*
X116006250Y-100425000D01*
G75*
G02*
X116225000Y-100643750I0J-218750D01*
G01*
G37*
%TD*%
%TO.C,D1301*%
G36*
G01*
X114650000Y-107743750D02*
X114650000Y-108256250D01*
G75*
G02*
X114431250Y-108475000I-218750J0D01*
G01*
X113993750Y-108475000D01*
G75*
G02*
X113775000Y-108256250I0J218750D01*
G01*
X113775000Y-107743750D01*
G75*
G02*
X113993750Y-107525000I218750J0D01*
G01*
X114431250Y-107525000D01*
G75*
G02*
X114650000Y-107743750I0J-218750D01*
G01*
G37*
G36*
G01*
X116225000Y-107743750D02*
X116225000Y-108256250D01*
G75*
G02*
X116006250Y-108475000I-218750J0D01*
G01*
X115568750Y-108475000D01*
G75*
G02*
X115350000Y-108256250I0J218750D01*
G01*
X115350000Y-107743750D01*
G75*
G02*
X115568750Y-107525000I218750J0D01*
G01*
X116006250Y-107525000D01*
G75*
G02*
X116225000Y-107743750I0J-218750D01*
G01*
G37*
%TD*%
%TO.C,D1201*%
G36*
G01*
X114650000Y-114743750D02*
X114650000Y-115256250D01*
G75*
G02*
X114431250Y-115475000I-218750J0D01*
G01*
X113993750Y-115475000D01*
G75*
G02*
X113775000Y-115256250I0J218750D01*
G01*
X113775000Y-114743750D01*
G75*
G02*
X113993750Y-114525000I218750J0D01*
G01*
X114431250Y-114525000D01*
G75*
G02*
X114650000Y-114743750I0J-218750D01*
G01*
G37*
G36*
G01*
X116225000Y-114743750D02*
X116225000Y-115256250D01*
G75*
G02*
X116006250Y-115475000I-218750J0D01*
G01*
X115568750Y-115475000D01*
G75*
G02*
X115350000Y-115256250I0J218750D01*
G01*
X115350000Y-114743750D01*
G75*
G02*
X115568750Y-114525000I218750J0D01*
G01*
X116006250Y-114525000D01*
G75*
G02*
X116225000Y-114743750I0J-218750D01*
G01*
G37*
%TD*%
%TO.C,D1101*%
G36*
G01*
X114650000Y-121743750D02*
X114650000Y-122256250D01*
G75*
G02*
X114431250Y-122475000I-218750J0D01*
G01*
X113993750Y-122475000D01*
G75*
G02*
X113775000Y-122256250I0J218750D01*
G01*
X113775000Y-121743750D01*
G75*
G02*
X113993750Y-121525000I218750J0D01*
G01*
X114431250Y-121525000D01*
G75*
G02*
X114650000Y-121743750I0J-218750D01*
G01*
G37*
G36*
G01*
X116225000Y-121743750D02*
X116225000Y-122256250D01*
G75*
G02*
X116006250Y-122475000I-218750J0D01*
G01*
X115568750Y-122475000D01*
G75*
G02*
X115350000Y-122256250I0J218750D01*
G01*
X115350000Y-121743750D01*
G75*
G02*
X115568750Y-121525000I218750J0D01*
G01*
X116006250Y-121525000D01*
G75*
G02*
X116225000Y-121743750I0J-218750D01*
G01*
G37*
%TD*%
%TO.C,D1001*%
G36*
G01*
X114650000Y-128743750D02*
X114650000Y-129256250D01*
G75*
G02*
X114431250Y-129475000I-218750J0D01*
G01*
X113993750Y-129475000D01*
G75*
G02*
X113775000Y-129256250I0J218750D01*
G01*
X113775000Y-128743750D01*
G75*
G02*
X113993750Y-128525000I218750J0D01*
G01*
X114431250Y-128525000D01*
G75*
G02*
X114650000Y-128743750I0J-218750D01*
G01*
G37*
G36*
G01*
X116225000Y-128743750D02*
X116225000Y-129256250D01*
G75*
G02*
X116006250Y-129475000I-218750J0D01*
G01*
X115568750Y-129475000D01*
G75*
G02*
X115350000Y-129256250I0J218750D01*
G01*
X115350000Y-128743750D01*
G75*
G02*
X115568750Y-128525000I218750J0D01*
G01*
X116006250Y-128525000D01*
G75*
G02*
X116225000Y-128743750I0J-218750D01*
G01*
G37*
%TD*%
%TO.C,D901*%
G36*
G01*
X97750000Y-134456250D02*
X97750000Y-133943750D01*
G75*
G02*
X97968750Y-133725000I218750J0D01*
G01*
X98406250Y-133725000D01*
G75*
G02*
X98625000Y-133943750I0J-218750D01*
G01*
X98625000Y-134456250D01*
G75*
G02*
X98406250Y-134675000I-218750J0D01*
G01*
X97968750Y-134675000D01*
G75*
G02*
X97750000Y-134456250I0J218750D01*
G01*
G37*
G36*
G01*
X96175000Y-134456250D02*
X96175000Y-133943750D01*
G75*
G02*
X96393750Y-133725000I218750J0D01*
G01*
X96831250Y-133725000D01*
G75*
G02*
X97050000Y-133943750I0J-218750D01*
G01*
X97050000Y-134456250D01*
G75*
G02*
X96831250Y-134675000I-218750J0D01*
G01*
X96393750Y-134675000D01*
G75*
G02*
X96175000Y-134456250I0J218750D01*
G01*
G37*
%TD*%
%TO.C,D801*%
G36*
G01*
X97750000Y-127356250D02*
X97750000Y-126843750D01*
G75*
G02*
X97968750Y-126625000I218750J0D01*
G01*
X98406250Y-126625000D01*
G75*
G02*
X98625000Y-126843750I0J-218750D01*
G01*
X98625000Y-127356250D01*
G75*
G02*
X98406250Y-127575000I-218750J0D01*
G01*
X97968750Y-127575000D01*
G75*
G02*
X97750000Y-127356250I0J218750D01*
G01*
G37*
G36*
G01*
X96175000Y-127356250D02*
X96175000Y-126843750D01*
G75*
G02*
X96393750Y-126625000I218750J0D01*
G01*
X96831250Y-126625000D01*
G75*
G02*
X97050000Y-126843750I0J-218750D01*
G01*
X97050000Y-127356250D01*
G75*
G02*
X96831250Y-127575000I-218750J0D01*
G01*
X96393750Y-127575000D01*
G75*
G02*
X96175000Y-127356250I0J218750D01*
G01*
G37*
%TD*%
%TO.C,D701*%
G36*
G01*
X97750000Y-120356250D02*
X97750000Y-119843750D01*
G75*
G02*
X97968750Y-119625000I218750J0D01*
G01*
X98406250Y-119625000D01*
G75*
G02*
X98625000Y-119843750I0J-218750D01*
G01*
X98625000Y-120356250D01*
G75*
G02*
X98406250Y-120575000I-218750J0D01*
G01*
X97968750Y-120575000D01*
G75*
G02*
X97750000Y-120356250I0J218750D01*
G01*
G37*
G36*
G01*
X96175000Y-120356250D02*
X96175000Y-119843750D01*
G75*
G02*
X96393750Y-119625000I218750J0D01*
G01*
X96831250Y-119625000D01*
G75*
G02*
X97050000Y-119843750I0J-218750D01*
G01*
X97050000Y-120356250D01*
G75*
G02*
X96831250Y-120575000I-218750J0D01*
G01*
X96393750Y-120575000D01*
G75*
G02*
X96175000Y-120356250I0J218750D01*
G01*
G37*
%TD*%
%TO.C,D601*%
G36*
G01*
X97750000Y-113256250D02*
X97750000Y-112743750D01*
G75*
G02*
X97968750Y-112525000I218750J0D01*
G01*
X98406250Y-112525000D01*
G75*
G02*
X98625000Y-112743750I0J-218750D01*
G01*
X98625000Y-113256250D01*
G75*
G02*
X98406250Y-113475000I-218750J0D01*
G01*
X97968750Y-113475000D01*
G75*
G02*
X97750000Y-113256250I0J218750D01*
G01*
G37*
G36*
G01*
X96175000Y-113256250D02*
X96175000Y-112743750D01*
G75*
G02*
X96393750Y-112525000I218750J0D01*
G01*
X96831250Y-112525000D01*
G75*
G02*
X97050000Y-112743750I0J-218750D01*
G01*
X97050000Y-113256250D01*
G75*
G02*
X96831250Y-113475000I-218750J0D01*
G01*
X96393750Y-113475000D01*
G75*
G02*
X96175000Y-113256250I0J218750D01*
G01*
G37*
%TD*%
%TO.C,D501*%
G36*
G01*
X97750000Y-106256250D02*
X97750000Y-105743750D01*
G75*
G02*
X97968750Y-105525000I218750J0D01*
G01*
X98406250Y-105525000D01*
G75*
G02*
X98625000Y-105743750I0J-218750D01*
G01*
X98625000Y-106256250D01*
G75*
G02*
X98406250Y-106475000I-218750J0D01*
G01*
X97968750Y-106475000D01*
G75*
G02*
X97750000Y-106256250I0J218750D01*
G01*
G37*
G36*
G01*
X96175000Y-106256250D02*
X96175000Y-105743750D01*
G75*
G02*
X96393750Y-105525000I218750J0D01*
G01*
X96831250Y-105525000D01*
G75*
G02*
X97050000Y-105743750I0J-218750D01*
G01*
X97050000Y-106256250D01*
G75*
G02*
X96831250Y-106475000I-218750J0D01*
G01*
X96393750Y-106475000D01*
G75*
G02*
X96175000Y-106256250I0J218750D01*
G01*
G37*
%TD*%
%TO.C,D401*%
G36*
G01*
X97750000Y-99256250D02*
X97750000Y-98743750D01*
G75*
G02*
X97968750Y-98525000I218750J0D01*
G01*
X98406250Y-98525000D01*
G75*
G02*
X98625000Y-98743750I0J-218750D01*
G01*
X98625000Y-99256250D01*
G75*
G02*
X98406250Y-99475000I-218750J0D01*
G01*
X97968750Y-99475000D01*
G75*
G02*
X97750000Y-99256250I0J218750D01*
G01*
G37*
G36*
G01*
X96175000Y-99256250D02*
X96175000Y-98743750D01*
G75*
G02*
X96393750Y-98525000I218750J0D01*
G01*
X96831250Y-98525000D01*
G75*
G02*
X97050000Y-98743750I0J-218750D01*
G01*
X97050000Y-99256250D01*
G75*
G02*
X96831250Y-99475000I-218750J0D01*
G01*
X96393750Y-99475000D01*
G75*
G02*
X96175000Y-99256250I0J218750D01*
G01*
G37*
%TD*%
%TO.C,D301*%
G36*
G01*
X97750000Y-92356250D02*
X97750000Y-91843750D01*
G75*
G02*
X97968750Y-91625000I218750J0D01*
G01*
X98406250Y-91625000D01*
G75*
G02*
X98625000Y-91843750I0J-218750D01*
G01*
X98625000Y-92356250D01*
G75*
G02*
X98406250Y-92575000I-218750J0D01*
G01*
X97968750Y-92575000D01*
G75*
G02*
X97750000Y-92356250I0J218750D01*
G01*
G37*
G36*
G01*
X96175000Y-92356250D02*
X96175000Y-91843750D01*
G75*
G02*
X96393750Y-91625000I218750J0D01*
G01*
X96831250Y-91625000D01*
G75*
G02*
X97050000Y-91843750I0J-218750D01*
G01*
X97050000Y-92356250D01*
G75*
G02*
X96831250Y-92575000I-218750J0D01*
G01*
X96393750Y-92575000D01*
G75*
G02*
X96175000Y-92356250I0J218750D01*
G01*
G37*
%TD*%
%TO.C,D201*%
G36*
G01*
X97350000Y-87156250D02*
X97350000Y-86643750D01*
G75*
G02*
X97568750Y-86425000I218750J0D01*
G01*
X98006250Y-86425000D01*
G75*
G02*
X98225000Y-86643750I0J-218750D01*
G01*
X98225000Y-87156250D01*
G75*
G02*
X98006250Y-87375000I-218750J0D01*
G01*
X97568750Y-87375000D01*
G75*
G02*
X97350000Y-87156250I0J218750D01*
G01*
G37*
G36*
G01*
X95775000Y-87156250D02*
X95775000Y-86643750D01*
G75*
G02*
X95993750Y-86425000I218750J0D01*
G01*
X96431250Y-86425000D01*
G75*
G02*
X96650000Y-86643750I0J-218750D01*
G01*
X96650000Y-87156250D01*
G75*
G02*
X96431250Y-87375000I-218750J0D01*
G01*
X95993750Y-87375000D01*
G75*
G02*
X95775000Y-87156250I0J218750D01*
G01*
G37*
%TD*%
D21*
%TO.C,J102*%
X119300000Y-80800000D03*
X119300000Y-84300000D03*
X119300000Y-87800000D03*
X119300000Y-91300000D03*
X119300000Y-94800000D03*
X119300000Y-98300000D03*
X119300000Y-101800000D03*
X119300000Y-105300000D03*
X119300000Y-108800000D03*
X119300000Y-112300000D03*
X119300000Y-115800000D03*
X119300000Y-119300000D03*
X119300000Y-122800000D03*
X119300000Y-126300000D03*
X119300000Y-129800000D03*
G36*
G01*
X120850000Y-134200000D02*
X117750000Y-134200000D01*
G75*
G02*
X117500000Y-133950000I0J250000D01*
G01*
X117500000Y-132650000D01*
G75*
G02*
X117750000Y-132400000I250000J0D01*
G01*
X120850000Y-132400000D01*
G75*
G02*
X121100000Y-132650000I0J-250000D01*
G01*
X121100000Y-133950000D01*
G75*
G02*
X120850000Y-134200000I-250000J0D01*
G01*
G37*
%TD*%
%TO.C,J101*%
X93100000Y-133300000D03*
X93100000Y-129800000D03*
X93100000Y-126300000D03*
X93100000Y-122800000D03*
X93100000Y-119300000D03*
X93100000Y-115800000D03*
X93100000Y-112300000D03*
X93100000Y-108800000D03*
X93100000Y-105300000D03*
X93100000Y-101800000D03*
X93100000Y-98300000D03*
X93100000Y-94800000D03*
X93100000Y-91300000D03*
X93100000Y-87800000D03*
X93100000Y-84300000D03*
G36*
G01*
X91550000Y-79900000D02*
X94650000Y-79900000D01*
G75*
G02*
X94900000Y-80150000I0J-250000D01*
G01*
X94900000Y-81450000D01*
G75*
G02*
X94650000Y-81700000I-250000J0D01*
G01*
X91550000Y-81700000D01*
G75*
G02*
X91300000Y-81450000I0J250000D01*
G01*
X91300000Y-80150000D01*
G75*
G02*
X91550000Y-79900000I250000J0D01*
G01*
G37*
%TD*%
%TO.C,R1701*%
G36*
G01*
X112730000Y-81785000D02*
X112730000Y-81415000D01*
G75*
G02*
X112865000Y-81280000I135000J0D01*
G01*
X113135000Y-81280000D01*
G75*
G02*
X113270000Y-81415000I0J-135000D01*
G01*
X113270000Y-81785000D01*
G75*
G02*
X113135000Y-81920000I-135000J0D01*
G01*
X112865000Y-81920000D01*
G75*
G02*
X112730000Y-81785000I0J135000D01*
G01*
G37*
G36*
G01*
X111710000Y-81785000D02*
X111710000Y-81415000D01*
G75*
G02*
X111845000Y-81280000I135000J0D01*
G01*
X112115000Y-81280000D01*
G75*
G02*
X112250000Y-81415000I0J-135000D01*
G01*
X112250000Y-81785000D01*
G75*
G02*
X112115000Y-81920000I-135000J0D01*
G01*
X111845000Y-81920000D01*
G75*
G02*
X111710000Y-81785000I0J135000D01*
G01*
G37*
%TD*%
%TO.C,R1602*%
G36*
G01*
X113085000Y-89870000D02*
X112715000Y-89870000D01*
G75*
G02*
X112580000Y-89735000I0J135000D01*
G01*
X112580000Y-89465000D01*
G75*
G02*
X112715000Y-89330000I135000J0D01*
G01*
X113085000Y-89330000D01*
G75*
G02*
X113220000Y-89465000I0J-135000D01*
G01*
X113220000Y-89735000D01*
G75*
G02*
X113085000Y-89870000I-135000J0D01*
G01*
G37*
G36*
G01*
X113085000Y-90890000D02*
X112715000Y-90890000D01*
G75*
G02*
X112580000Y-90755000I0J135000D01*
G01*
X112580000Y-90485000D01*
G75*
G02*
X112715000Y-90350000I135000J0D01*
G01*
X113085000Y-90350000D01*
G75*
G02*
X113220000Y-90485000I0J-135000D01*
G01*
X113220000Y-90755000D01*
G75*
G02*
X113085000Y-90890000I-135000J0D01*
G01*
G37*
%TD*%
%TO.C,R1601*%
G36*
G01*
X112730000Y-88785000D02*
X112730000Y-88415000D01*
G75*
G02*
X112865000Y-88280000I135000J0D01*
G01*
X113135000Y-88280000D01*
G75*
G02*
X113270000Y-88415000I0J-135000D01*
G01*
X113270000Y-88785000D01*
G75*
G02*
X113135000Y-88920000I-135000J0D01*
G01*
X112865000Y-88920000D01*
G75*
G02*
X112730000Y-88785000I0J135000D01*
G01*
G37*
G36*
G01*
X111710000Y-88785000D02*
X111710000Y-88415000D01*
G75*
G02*
X111845000Y-88280000I135000J0D01*
G01*
X112115000Y-88280000D01*
G75*
G02*
X112250000Y-88415000I0J-135000D01*
G01*
X112250000Y-88785000D01*
G75*
G02*
X112115000Y-88920000I-135000J0D01*
G01*
X111845000Y-88920000D01*
G75*
G02*
X111710000Y-88785000I0J135000D01*
G01*
G37*
%TD*%
%TO.C,R1502*%
G36*
G01*
X113085000Y-96870000D02*
X112715000Y-96870000D01*
G75*
G02*
X112580000Y-96735000I0J135000D01*
G01*
X112580000Y-96465000D01*
G75*
G02*
X112715000Y-96330000I135000J0D01*
G01*
X113085000Y-96330000D01*
G75*
G02*
X113220000Y-96465000I0J-135000D01*
G01*
X113220000Y-96735000D01*
G75*
G02*
X113085000Y-96870000I-135000J0D01*
G01*
G37*
G36*
G01*
X113085000Y-97890000D02*
X112715000Y-97890000D01*
G75*
G02*
X112580000Y-97755000I0J135000D01*
G01*
X112580000Y-97485000D01*
G75*
G02*
X112715000Y-97350000I135000J0D01*
G01*
X113085000Y-97350000D01*
G75*
G02*
X113220000Y-97485000I0J-135000D01*
G01*
X113220000Y-97755000D01*
G75*
G02*
X113085000Y-97890000I-135000J0D01*
G01*
G37*
%TD*%
%TO.C,R1501*%
G36*
G01*
X112730000Y-95785000D02*
X112730000Y-95415000D01*
G75*
G02*
X112865000Y-95280000I135000J0D01*
G01*
X113135000Y-95280000D01*
G75*
G02*
X113270000Y-95415000I0J-135000D01*
G01*
X113270000Y-95785000D01*
G75*
G02*
X113135000Y-95920000I-135000J0D01*
G01*
X112865000Y-95920000D01*
G75*
G02*
X112730000Y-95785000I0J135000D01*
G01*
G37*
G36*
G01*
X111710000Y-95785000D02*
X111710000Y-95415000D01*
G75*
G02*
X111845000Y-95280000I135000J0D01*
G01*
X112115000Y-95280000D01*
G75*
G02*
X112250000Y-95415000I0J-135000D01*
G01*
X112250000Y-95785000D01*
G75*
G02*
X112115000Y-95920000I-135000J0D01*
G01*
X111845000Y-95920000D01*
G75*
G02*
X111710000Y-95785000I0J135000D01*
G01*
G37*
%TD*%
%TO.C,R1402*%
G36*
G01*
X113085000Y-103760000D02*
X112715000Y-103760000D01*
G75*
G02*
X112580000Y-103625000I0J135000D01*
G01*
X112580000Y-103355000D01*
G75*
G02*
X112715000Y-103220000I135000J0D01*
G01*
X113085000Y-103220000D01*
G75*
G02*
X113220000Y-103355000I0J-135000D01*
G01*
X113220000Y-103625000D01*
G75*
G02*
X113085000Y-103760000I-135000J0D01*
G01*
G37*
G36*
G01*
X113085000Y-104780000D02*
X112715000Y-104780000D01*
G75*
G02*
X112580000Y-104645000I0J135000D01*
G01*
X112580000Y-104375000D01*
G75*
G02*
X112715000Y-104240000I135000J0D01*
G01*
X113085000Y-104240000D01*
G75*
G02*
X113220000Y-104375000I0J-135000D01*
G01*
X113220000Y-104645000D01*
G75*
G02*
X113085000Y-104780000I-135000J0D01*
G01*
G37*
%TD*%
%TO.C,R1401*%
G36*
G01*
X112740000Y-102685000D02*
X112740000Y-102315000D01*
G75*
G02*
X112875000Y-102180000I135000J0D01*
G01*
X113145000Y-102180000D01*
G75*
G02*
X113280000Y-102315000I0J-135000D01*
G01*
X113280000Y-102685000D01*
G75*
G02*
X113145000Y-102820000I-135000J0D01*
G01*
X112875000Y-102820000D01*
G75*
G02*
X112740000Y-102685000I0J135000D01*
G01*
G37*
G36*
G01*
X111720000Y-102685000D02*
X111720000Y-102315000D01*
G75*
G02*
X111855000Y-102180000I135000J0D01*
G01*
X112125000Y-102180000D01*
G75*
G02*
X112260000Y-102315000I0J-135000D01*
G01*
X112260000Y-102685000D01*
G75*
G02*
X112125000Y-102820000I-135000J0D01*
G01*
X111855000Y-102820000D01*
G75*
G02*
X111720000Y-102685000I0J135000D01*
G01*
G37*
%TD*%
D22*
%TO.C,Q1701*%
X116200000Y-82600000D03*
X114200000Y-83550000D03*
X114200000Y-81650000D03*
%TD*%
%TO.C,Q1601*%
X116200000Y-89600000D03*
X114200000Y-90550000D03*
X114200000Y-88650000D03*
%TD*%
%TO.C,Q1501*%
X116200000Y-96600000D03*
X114200000Y-97550000D03*
X114200000Y-95650000D03*
%TD*%
%TO.C,Q1401*%
X116200000Y-103500000D03*
X114200000Y-104450000D03*
X114200000Y-102550000D03*
%TD*%
%TO.C,R1302*%
G36*
G01*
X113085000Y-110860000D02*
X112715000Y-110860000D01*
G75*
G02*
X112580000Y-110725000I0J135000D01*
G01*
X112580000Y-110455000D01*
G75*
G02*
X112715000Y-110320000I135000J0D01*
G01*
X113085000Y-110320000D01*
G75*
G02*
X113220000Y-110455000I0J-135000D01*
G01*
X113220000Y-110725000D01*
G75*
G02*
X113085000Y-110860000I-135000J0D01*
G01*
G37*
G36*
G01*
X113085000Y-111880000D02*
X112715000Y-111880000D01*
G75*
G02*
X112580000Y-111745000I0J135000D01*
G01*
X112580000Y-111475000D01*
G75*
G02*
X112715000Y-111340000I135000J0D01*
G01*
X113085000Y-111340000D01*
G75*
G02*
X113220000Y-111475000I0J-135000D01*
G01*
X113220000Y-111745000D01*
G75*
G02*
X113085000Y-111880000I-135000J0D01*
G01*
G37*
%TD*%
%TO.C,R1301*%
G36*
G01*
X112740000Y-109785000D02*
X112740000Y-109415000D01*
G75*
G02*
X112875000Y-109280000I135000J0D01*
G01*
X113145000Y-109280000D01*
G75*
G02*
X113280000Y-109415000I0J-135000D01*
G01*
X113280000Y-109785000D01*
G75*
G02*
X113145000Y-109920000I-135000J0D01*
G01*
X112875000Y-109920000D01*
G75*
G02*
X112740000Y-109785000I0J135000D01*
G01*
G37*
G36*
G01*
X111720000Y-109785000D02*
X111720000Y-109415000D01*
G75*
G02*
X111855000Y-109280000I135000J0D01*
G01*
X112125000Y-109280000D01*
G75*
G02*
X112260000Y-109415000I0J-135000D01*
G01*
X112260000Y-109785000D01*
G75*
G02*
X112125000Y-109920000I-135000J0D01*
G01*
X111855000Y-109920000D01*
G75*
G02*
X111720000Y-109785000I0J135000D01*
G01*
G37*
%TD*%
%TO.C,R1202*%
G36*
G01*
X113085000Y-117860000D02*
X112715000Y-117860000D01*
G75*
G02*
X112580000Y-117725000I0J135000D01*
G01*
X112580000Y-117455000D01*
G75*
G02*
X112715000Y-117320000I135000J0D01*
G01*
X113085000Y-117320000D01*
G75*
G02*
X113220000Y-117455000I0J-135000D01*
G01*
X113220000Y-117725000D01*
G75*
G02*
X113085000Y-117860000I-135000J0D01*
G01*
G37*
G36*
G01*
X113085000Y-118880000D02*
X112715000Y-118880000D01*
G75*
G02*
X112580000Y-118745000I0J135000D01*
G01*
X112580000Y-118475000D01*
G75*
G02*
X112715000Y-118340000I135000J0D01*
G01*
X113085000Y-118340000D01*
G75*
G02*
X113220000Y-118475000I0J-135000D01*
G01*
X113220000Y-118745000D01*
G75*
G02*
X113085000Y-118880000I-135000J0D01*
G01*
G37*
%TD*%
%TO.C,R1201*%
G36*
G01*
X112740000Y-116785000D02*
X112740000Y-116415000D01*
G75*
G02*
X112875000Y-116280000I135000J0D01*
G01*
X113145000Y-116280000D01*
G75*
G02*
X113280000Y-116415000I0J-135000D01*
G01*
X113280000Y-116785000D01*
G75*
G02*
X113145000Y-116920000I-135000J0D01*
G01*
X112875000Y-116920000D01*
G75*
G02*
X112740000Y-116785000I0J135000D01*
G01*
G37*
G36*
G01*
X111720000Y-116785000D02*
X111720000Y-116415000D01*
G75*
G02*
X111855000Y-116280000I135000J0D01*
G01*
X112125000Y-116280000D01*
G75*
G02*
X112260000Y-116415000I0J-135000D01*
G01*
X112260000Y-116785000D01*
G75*
G02*
X112125000Y-116920000I-135000J0D01*
G01*
X111855000Y-116920000D01*
G75*
G02*
X111720000Y-116785000I0J135000D01*
G01*
G37*
%TD*%
%TO.C,R1102*%
G36*
G01*
X113085000Y-124860000D02*
X112715000Y-124860000D01*
G75*
G02*
X112580000Y-124725000I0J135000D01*
G01*
X112580000Y-124455000D01*
G75*
G02*
X112715000Y-124320000I135000J0D01*
G01*
X113085000Y-124320000D01*
G75*
G02*
X113220000Y-124455000I0J-135000D01*
G01*
X113220000Y-124725000D01*
G75*
G02*
X113085000Y-124860000I-135000J0D01*
G01*
G37*
G36*
G01*
X113085000Y-125880000D02*
X112715000Y-125880000D01*
G75*
G02*
X112580000Y-125745000I0J135000D01*
G01*
X112580000Y-125475000D01*
G75*
G02*
X112715000Y-125340000I135000J0D01*
G01*
X113085000Y-125340000D01*
G75*
G02*
X113220000Y-125475000I0J-135000D01*
G01*
X113220000Y-125745000D01*
G75*
G02*
X113085000Y-125880000I-135000J0D01*
G01*
G37*
%TD*%
%TO.C,R1101*%
G36*
G01*
X112730000Y-123785000D02*
X112730000Y-123415000D01*
G75*
G02*
X112865000Y-123280000I135000J0D01*
G01*
X113135000Y-123280000D01*
G75*
G02*
X113270000Y-123415000I0J-135000D01*
G01*
X113270000Y-123785000D01*
G75*
G02*
X113135000Y-123920000I-135000J0D01*
G01*
X112865000Y-123920000D01*
G75*
G02*
X112730000Y-123785000I0J135000D01*
G01*
G37*
G36*
G01*
X111710000Y-123785000D02*
X111710000Y-123415000D01*
G75*
G02*
X111845000Y-123280000I135000J0D01*
G01*
X112115000Y-123280000D01*
G75*
G02*
X112250000Y-123415000I0J-135000D01*
G01*
X112250000Y-123785000D01*
G75*
G02*
X112115000Y-123920000I-135000J0D01*
G01*
X111845000Y-123920000D01*
G75*
G02*
X111710000Y-123785000I0J135000D01*
G01*
G37*
%TD*%
%TO.C,R1002*%
G36*
G01*
X113085000Y-131860000D02*
X112715000Y-131860000D01*
G75*
G02*
X112580000Y-131725000I0J135000D01*
G01*
X112580000Y-131455000D01*
G75*
G02*
X112715000Y-131320000I135000J0D01*
G01*
X113085000Y-131320000D01*
G75*
G02*
X113220000Y-131455000I0J-135000D01*
G01*
X113220000Y-131725000D01*
G75*
G02*
X113085000Y-131860000I-135000J0D01*
G01*
G37*
G36*
G01*
X113085000Y-132880000D02*
X112715000Y-132880000D01*
G75*
G02*
X112580000Y-132745000I0J135000D01*
G01*
X112580000Y-132475000D01*
G75*
G02*
X112715000Y-132340000I135000J0D01*
G01*
X113085000Y-132340000D01*
G75*
G02*
X113220000Y-132475000I0J-135000D01*
G01*
X113220000Y-132745000D01*
G75*
G02*
X113085000Y-132880000I-135000J0D01*
G01*
G37*
%TD*%
%TO.C,R1001*%
G36*
G01*
X112730000Y-130785000D02*
X112730000Y-130415000D01*
G75*
G02*
X112865000Y-130280000I135000J0D01*
G01*
X113135000Y-130280000D01*
G75*
G02*
X113270000Y-130415000I0J-135000D01*
G01*
X113270000Y-130785000D01*
G75*
G02*
X113135000Y-130920000I-135000J0D01*
G01*
X112865000Y-130920000D01*
G75*
G02*
X112730000Y-130785000I0J135000D01*
G01*
G37*
G36*
G01*
X111710000Y-130785000D02*
X111710000Y-130415000D01*
G75*
G02*
X111845000Y-130280000I135000J0D01*
G01*
X112115000Y-130280000D01*
G75*
G02*
X112250000Y-130415000I0J-135000D01*
G01*
X112250000Y-130785000D01*
G75*
G02*
X112115000Y-130920000I-135000J0D01*
G01*
X111845000Y-130920000D01*
G75*
G02*
X111710000Y-130785000I0J135000D01*
G01*
G37*
%TD*%
%TO.C,R902*%
G36*
G01*
X99315000Y-131340000D02*
X99685000Y-131340000D01*
G75*
G02*
X99820000Y-131475000I0J-135000D01*
G01*
X99820000Y-131745000D01*
G75*
G02*
X99685000Y-131880000I-135000J0D01*
G01*
X99315000Y-131880000D01*
G75*
G02*
X99180000Y-131745000I0J135000D01*
G01*
X99180000Y-131475000D01*
G75*
G02*
X99315000Y-131340000I135000J0D01*
G01*
G37*
G36*
G01*
X99315000Y-130320000D02*
X99685000Y-130320000D01*
G75*
G02*
X99820000Y-130455000I0J-135000D01*
G01*
X99820000Y-130725000D01*
G75*
G02*
X99685000Y-130860000I-135000J0D01*
G01*
X99315000Y-130860000D01*
G75*
G02*
X99180000Y-130725000I0J135000D01*
G01*
X99180000Y-130455000D01*
G75*
G02*
X99315000Y-130320000I135000J0D01*
G01*
G37*
%TD*%
%TO.C,R901*%
G36*
G01*
X99660000Y-132415000D02*
X99660000Y-132785000D01*
G75*
G02*
X99525000Y-132920000I-135000J0D01*
G01*
X99255000Y-132920000D01*
G75*
G02*
X99120000Y-132785000I0J135000D01*
G01*
X99120000Y-132415000D01*
G75*
G02*
X99255000Y-132280000I135000J0D01*
G01*
X99525000Y-132280000D01*
G75*
G02*
X99660000Y-132415000I0J-135000D01*
G01*
G37*
G36*
G01*
X100680000Y-132415000D02*
X100680000Y-132785000D01*
G75*
G02*
X100545000Y-132920000I-135000J0D01*
G01*
X100275000Y-132920000D01*
G75*
G02*
X100140000Y-132785000I0J135000D01*
G01*
X100140000Y-132415000D01*
G75*
G02*
X100275000Y-132280000I135000J0D01*
G01*
X100545000Y-132280000D01*
G75*
G02*
X100680000Y-132415000I0J-135000D01*
G01*
G37*
%TD*%
%TO.C,R802*%
G36*
G01*
X99315000Y-124240000D02*
X99685000Y-124240000D01*
G75*
G02*
X99820000Y-124375000I0J-135000D01*
G01*
X99820000Y-124645000D01*
G75*
G02*
X99685000Y-124780000I-135000J0D01*
G01*
X99315000Y-124780000D01*
G75*
G02*
X99180000Y-124645000I0J135000D01*
G01*
X99180000Y-124375000D01*
G75*
G02*
X99315000Y-124240000I135000J0D01*
G01*
G37*
G36*
G01*
X99315000Y-123220000D02*
X99685000Y-123220000D01*
G75*
G02*
X99820000Y-123355000I0J-135000D01*
G01*
X99820000Y-123625000D01*
G75*
G02*
X99685000Y-123760000I-135000J0D01*
G01*
X99315000Y-123760000D01*
G75*
G02*
X99180000Y-123625000I0J135000D01*
G01*
X99180000Y-123355000D01*
G75*
G02*
X99315000Y-123220000I135000J0D01*
G01*
G37*
%TD*%
%TO.C,R801*%
G36*
G01*
X99660000Y-125291600D02*
X99660000Y-125661600D01*
G75*
G02*
X99525000Y-125796600I-135000J0D01*
G01*
X99255000Y-125796600D01*
G75*
G02*
X99120000Y-125661600I0J135000D01*
G01*
X99120000Y-125291600D01*
G75*
G02*
X99255000Y-125156600I135000J0D01*
G01*
X99525000Y-125156600D01*
G75*
G02*
X99660000Y-125291600I0J-135000D01*
G01*
G37*
G36*
G01*
X100680000Y-125291600D02*
X100680000Y-125661600D01*
G75*
G02*
X100545000Y-125796600I-135000J0D01*
G01*
X100275000Y-125796600D01*
G75*
G02*
X100140000Y-125661600I0J135000D01*
G01*
X100140000Y-125291600D01*
G75*
G02*
X100275000Y-125156600I135000J0D01*
G01*
X100545000Y-125156600D01*
G75*
G02*
X100680000Y-125291600I0J-135000D01*
G01*
G37*
%TD*%
%TO.C,R702*%
G36*
G01*
X99314600Y-117308680D02*
X99684600Y-117308680D01*
G75*
G02*
X99819600Y-117443680I0J-135000D01*
G01*
X99819600Y-117713680D01*
G75*
G02*
X99684600Y-117848680I-135000J0D01*
G01*
X99314600Y-117848680D01*
G75*
G02*
X99179600Y-117713680I0J135000D01*
G01*
X99179600Y-117443680D01*
G75*
G02*
X99314600Y-117308680I135000J0D01*
G01*
G37*
G36*
G01*
X99314600Y-116288680D02*
X99684600Y-116288680D01*
G75*
G02*
X99819600Y-116423680I0J-135000D01*
G01*
X99819600Y-116693680D01*
G75*
G02*
X99684600Y-116828680I-135000J0D01*
G01*
X99314600Y-116828680D01*
G75*
G02*
X99179600Y-116693680I0J135000D01*
G01*
X99179600Y-116423680D01*
G75*
G02*
X99314600Y-116288680I135000J0D01*
G01*
G37*
%TD*%
%TO.C,R701*%
G36*
G01*
X99659600Y-118383680D02*
X99659600Y-118753680D01*
G75*
G02*
X99524600Y-118888680I-135000J0D01*
G01*
X99254600Y-118888680D01*
G75*
G02*
X99119600Y-118753680I0J135000D01*
G01*
X99119600Y-118383680D01*
G75*
G02*
X99254600Y-118248680I135000J0D01*
G01*
X99524600Y-118248680D01*
G75*
G02*
X99659600Y-118383680I0J-135000D01*
G01*
G37*
G36*
G01*
X100679600Y-118383680D02*
X100679600Y-118753680D01*
G75*
G02*
X100544600Y-118888680I-135000J0D01*
G01*
X100274600Y-118888680D01*
G75*
G02*
X100139600Y-118753680I0J135000D01*
G01*
X100139600Y-118383680D01*
G75*
G02*
X100274600Y-118248680I135000J0D01*
G01*
X100544600Y-118248680D01*
G75*
G02*
X100679600Y-118383680I0J-135000D01*
G01*
G37*
%TD*%
%TO.C,R602*%
G36*
G01*
X99314600Y-110208680D02*
X99684600Y-110208680D01*
G75*
G02*
X99819600Y-110343680I0J-135000D01*
G01*
X99819600Y-110613680D01*
G75*
G02*
X99684600Y-110748680I-135000J0D01*
G01*
X99314600Y-110748680D01*
G75*
G02*
X99179600Y-110613680I0J135000D01*
G01*
X99179600Y-110343680D01*
G75*
G02*
X99314600Y-110208680I135000J0D01*
G01*
G37*
G36*
G01*
X99314600Y-109188680D02*
X99684600Y-109188680D01*
G75*
G02*
X99819600Y-109323680I0J-135000D01*
G01*
X99819600Y-109593680D01*
G75*
G02*
X99684600Y-109728680I-135000J0D01*
G01*
X99314600Y-109728680D01*
G75*
G02*
X99179600Y-109593680I0J135000D01*
G01*
X99179600Y-109323680D01*
G75*
G02*
X99314600Y-109188680I135000J0D01*
G01*
G37*
%TD*%
%TO.C,R601*%
G36*
G01*
X99659600Y-111283680D02*
X99659600Y-111653680D01*
G75*
G02*
X99524600Y-111788680I-135000J0D01*
G01*
X99254600Y-111788680D01*
G75*
G02*
X99119600Y-111653680I0J135000D01*
G01*
X99119600Y-111283680D01*
G75*
G02*
X99254600Y-111148680I135000J0D01*
G01*
X99524600Y-111148680D01*
G75*
G02*
X99659600Y-111283680I0J-135000D01*
G01*
G37*
G36*
G01*
X100679600Y-111283680D02*
X100679600Y-111653680D01*
G75*
G02*
X100544600Y-111788680I-135000J0D01*
G01*
X100274600Y-111788680D01*
G75*
G02*
X100139600Y-111653680I0J135000D01*
G01*
X100139600Y-111283680D01*
G75*
G02*
X100274600Y-111148680I135000J0D01*
G01*
X100544600Y-111148680D01*
G75*
G02*
X100679600Y-111283680I0J-135000D01*
G01*
G37*
%TD*%
%TO.C,R502*%
G36*
G01*
X99314600Y-103208680D02*
X99684600Y-103208680D01*
G75*
G02*
X99819600Y-103343680I0J-135000D01*
G01*
X99819600Y-103613680D01*
G75*
G02*
X99684600Y-103748680I-135000J0D01*
G01*
X99314600Y-103748680D01*
G75*
G02*
X99179600Y-103613680I0J135000D01*
G01*
X99179600Y-103343680D01*
G75*
G02*
X99314600Y-103208680I135000J0D01*
G01*
G37*
G36*
G01*
X99314600Y-102188680D02*
X99684600Y-102188680D01*
G75*
G02*
X99819600Y-102323680I0J-135000D01*
G01*
X99819600Y-102593680D01*
G75*
G02*
X99684600Y-102728680I-135000J0D01*
G01*
X99314600Y-102728680D01*
G75*
G02*
X99179600Y-102593680I0J135000D01*
G01*
X99179600Y-102323680D01*
G75*
G02*
X99314600Y-102188680I135000J0D01*
G01*
G37*
%TD*%
%TO.C,R501*%
G36*
G01*
X99659600Y-104283680D02*
X99659600Y-104653680D01*
G75*
G02*
X99524600Y-104788680I-135000J0D01*
G01*
X99254600Y-104788680D01*
G75*
G02*
X99119600Y-104653680I0J135000D01*
G01*
X99119600Y-104283680D01*
G75*
G02*
X99254600Y-104148680I135000J0D01*
G01*
X99524600Y-104148680D01*
G75*
G02*
X99659600Y-104283680I0J-135000D01*
G01*
G37*
G36*
G01*
X100679600Y-104283680D02*
X100679600Y-104653680D01*
G75*
G02*
X100544600Y-104788680I-135000J0D01*
G01*
X100274600Y-104788680D01*
G75*
G02*
X100139600Y-104653680I0J135000D01*
G01*
X100139600Y-104283680D01*
G75*
G02*
X100274600Y-104148680I135000J0D01*
G01*
X100544600Y-104148680D01*
G75*
G02*
X100679600Y-104283680I0J-135000D01*
G01*
G37*
%TD*%
%TO.C,R402*%
G36*
G01*
X99314600Y-96208680D02*
X99684600Y-96208680D01*
G75*
G02*
X99819600Y-96343680I0J-135000D01*
G01*
X99819600Y-96613680D01*
G75*
G02*
X99684600Y-96748680I-135000J0D01*
G01*
X99314600Y-96748680D01*
G75*
G02*
X99179600Y-96613680I0J135000D01*
G01*
X99179600Y-96343680D01*
G75*
G02*
X99314600Y-96208680I135000J0D01*
G01*
G37*
G36*
G01*
X99314600Y-95188680D02*
X99684600Y-95188680D01*
G75*
G02*
X99819600Y-95323680I0J-135000D01*
G01*
X99819600Y-95593680D01*
G75*
G02*
X99684600Y-95728680I-135000J0D01*
G01*
X99314600Y-95728680D01*
G75*
G02*
X99179600Y-95593680I0J135000D01*
G01*
X99179600Y-95323680D01*
G75*
G02*
X99314600Y-95188680I135000J0D01*
G01*
G37*
%TD*%
%TO.C,R401*%
G36*
G01*
X99659600Y-97283680D02*
X99659600Y-97653680D01*
G75*
G02*
X99524600Y-97788680I-135000J0D01*
G01*
X99254600Y-97788680D01*
G75*
G02*
X99119600Y-97653680I0J135000D01*
G01*
X99119600Y-97283680D01*
G75*
G02*
X99254600Y-97148680I135000J0D01*
G01*
X99524600Y-97148680D01*
G75*
G02*
X99659600Y-97283680I0J-135000D01*
G01*
G37*
G36*
G01*
X100679600Y-97283680D02*
X100679600Y-97653680D01*
G75*
G02*
X100544600Y-97788680I-135000J0D01*
G01*
X100274600Y-97788680D01*
G75*
G02*
X100139600Y-97653680I0J135000D01*
G01*
X100139600Y-97283680D01*
G75*
G02*
X100274600Y-97148680I135000J0D01*
G01*
X100544600Y-97148680D01*
G75*
G02*
X100679600Y-97283680I0J-135000D01*
G01*
G37*
%TD*%
%TO.C,R302*%
G36*
G01*
X99314600Y-89208680D02*
X99684600Y-89208680D01*
G75*
G02*
X99819600Y-89343680I0J-135000D01*
G01*
X99819600Y-89613680D01*
G75*
G02*
X99684600Y-89748680I-135000J0D01*
G01*
X99314600Y-89748680D01*
G75*
G02*
X99179600Y-89613680I0J135000D01*
G01*
X99179600Y-89343680D01*
G75*
G02*
X99314600Y-89208680I135000J0D01*
G01*
G37*
G36*
G01*
X99314600Y-88188680D02*
X99684600Y-88188680D01*
G75*
G02*
X99819600Y-88323680I0J-135000D01*
G01*
X99819600Y-88593680D01*
G75*
G02*
X99684600Y-88728680I-135000J0D01*
G01*
X99314600Y-88728680D01*
G75*
G02*
X99179600Y-88593680I0J135000D01*
G01*
X99179600Y-88323680D01*
G75*
G02*
X99314600Y-88188680I135000J0D01*
G01*
G37*
%TD*%
%TO.C,R301*%
G36*
G01*
X99659600Y-90283680D02*
X99659600Y-90653680D01*
G75*
G02*
X99524600Y-90788680I-135000J0D01*
G01*
X99254600Y-90788680D01*
G75*
G02*
X99119600Y-90653680I0J135000D01*
G01*
X99119600Y-90283680D01*
G75*
G02*
X99254600Y-90148680I135000J0D01*
G01*
X99524600Y-90148680D01*
G75*
G02*
X99659600Y-90283680I0J-135000D01*
G01*
G37*
G36*
G01*
X100679600Y-90283680D02*
X100679600Y-90653680D01*
G75*
G02*
X100544600Y-90788680I-135000J0D01*
G01*
X100274600Y-90788680D01*
G75*
G02*
X100139600Y-90653680I0J135000D01*
G01*
X100139600Y-90283680D01*
G75*
G02*
X100274600Y-90148680I135000J0D01*
G01*
X100544600Y-90148680D01*
G75*
G02*
X100679600Y-90283680I0J-135000D01*
G01*
G37*
%TD*%
%TO.C,Q1301*%
X116200000Y-110600000D03*
X114200000Y-111550000D03*
X114200000Y-109650000D03*
%TD*%
%TO.C,Q1201*%
X116200000Y-117600000D03*
X114200000Y-118550000D03*
X114200000Y-116650000D03*
%TD*%
%TO.C,Q1101*%
X116200000Y-124600000D03*
X114200000Y-125550000D03*
X114200000Y-123650000D03*
%TD*%
%TO.C,Q1001*%
X116200000Y-131600000D03*
X114200000Y-132550000D03*
X114200000Y-130650000D03*
%TD*%
%TO.C,Q901*%
X96200000Y-131600000D03*
X98200000Y-130650000D03*
X98200000Y-132550000D03*
%TD*%
%TO.C,Q801*%
X96200000Y-124500000D03*
X98200000Y-123550000D03*
X98200000Y-125450000D03*
%TD*%
%TO.C,Q701*%
X96199600Y-117580680D03*
X98199600Y-116630680D03*
X98199600Y-118530680D03*
%TD*%
%TO.C,Q601*%
X96199600Y-110468680D03*
X98199600Y-109518680D03*
X98199600Y-111418680D03*
%TD*%
%TO.C,Q501*%
X96199600Y-103468680D03*
X98199600Y-102518680D03*
X98199600Y-104418680D03*
%TD*%
%TO.C,Q401*%
X96199600Y-96468680D03*
X98199600Y-95518680D03*
X98199600Y-97418680D03*
%TD*%
%TO.C,Q301*%
X96199600Y-89468680D03*
X98199600Y-88518680D03*
X98199600Y-90418680D03*
%TD*%
%TO.C,Q201*%
X96200000Y-84300000D03*
X98200000Y-83350000D03*
X98200000Y-85250000D03*
%TD*%
%TO.C,R202*%
G36*
G01*
X100860000Y-84715000D02*
X100860000Y-85085000D01*
G75*
G02*
X100725000Y-85220000I-135000J0D01*
G01*
X100455000Y-85220000D01*
G75*
G02*
X100320000Y-85085000I0J135000D01*
G01*
X100320000Y-84715000D01*
G75*
G02*
X100455000Y-84580000I135000J0D01*
G01*
X100725000Y-84580000D01*
G75*
G02*
X100860000Y-84715000I0J-135000D01*
G01*
G37*
G36*
G01*
X101880000Y-84715000D02*
X101880000Y-85085000D01*
G75*
G02*
X101745000Y-85220000I-135000J0D01*
G01*
X101475000Y-85220000D01*
G75*
G02*
X101340000Y-85085000I0J135000D01*
G01*
X101340000Y-84715000D01*
G75*
G02*
X101475000Y-84580000I135000J0D01*
G01*
X101745000Y-84580000D01*
G75*
G02*
X101880000Y-84715000I0J-135000D01*
G01*
G37*
%TD*%
%TO.C,R201*%
G36*
G01*
X99785000Y-84860000D02*
X99415000Y-84860000D01*
G75*
G02*
X99280000Y-84725000I0J135000D01*
G01*
X99280000Y-84455000D01*
G75*
G02*
X99415000Y-84320000I135000J0D01*
G01*
X99785000Y-84320000D01*
G75*
G02*
X99920000Y-84455000I0J-135000D01*
G01*
X99920000Y-84725000D01*
G75*
G02*
X99785000Y-84860000I-135000J0D01*
G01*
G37*
G36*
G01*
X99785000Y-85880000D02*
X99415000Y-85880000D01*
G75*
G02*
X99280000Y-85745000I0J135000D01*
G01*
X99280000Y-85475000D01*
G75*
G02*
X99415000Y-85340000I135000J0D01*
G01*
X99785000Y-85340000D01*
G75*
G02*
X99920000Y-85475000I0J-135000D01*
G01*
X99920000Y-85745000D01*
G75*
G02*
X99785000Y-85880000I-135000J0D01*
G01*
G37*
%TD*%
%TO.C,R109*%
G36*
G01*
X103940000Y-106785000D02*
X103940000Y-106415000D01*
G75*
G02*
X104075000Y-106280000I135000J0D01*
G01*
X104345000Y-106280000D01*
G75*
G02*
X104480000Y-106415000I0J-135000D01*
G01*
X104480000Y-106785000D01*
G75*
G02*
X104345000Y-106920000I-135000J0D01*
G01*
X104075000Y-106920000D01*
G75*
G02*
X103940000Y-106785000I0J135000D01*
G01*
G37*
G36*
G01*
X102920000Y-106785000D02*
X102920000Y-106415000D01*
G75*
G02*
X103055000Y-106280000I135000J0D01*
G01*
X103325000Y-106280000D01*
G75*
G02*
X103460000Y-106415000I0J-135000D01*
G01*
X103460000Y-106785000D01*
G75*
G02*
X103325000Y-106920000I-135000J0D01*
G01*
X103055000Y-106920000D01*
G75*
G02*
X102920000Y-106785000I0J135000D01*
G01*
G37*
%TD*%
%TO.C,R108*%
G36*
G01*
X109285000Y-115260000D02*
X108915000Y-115260000D01*
G75*
G02*
X108780000Y-115125000I0J135000D01*
G01*
X108780000Y-114855000D01*
G75*
G02*
X108915000Y-114720000I135000J0D01*
G01*
X109285000Y-114720000D01*
G75*
G02*
X109420000Y-114855000I0J-135000D01*
G01*
X109420000Y-115125000D01*
G75*
G02*
X109285000Y-115260000I-135000J0D01*
G01*
G37*
G36*
G01*
X109285000Y-116280000D02*
X108915000Y-116280000D01*
G75*
G02*
X108780000Y-116145000I0J135000D01*
G01*
X108780000Y-115875000D01*
G75*
G02*
X108915000Y-115740000I135000J0D01*
G01*
X109285000Y-115740000D01*
G75*
G02*
X109420000Y-115875000I0J-135000D01*
G01*
X109420000Y-116145000D01*
G75*
G02*
X109285000Y-116280000I-135000J0D01*
G01*
G37*
%TD*%
%TO.C,R107*%
G36*
G01*
X103585000Y-115250000D02*
X103215000Y-115250000D01*
G75*
G02*
X103080000Y-115115000I0J135000D01*
G01*
X103080000Y-114845000D01*
G75*
G02*
X103215000Y-114710000I135000J0D01*
G01*
X103585000Y-114710000D01*
G75*
G02*
X103720000Y-114845000I0J-135000D01*
G01*
X103720000Y-115115000D01*
G75*
G02*
X103585000Y-115250000I-135000J0D01*
G01*
G37*
G36*
G01*
X103585000Y-116270000D02*
X103215000Y-116270000D01*
G75*
G02*
X103080000Y-116135000I0J135000D01*
G01*
X103080000Y-115865000D01*
G75*
G02*
X103215000Y-115730000I135000J0D01*
G01*
X103585000Y-115730000D01*
G75*
G02*
X103720000Y-115865000I0J-135000D01*
G01*
X103720000Y-116135000D01*
G75*
G02*
X103585000Y-116270000I-135000J0D01*
G01*
G37*
%TD*%
%TO.C,R106*%
G36*
G01*
X106640000Y-106785000D02*
X106640000Y-106415000D01*
G75*
G02*
X106775000Y-106280000I135000J0D01*
G01*
X107045000Y-106280000D01*
G75*
G02*
X107180000Y-106415000I0J-135000D01*
G01*
X107180000Y-106785000D01*
G75*
G02*
X107045000Y-106920000I-135000J0D01*
G01*
X106775000Y-106920000D01*
G75*
G02*
X106640000Y-106785000I0J135000D01*
G01*
G37*
G36*
G01*
X105620000Y-106785000D02*
X105620000Y-106415000D01*
G75*
G02*
X105755000Y-106280000I135000J0D01*
G01*
X106025000Y-106280000D01*
G75*
G02*
X106160000Y-106415000I0J-135000D01*
G01*
X106160000Y-106785000D01*
G75*
G02*
X106025000Y-106920000I-135000J0D01*
G01*
X105755000Y-106920000D01*
G75*
G02*
X105620000Y-106785000I0J135000D01*
G01*
G37*
%TD*%
%TO.C,R105*%
G36*
G01*
X108060000Y-106415000D02*
X108060000Y-106785000D01*
G75*
G02*
X107925000Y-106920000I-135000J0D01*
G01*
X107655000Y-106920000D01*
G75*
G02*
X107520000Y-106785000I0J135000D01*
G01*
X107520000Y-106415000D01*
G75*
G02*
X107655000Y-106280000I135000J0D01*
G01*
X107925000Y-106280000D01*
G75*
G02*
X108060000Y-106415000I0J-135000D01*
G01*
G37*
G36*
G01*
X109080000Y-106415000D02*
X109080000Y-106785000D01*
G75*
G02*
X108945000Y-106920000I-135000J0D01*
G01*
X108675000Y-106920000D01*
G75*
G02*
X108540000Y-106785000I0J135000D01*
G01*
X108540000Y-106415000D01*
G75*
G02*
X108675000Y-106280000I135000J0D01*
G01*
X108945000Y-106280000D01*
G75*
G02*
X109080000Y-106415000I0J-135000D01*
G01*
G37*
%TD*%
%TO.C,R104*%
G36*
G01*
X102815000Y-113740000D02*
X103185000Y-113740000D01*
G75*
G02*
X103320000Y-113875000I0J-135000D01*
G01*
X103320000Y-114145000D01*
G75*
G02*
X103185000Y-114280000I-135000J0D01*
G01*
X102815000Y-114280000D01*
G75*
G02*
X102680000Y-114145000I0J135000D01*
G01*
X102680000Y-113875000D01*
G75*
G02*
X102815000Y-113740000I135000J0D01*
G01*
G37*
G36*
G01*
X102815000Y-112720000D02*
X103185000Y-112720000D01*
G75*
G02*
X103320000Y-112855000I0J-135000D01*
G01*
X103320000Y-113125000D01*
G75*
G02*
X103185000Y-113260000I-135000J0D01*
G01*
X102815000Y-113260000D01*
G75*
G02*
X102680000Y-113125000I0J135000D01*
G01*
X102680000Y-112855000D01*
G75*
G02*
X102815000Y-112720000I135000J0D01*
G01*
G37*
%TD*%
D23*
%TO.C,J103*%
X90779000Y-69963000D03*
G36*
G01*
X96779000Y-68413000D02*
X96779000Y-71513000D01*
G75*
G02*
X96529000Y-71763000I-250000J0D01*
G01*
X95029000Y-71763000D01*
G75*
G02*
X94779000Y-71513000I0J250000D01*
G01*
X94779000Y-68413000D01*
G75*
G02*
X95029000Y-68163000I250000J0D01*
G01*
X96529000Y-68163000D01*
G75*
G02*
X96779000Y-68413000I0J-250000D01*
G01*
G37*
%TD*%
D24*
%TO.C,H104*%
X127153080Y-140046680D03*
%TD*%
%TO.C,H103*%
X85243080Y-140046680D03*
%TD*%
%TO.C,H102*%
X130328080Y-74006680D03*
%TD*%
%TO.C,H101*%
X82068080Y-74009220D03*
%TD*%
%TO.C,C104*%
G36*
G01*
X102465000Y-107952000D02*
X102965000Y-107952000D01*
G75*
G02*
X103190000Y-108177000I0J-225000D01*
G01*
X103190000Y-108627000D01*
G75*
G02*
X102965000Y-108852000I-225000J0D01*
G01*
X102465000Y-108852000D01*
G75*
G02*
X102240000Y-108627000I0J225000D01*
G01*
X102240000Y-108177000D01*
G75*
G02*
X102465000Y-107952000I225000J0D01*
G01*
G37*
G36*
G01*
X102465000Y-109502000D02*
X102965000Y-109502000D01*
G75*
G02*
X103190000Y-109727000I0J-225000D01*
G01*
X103190000Y-110177000D01*
G75*
G02*
X102965000Y-110402000I-225000J0D01*
G01*
X102465000Y-110402000D01*
G75*
G02*
X102240000Y-110177000I0J225000D01*
G01*
X102240000Y-109727000D01*
G75*
G02*
X102465000Y-109502000I225000J0D01*
G01*
G37*
%TD*%
%TO.C,U102*%
G36*
G01*
X104516000Y-114278000D02*
X104216000Y-114278000D01*
G75*
G02*
X104066000Y-114128000I0J150000D01*
G01*
X104066000Y-112478000D01*
G75*
G02*
X104216000Y-112328000I150000J0D01*
G01*
X104516000Y-112328000D01*
G75*
G02*
X104666000Y-112478000I0J-150000D01*
G01*
X104666000Y-114128000D01*
G75*
G02*
X104516000Y-114278000I-150000J0D01*
G01*
G37*
G36*
G01*
X105786000Y-114278000D02*
X105486000Y-114278000D01*
G75*
G02*
X105336000Y-114128000I0J150000D01*
G01*
X105336000Y-112478000D01*
G75*
G02*
X105486000Y-112328000I150000J0D01*
G01*
X105786000Y-112328000D01*
G75*
G02*
X105936000Y-112478000I0J-150000D01*
G01*
X105936000Y-114128000D01*
G75*
G02*
X105786000Y-114278000I-150000J0D01*
G01*
G37*
G36*
G01*
X107056000Y-114278000D02*
X106756000Y-114278000D01*
G75*
G02*
X106606000Y-114128000I0J150000D01*
G01*
X106606000Y-112478000D01*
G75*
G02*
X106756000Y-112328000I150000J0D01*
G01*
X107056000Y-112328000D01*
G75*
G02*
X107206000Y-112478000I0J-150000D01*
G01*
X107206000Y-114128000D01*
G75*
G02*
X107056000Y-114278000I-150000J0D01*
G01*
G37*
G36*
G01*
X108326000Y-114278000D02*
X108026000Y-114278000D01*
G75*
G02*
X107876000Y-114128000I0J150000D01*
G01*
X107876000Y-112478000D01*
G75*
G02*
X108026000Y-112328000I150000J0D01*
G01*
X108326000Y-112328000D01*
G75*
G02*
X108476000Y-112478000I0J-150000D01*
G01*
X108476000Y-114128000D01*
G75*
G02*
X108326000Y-114278000I-150000J0D01*
G01*
G37*
G36*
G01*
X108326000Y-109328000D02*
X108026000Y-109328000D01*
G75*
G02*
X107876000Y-109178000I0J150000D01*
G01*
X107876000Y-107528000D01*
G75*
G02*
X108026000Y-107378000I150000J0D01*
G01*
X108326000Y-107378000D01*
G75*
G02*
X108476000Y-107528000I0J-150000D01*
G01*
X108476000Y-109178000D01*
G75*
G02*
X108326000Y-109328000I-150000J0D01*
G01*
G37*
G36*
G01*
X107056000Y-109328000D02*
X106756000Y-109328000D01*
G75*
G02*
X106606000Y-109178000I0J150000D01*
G01*
X106606000Y-107528000D01*
G75*
G02*
X106756000Y-107378000I150000J0D01*
G01*
X107056000Y-107378000D01*
G75*
G02*
X107206000Y-107528000I0J-150000D01*
G01*
X107206000Y-109178000D01*
G75*
G02*
X107056000Y-109328000I-150000J0D01*
G01*
G37*
G36*
G01*
X105786000Y-109328000D02*
X105486000Y-109328000D01*
G75*
G02*
X105336000Y-109178000I0J150000D01*
G01*
X105336000Y-107528000D01*
G75*
G02*
X105486000Y-107378000I150000J0D01*
G01*
X105786000Y-107378000D01*
G75*
G02*
X105936000Y-107528000I0J-150000D01*
G01*
X105936000Y-109178000D01*
G75*
G02*
X105786000Y-109328000I-150000J0D01*
G01*
G37*
G36*
G01*
X104516000Y-109328000D02*
X104216000Y-109328000D01*
G75*
G02*
X104066000Y-109178000I0J150000D01*
G01*
X104066000Y-107528000D01*
G75*
G02*
X104216000Y-107378000I150000J0D01*
G01*
X104516000Y-107378000D01*
G75*
G02*
X104666000Y-107528000I0J-150000D01*
G01*
X104666000Y-109178000D01*
G75*
G02*
X104516000Y-109328000I-150000J0D01*
G01*
G37*
%TD*%
M02*
