M48
; DRILL file {KiCad 5.1.10} date Mon Jun 14 21:55:49 2021
; FORMAT={-:-/ absolute / metric / decimal}
; #@! TF.CreationDate,2021-06-14T21:55:49+02:00
; #@! TF.GenerationSoftware,Kicad,Pcbnew,5.1.10
FMAT,2
METRIC
T1C0.400
T2C0.650
T3C1.200
T4C1.400
T5C3.200
%
G90
G05
T1
X77.216Y-95.631
X77.216Y-100.711
X77.216Y-105.791
X77.216Y-110.871
X77.216Y-115.951
X77.216Y-121.031
X77.216Y-126.111
X77.216Y-131.191
X77.343Y-80.391
X77.343Y-85.471
X77.343Y-90.551
X77.4Y-76.5
X77.6Y-65.4
X77.6Y-71.3
X78.994Y-77.343
X81.788Y-101.854
X82.0Y-81.7
X82.0Y-106.7
X82.0Y-109.4
X82.0Y-114.3
X82.042Y-131.318
X82.042Y-133.731
X82.042Y-136.779
X82.3Y-60.8
X83.2Y-68.4
X84.1Y-82.9
X85.3Y-65.8
X85.3Y-71.5
X85.3Y-100.7
X86.995Y-90.551
X87.122Y-78.994
X87.122Y-98.679
X87.122Y-107.696
X87.249Y-115.951
X87.249Y-132.461
X87.249Y-135.001
X87.376Y-111.887
X87.5Y-60.8
X88.265Y-93.091
X88.265Y-104.267
X88.265Y-109.22
X88.265Y-121.031
X88.265Y-129.54
X88.392Y-83.185
X88.392Y-87.63
X88.392Y-90.424
X88.392Y-102.489
X88.392Y-124.46
X88.7Y-107.0
X91.002Y-93.898
X91.186Y-96.52
X91.2Y-107.0
X91.313Y-114.046
X91.313Y-121.031
X91.313Y-124.46
X91.313Y-128.016
X91.9Y-75.1
X93.3Y-60.8
X95.7Y-79.4
X96.2Y-85.7
X96.2Y-101.6
X96.3Y-74.9
X96.5Y-100.5
X96.6Y-91.0
X97.0Y-97.7
X97.0Y-105.0
X97.0Y-112.0
X97.0Y-119.0
X97.0Y-126.0
X97.1Y-83.4
X97.1Y-88.5
X97.1Y-102.6
X97.1Y-109.5
X97.1Y-123.6
X97.1Y-130.6
X97.1Y-132.9
X97.108Y-116.793
X97.2Y-95.5
X98.5Y-60.8
X98.5Y-66.4
X98.5Y-72.0
X99.822Y-99.568
X99.949Y-127.889
X100.226Y-88.259
X100.5Y-95.5
X100.5Y-102.5
X100.5Y-103.5
X100.5Y-109.5
X100.5Y-110.5
X100.5Y-116.6
X100.5Y-117.6
X100.5Y-123.5
X100.5Y-130.6
X100.5Y-131.6
X100.7Y-93.0
X100.965Y-83.82
X101.6Y-97.282
X101.854Y-125.857
X102.0Y-91.1
X102.9Y-130.7
X103.505Y-119.126
X103.6Y-81.8
X103.6Y-116.9
X104.2Y-82.6
X104.2Y-110.2
X104.521Y-96.012
X104.648Y-97.282
X104.7Y-129.1
X105.0Y-82.2
X105.1Y-84.6
X106.1Y-133.9
X106.7Y-86.1
X107.9Y-132.3
X107.9Y-136.1
X108.2Y-111.6
X108.4Y-87.3
X108.839Y-119.126
X109.0Y-116.9
X109.3Y-81.7
X109.982Y-133.858
X110.363Y-99.695
X110.8Y-114.75
X111.0Y-82.1
X111.3Y-86.7
X111.563Y-89.338
X111.8Y-96.6
X111.9Y-111.6
X111.9Y-124.6
X111.9Y-125.6
X111.9Y-132.6
X112.0Y-97.6
X112.0Y-104.5
X112.0Y-118.6
X112.1Y-90.2
X112.2Y-127.6
X112.5Y-136.5
X112.648Y-107.709
X112.686Y-114.69
X112.8Y-100.5
X113.9Y-84.8
X113.919Y-92.583
X114.6Y-136.4
X114.808Y-99.441
X115.1Y-90.6
X115.2Y-97.5
X115.3Y-83.6
X115.3Y-118.6
X115.3Y-132.6
X115.4Y-104.5
X115.4Y-111.6
X115.4Y-125.5
X115.6Y-88.3
X115.6Y-127.2
X115.8Y-102.2
X115.8Y-109.3
X115.8Y-116.5
X115.8Y-123.4
X115.8Y-130.4
X116.459Y-113.157
X116.7Y-99.527
X116.8Y-94.0
X118.8Y-66.4
X118.8Y-70.6
X118.8Y-75.4
X118.872Y-78.74
X121.158Y-128.016
X121.285Y-89.535
X121.285Y-103.505
X121.285Y-110.617
X121.285Y-117.602
X121.285Y-121.031
X121.5Y-106.7
X121.5Y-113.4
X121.7Y-85.2
X121.793Y-131.572
X122.1Y-136.9
X122.9Y-66.4
X124.333Y-127.381
X124.46Y-93.98
X124.46Y-95.25
X124.46Y-110.871
X124.46Y-113.157
X124.5Y-83.2
X124.587Y-101.727
X124.587Y-103.505
X124.587Y-108.204
X124.587Y-115.697
X124.587Y-117.602
X124.587Y-121.031
X124.714Y-98.171
X124.968Y-124.587
X124.968Y-134.874
X125.2Y-132.5
X125.349Y-85.598
X125.349Y-91.313
X125.5Y-129.9
X125.603Y-80.391
X125.984Y-131.318
X127.0Y-66.4
X127.127Y-77.216
X128.3Y-93.1
X130.4Y-99.2
X130.4Y-101.6
X130.429Y-135.763
X130.556Y-82.931
X131.1Y-66.4
X135.2Y-66.4
X135.2Y-70.6
X135.2Y-75.4
X135.255Y-80.391
X135.255Y-85.471
X135.255Y-90.551
X135.255Y-95.631
X135.255Y-110.871
X135.255Y-115.951
X135.255Y-121.031
X135.255Y-126.111
X135.255Y-131.191
X135.382Y-100.711
X135.382Y-105.791
T2
X97.1Y-80.0
X97.1Y-81.27
T3
X93.1Y-80.8
X93.1Y-84.3
X93.1Y-87.8
X93.1Y-91.3
X93.1Y-94.8
X93.1Y-98.3
X93.1Y-101.8
X93.1Y-105.3
X93.1Y-108.8
X93.1Y-112.3
X93.1Y-115.8
X93.1Y-119.3
X93.1Y-122.8
X93.1Y-126.3
X93.1Y-129.8
X93.1Y-133.3
X119.3Y-80.8
X119.3Y-84.3
X119.3Y-87.8
X119.3Y-91.3
X119.3Y-94.8
X119.3Y-98.3
X119.3Y-101.8
X119.3Y-105.3
X119.3Y-108.8
X119.3Y-112.3
X119.3Y-115.8
X119.3Y-119.3
X119.3Y-122.8
X119.3Y-126.3
X119.3Y-129.8
X119.3Y-133.3
T4
X90.779Y-69.963
X95.779Y-69.963
T5
X82.068Y-74.009
X85.243Y-140.047
X127.153Y-140.047
X130.328Y-74.007
T0
M30
