%TF.GenerationSoftware,KiCad,Pcbnew,5.1.10*%
%TF.CreationDate,2021-06-14T02:10:03+02:00*%
%TF.ProjectId,output-cape-v1,6f757470-7574-42d6-9361-70652d76312e,1*%
%TF.SameCoordinates,Original*%
%TF.FileFunction,Paste,Bot*%
%TF.FilePolarity,Positive*%
%FSLAX46Y46*%
G04 Gerber Fmt 4.6, Leading zero omitted, Abs format (unit mm)*
G04 Created by KiCad (PCBNEW 5.1.10) date 2021-06-14 02:10:03*
%MOMM*%
%LPD*%
G01*
G04 APERTURE LIST*
%ADD10R,3.150000X1.000000*%
G04 APERTURE END LIST*
D10*
%TO.C,U104*%
X127925000Y-134987000D03*
X132975000Y-134987000D03*
X127925000Y-132447000D03*
X132975000Y-132447000D03*
X127925000Y-129907000D03*
X132975000Y-129907000D03*
X127925000Y-127367000D03*
X132975000Y-127367000D03*
X127925000Y-124827000D03*
X132975000Y-124827000D03*
X127925000Y-122287000D03*
X132975000Y-122287000D03*
X127925000Y-119747000D03*
X132975000Y-119747000D03*
X127925000Y-117207000D03*
X132975000Y-117207000D03*
X127925000Y-114667000D03*
X132975000Y-114667000D03*
X127925000Y-112127000D03*
X132975000Y-112127000D03*
X127925000Y-109587000D03*
X132975000Y-109587000D03*
X127925000Y-107047000D03*
X132975000Y-107047000D03*
X127925000Y-104507000D03*
X132975000Y-104507000D03*
X127925000Y-101967000D03*
X132975000Y-101967000D03*
X127925000Y-99427000D03*
X132975000Y-99427000D03*
X127925000Y-96887000D03*
X132975000Y-96887000D03*
X127925000Y-94347000D03*
X132975000Y-94347000D03*
X127925000Y-91807000D03*
X132975000Y-91807000D03*
X127925000Y-89267000D03*
X132975000Y-89267000D03*
X127925000Y-86727000D03*
X132975000Y-86727000D03*
X127925000Y-84187000D03*
X132975000Y-84187000D03*
X127925000Y-81647000D03*
X132975000Y-81647000D03*
X127925000Y-79107000D03*
X132975000Y-79107000D03*
%TD*%
%TO.C,U103*%
X79538000Y-134987000D03*
X84588000Y-134987000D03*
X79538000Y-132447000D03*
X84588000Y-132447000D03*
X79538000Y-129907000D03*
X84588000Y-129907000D03*
X79538000Y-127367000D03*
X84588000Y-127367000D03*
X79538000Y-124827000D03*
X84588000Y-124827000D03*
X79538000Y-122287000D03*
X84588000Y-122287000D03*
X79538000Y-119747000D03*
X84588000Y-119747000D03*
X79538000Y-117207000D03*
X84588000Y-117207000D03*
X79538000Y-114667000D03*
X84588000Y-114667000D03*
X79538000Y-112127000D03*
X84588000Y-112127000D03*
X79538000Y-109587000D03*
X84588000Y-109587000D03*
X79538000Y-107047000D03*
X84588000Y-107047000D03*
X79538000Y-104507000D03*
X84588000Y-104507000D03*
X79538000Y-101967000D03*
X84588000Y-101967000D03*
X79538000Y-99427000D03*
X84588000Y-99427000D03*
X79538000Y-96887000D03*
X84588000Y-96887000D03*
X79538000Y-94347000D03*
X84588000Y-94347000D03*
X79538000Y-91807000D03*
X84588000Y-91807000D03*
X79538000Y-89267000D03*
X84588000Y-89267000D03*
X79538000Y-86727000D03*
X84588000Y-86727000D03*
X79538000Y-84187000D03*
X84588000Y-84187000D03*
X79538000Y-81647000D03*
X84588000Y-81647000D03*
X79538000Y-79107000D03*
X84588000Y-79107000D03*
%TD*%
M02*
