M48
; DRILL file {KiCad 5.1.10} date Mon Jun 14 02:10:06 2021
; FORMAT={-:-/ absolute / metric / decimal}
; #@! TF.CreationDate,2021-06-14T02:10:06+02:00
; #@! TF.GenerationSoftware,Kicad,Pcbnew,5.1.10
FMAT,2
METRIC
T1C0.400
T2C0.650
T3C1.200
T4C1.400
T5C3.200
%
G90
G05
T1
X82.0Y-81.7
X88.7Y-107.0
X91.002Y-93.898
X91.2Y-107.0
X96.2Y-85.7
X96.2Y-101.6
X96.5Y-100.5
X96.6Y-91.0
X97.0Y-97.7
X97.0Y-105.0
X97.0Y-112.0
X97.0Y-119.0
X97.0Y-126.0
X97.1Y-83.4
X97.1Y-88.5
X97.1Y-102.6
X97.1Y-109.5
X97.1Y-123.6
X97.1Y-130.6
X97.1Y-132.9
X97.108Y-116.793
X97.2Y-95.5
X100.226Y-88.259
X100.5Y-95.5
X100.5Y-102.5
X100.5Y-103.5
X100.5Y-109.5
X100.5Y-110.5
X100.5Y-116.6
X100.5Y-117.6
X100.5Y-123.5
X100.5Y-130.6
X100.5Y-131.6
X100.7Y-93.0
X101.142Y-84.109
X102.0Y-91.1
X104.2Y-82.6
X104.2Y-110.2
X105.0Y-82.2
X105.1Y-84.6
X106.3Y-120.8
X108.2Y-111.6
X108.4Y-87.3
X111.0Y-82.1
X111.3Y-86.7
X111.563Y-89.338
X111.8Y-96.6
X111.9Y-111.6
X111.9Y-124.6
X111.9Y-125.6
X111.9Y-132.6
X112.0Y-97.6
X112.0Y-104.5
X112.0Y-118.6
X112.1Y-90.2
X112.648Y-107.709
X112.686Y-114.69
X112.8Y-100.5
X113.9Y-84.8
X115.1Y-90.6
X115.2Y-97.5
X115.3Y-83.6
X115.3Y-118.6
X115.3Y-132.6
X115.4Y-104.5
X115.4Y-111.6
X115.4Y-125.5
X115.6Y-88.3
X115.8Y-102.2
X115.8Y-109.3
X115.8Y-116.5
X115.8Y-123.4
X115.8Y-130.4
X116.7Y-99.527
X116.8Y-94.0
X121.7Y-85.2
X125.2Y-132.5
X125.5Y-129.9
T2
X97.1Y-80.0
X97.1Y-81.27
T3
X93.1Y-80.8
X93.1Y-84.3
X93.1Y-87.8
X93.1Y-91.3
X93.1Y-94.8
X93.1Y-98.3
X93.1Y-101.8
X93.1Y-105.3
X93.1Y-108.8
X93.1Y-112.3
X93.1Y-115.8
X93.1Y-119.3
X93.1Y-122.8
X93.1Y-126.3
X93.1Y-129.8
X93.1Y-133.3
X119.3Y-80.8
X119.3Y-84.3
X119.3Y-87.8
X119.3Y-91.3
X119.3Y-94.8
X119.3Y-98.3
X119.3Y-101.8
X119.3Y-105.3
X119.3Y-108.8
X119.3Y-112.3
X119.3Y-115.8
X119.3Y-119.3
X119.3Y-122.8
X119.3Y-126.3
X119.3Y-129.8
X119.3Y-133.3
T4
X90.779Y-69.963
X95.779Y-69.963
T5
X82.068Y-74.009
X85.243Y-140.047
X127.153Y-140.047
X130.328Y-74.007
T0
M30
