%TF.GenerationSoftware,KiCad,Pcbnew,5.1.10*%
%TF.CreationDate,2021-06-14T21:55:46+02:00*%
%TF.ProjectId,output-cape-v1,6f757470-7574-42d6-9361-70652d76312e,1*%
%TF.SameCoordinates,Original*%
%TF.FileFunction,Soldermask,Bot*%
%TF.FilePolarity,Negative*%
%FSLAX46Y46*%
G04 Gerber Fmt 4.6, Leading zero omitted, Abs format (unit mm)*
G04 Created by KiCad (PCBNEW 5.1.10) date 2021-06-14 21:55:46*
%MOMM*%
%LPD*%
G01*
G04 APERTURE LIST*
%ADD10O,1.000000X1.000000*%
%ADD11R,1.000000X1.000000*%
%ADD12R,3.150000X1.000000*%
%ADD13O,3.600000X1.800000*%
%ADD14O,2.000000X3.600000*%
%ADD15C,5.500000*%
G04 APERTURE END LIST*
D10*
%TO.C,JP101*%
X97100000Y-81270000D03*
D11*
X97100000Y-80000000D03*
%TD*%
D12*
%TO.C,U104*%
X127925000Y-134987000D03*
X132975000Y-134987000D03*
X127925000Y-132447000D03*
X132975000Y-132447000D03*
X127925000Y-129907000D03*
X132975000Y-129907000D03*
X127925000Y-127367000D03*
X132975000Y-127367000D03*
X127925000Y-124827000D03*
X132975000Y-124827000D03*
X127925000Y-122287000D03*
X132975000Y-122287000D03*
X127925000Y-119747000D03*
X132975000Y-119747000D03*
X127925000Y-117207000D03*
X132975000Y-117207000D03*
X127925000Y-114667000D03*
X132975000Y-114667000D03*
X127925000Y-112127000D03*
X132975000Y-112127000D03*
X127925000Y-109587000D03*
X132975000Y-109587000D03*
X127925000Y-107047000D03*
X132975000Y-107047000D03*
X127925000Y-104507000D03*
X132975000Y-104507000D03*
X127925000Y-101967000D03*
X132975000Y-101967000D03*
X127925000Y-99427000D03*
X132975000Y-99427000D03*
X127925000Y-96887000D03*
X132975000Y-96887000D03*
X127925000Y-94347000D03*
X132975000Y-94347000D03*
X127925000Y-91807000D03*
X132975000Y-91807000D03*
X127925000Y-89267000D03*
X132975000Y-89267000D03*
X127925000Y-86727000D03*
X132975000Y-86727000D03*
X127925000Y-84187000D03*
X132975000Y-84187000D03*
X127925000Y-81647000D03*
X132975000Y-81647000D03*
X127925000Y-79107000D03*
X132975000Y-79107000D03*
%TD*%
D13*
%TO.C,J102*%
X119300000Y-80800000D03*
X119300000Y-84300000D03*
X119300000Y-87800000D03*
X119300000Y-91300000D03*
X119300000Y-94800000D03*
X119300000Y-98300000D03*
X119300000Y-101800000D03*
X119300000Y-105300000D03*
X119300000Y-108800000D03*
X119300000Y-112300000D03*
X119300000Y-115800000D03*
X119300000Y-119300000D03*
X119300000Y-122800000D03*
X119300000Y-126300000D03*
X119300000Y-129800000D03*
G36*
G01*
X120850000Y-134200000D02*
X117750000Y-134200000D01*
G75*
G02*
X117500000Y-133950000I0J250000D01*
G01*
X117500000Y-132650000D01*
G75*
G02*
X117750000Y-132400000I250000J0D01*
G01*
X120850000Y-132400000D01*
G75*
G02*
X121100000Y-132650000I0J-250000D01*
G01*
X121100000Y-133950000D01*
G75*
G02*
X120850000Y-134200000I-250000J0D01*
G01*
G37*
%TD*%
%TO.C,J101*%
X93100000Y-133300000D03*
X93100000Y-129800000D03*
X93100000Y-126300000D03*
X93100000Y-122800000D03*
X93100000Y-119300000D03*
X93100000Y-115800000D03*
X93100000Y-112300000D03*
X93100000Y-108800000D03*
X93100000Y-105300000D03*
X93100000Y-101800000D03*
X93100000Y-98300000D03*
X93100000Y-94800000D03*
X93100000Y-91300000D03*
X93100000Y-87800000D03*
X93100000Y-84300000D03*
G36*
G01*
X91550000Y-79900000D02*
X94650000Y-79900000D01*
G75*
G02*
X94900000Y-80150000I0J-250000D01*
G01*
X94900000Y-81450000D01*
G75*
G02*
X94650000Y-81700000I-250000J0D01*
G01*
X91550000Y-81700000D01*
G75*
G02*
X91300000Y-81450000I0J250000D01*
G01*
X91300000Y-80150000D01*
G75*
G02*
X91550000Y-79900000I250000J0D01*
G01*
G37*
%TD*%
D12*
%TO.C,U103*%
X79538000Y-134987000D03*
X84588000Y-134987000D03*
X79538000Y-132447000D03*
X84588000Y-132447000D03*
X79538000Y-129907000D03*
X84588000Y-129907000D03*
X79538000Y-127367000D03*
X84588000Y-127367000D03*
X79538000Y-124827000D03*
X84588000Y-124827000D03*
X79538000Y-122287000D03*
X84588000Y-122287000D03*
X79538000Y-119747000D03*
X84588000Y-119747000D03*
X79538000Y-117207000D03*
X84588000Y-117207000D03*
X79538000Y-114667000D03*
X84588000Y-114667000D03*
X79538000Y-112127000D03*
X84588000Y-112127000D03*
X79538000Y-109587000D03*
X84588000Y-109587000D03*
X79538000Y-107047000D03*
X84588000Y-107047000D03*
X79538000Y-104507000D03*
X84588000Y-104507000D03*
X79538000Y-101967000D03*
X84588000Y-101967000D03*
X79538000Y-99427000D03*
X84588000Y-99427000D03*
X79538000Y-96887000D03*
X84588000Y-96887000D03*
X79538000Y-94347000D03*
X84588000Y-94347000D03*
X79538000Y-91807000D03*
X84588000Y-91807000D03*
X79538000Y-89267000D03*
X84588000Y-89267000D03*
X79538000Y-86727000D03*
X84588000Y-86727000D03*
X79538000Y-84187000D03*
X84588000Y-84187000D03*
X79538000Y-81647000D03*
X84588000Y-81647000D03*
X79538000Y-79107000D03*
X84588000Y-79107000D03*
%TD*%
D14*
%TO.C,J103*%
X90779000Y-69963000D03*
G36*
G01*
X96779000Y-68413000D02*
X96779000Y-71513000D01*
G75*
G02*
X96529000Y-71763000I-250000J0D01*
G01*
X95029000Y-71763000D01*
G75*
G02*
X94779000Y-71513000I0J250000D01*
G01*
X94779000Y-68413000D01*
G75*
G02*
X95029000Y-68163000I250000J0D01*
G01*
X96529000Y-68163000D01*
G75*
G02*
X96779000Y-68413000I0J-250000D01*
G01*
G37*
%TD*%
D15*
%TO.C,H104*%
X127153080Y-140046680D03*
%TD*%
%TO.C,H103*%
X85243080Y-140046680D03*
%TD*%
%TO.C,H102*%
X130328080Y-74006680D03*
%TD*%
%TO.C,H101*%
X82068080Y-74009220D03*
%TD*%
M02*
