%TF.GenerationSoftware,KiCad,Pcbnew,5.1.10*%
%TF.CreationDate,2021-06-14T21:55:46+02:00*%
%TF.ProjectId,output-cape-v1,6f757470-7574-42d6-9361-70652d76312e,1*%
%TF.SameCoordinates,Original*%
%TF.FileFunction,Legend,Bot*%
%TF.FilePolarity,Positive*%
%FSLAX46Y46*%
G04 Gerber Fmt 4.6, Leading zero omitted, Abs format (unit mm)*
G04 Created by KiCad (PCBNEW 5.1.10) date 2021-06-14 21:55:46*
%MOMM*%
%LPD*%
G01*
G04 APERTURE LIST*
%ADD10C,0.120000*%
%ADD11C,0.150000*%
%ADD12C,0.700000*%
%ADD13C,0.080000*%
%ADD14C,0.100000*%
%ADD15O,1.000000X1.000000*%
%ADD16R,1.000000X1.000000*%
%ADD17R,3.150000X1.000000*%
%ADD18O,3.600000X1.800000*%
%ADD19O,2.000000X3.600000*%
%ADD20C,5.500000*%
G04 APERTURE END LIST*
D10*
X80518000Y-136017000D02*
X81534000Y-136017000D01*
X81534000Y-136017000D02*
X81534000Y-133985000D01*
X81534000Y-133985000D02*
X80518000Y-133985000D01*
X83566000Y-133985000D02*
X82550000Y-133985000D01*
X82550000Y-133985000D02*
X82550000Y-136017000D01*
X82550000Y-136017000D02*
X83566000Y-136017000D01*
X80518000Y-133477000D02*
X81534000Y-133477000D01*
X81534000Y-133477000D02*
X81534000Y-131445000D01*
X81534000Y-131445000D02*
X80518000Y-131445000D01*
X83566000Y-131445000D02*
X82550000Y-131445000D01*
X82550000Y-131445000D02*
X82550000Y-133477000D01*
X82550000Y-133477000D02*
X83566000Y-133477000D01*
X83566000Y-128905000D02*
X82550000Y-128905000D01*
X82550000Y-128905000D02*
X82550000Y-130937000D01*
X82550000Y-130937000D02*
X83566000Y-130937000D01*
X80518000Y-113157000D02*
X81534000Y-113157000D01*
X81534000Y-113157000D02*
X81534000Y-111125000D01*
X81534000Y-111125000D02*
X80518000Y-111125000D01*
X80518000Y-110617000D02*
X81534000Y-110617000D01*
X81534000Y-110617000D02*
X81534000Y-108585000D01*
X81534000Y-108585000D02*
X80518000Y-108585000D01*
X80518000Y-108077000D02*
X81534000Y-108077000D01*
X81534000Y-108077000D02*
X81534000Y-106045000D01*
X81534000Y-106045000D02*
X80518000Y-106045000D01*
X80518000Y-102997000D02*
X81534000Y-102997000D01*
X81534000Y-102997000D02*
X81534000Y-100965000D01*
X81534000Y-100965000D02*
X80518000Y-100965000D01*
X83566000Y-100965000D02*
X82550000Y-100965000D01*
X82550000Y-100965000D02*
X82550000Y-102997000D01*
X82550000Y-102997000D02*
X83566000Y-102997000D01*
X83566000Y-90805000D02*
X82550000Y-90805000D01*
X82550000Y-90805000D02*
X82550000Y-92837000D01*
X82550000Y-92837000D02*
X83566000Y-92837000D01*
X80518000Y-85217000D02*
X81534000Y-85217000D01*
X81534000Y-85217000D02*
X81534000Y-83185000D01*
X81534000Y-83185000D02*
X80518000Y-83185000D01*
X83566000Y-83185000D02*
X82550000Y-83185000D01*
X82550000Y-83185000D02*
X82550000Y-85217000D01*
X82550000Y-85217000D02*
X83566000Y-85217000D01*
X80518000Y-82550000D02*
X81534000Y-82550000D01*
X81534000Y-82550000D02*
X81534000Y-80518000D01*
X81534000Y-80518000D02*
X80518000Y-80518000D01*
X83566000Y-80518000D02*
X82550000Y-80518000D01*
X82550000Y-80518000D02*
X82550000Y-82550000D01*
X82550000Y-82550000D02*
X83566000Y-82550000D01*
X80518000Y-80137000D02*
X81534000Y-80137000D01*
X81534000Y-80137000D02*
X81534000Y-78105000D01*
X81534000Y-78105000D02*
X80518000Y-78105000D01*
X83566000Y-78105000D02*
X82550000Y-78105000D01*
X82550000Y-78105000D02*
X82550000Y-80137000D01*
X82550000Y-80137000D02*
X83566000Y-80137000D01*
X128905000Y-133477000D02*
X129921000Y-133477000D01*
X129921000Y-133477000D02*
X129921000Y-131445000D01*
X129921000Y-131445000D02*
X128905000Y-131445000D01*
X128905000Y-130937000D02*
X129921000Y-130937000D01*
X129921000Y-130937000D02*
X129921000Y-128905000D01*
X129921000Y-128905000D02*
X128905000Y-128905000D01*
X128905000Y-128397000D02*
X129921000Y-128397000D01*
X129921000Y-128397000D02*
X129921000Y-126365000D01*
X129921000Y-126365000D02*
X128905000Y-126365000D01*
X128905000Y-115697000D02*
X129921000Y-115697000D01*
X129921000Y-115697000D02*
X129921000Y-113665000D01*
X129921000Y-113665000D02*
X128905000Y-113665000D01*
X128905000Y-110617000D02*
X129921000Y-110617000D01*
X129921000Y-110617000D02*
X129921000Y-108585000D01*
X129921000Y-108585000D02*
X128905000Y-108585000D01*
X131953000Y-100965000D02*
X130937000Y-100965000D01*
X130937000Y-100965000D02*
X130937000Y-102997000D01*
X130937000Y-102997000D02*
X131953000Y-102997000D01*
X128905000Y-100457000D02*
X129921000Y-100457000D01*
X129921000Y-100457000D02*
X129921000Y-98425000D01*
X129921000Y-98425000D02*
X128905000Y-98425000D01*
X128905000Y-97917000D02*
X129921000Y-97917000D01*
X129921000Y-97917000D02*
X129921000Y-95885000D01*
X129921000Y-95885000D02*
X128905000Y-95885000D01*
X128905000Y-92837000D02*
X129921000Y-92837000D01*
X129921000Y-92837000D02*
X129921000Y-90805000D01*
X129921000Y-90805000D02*
X128905000Y-90805000D01*
X128905000Y-85217000D02*
X129921000Y-85217000D01*
X129921000Y-85217000D02*
X129921000Y-83185000D01*
X129921000Y-83185000D02*
X128905000Y-83185000D01*
X128905000Y-82677000D02*
X129921000Y-82677000D01*
X129921000Y-82677000D02*
X129921000Y-80645000D01*
X129921000Y-80645000D02*
X128905000Y-80645000D01*
X128905000Y-80137000D02*
X129921000Y-80137000D01*
X129921000Y-80137000D02*
X129921000Y-78105000D01*
X129921000Y-78105000D02*
X128905000Y-78105000D01*
X130937000Y-80137000D02*
X131953000Y-80137000D01*
X130937000Y-78105000D02*
X130937000Y-80137000D01*
X131953000Y-78105000D02*
X130937000Y-78105000D01*
D11*
X110123809Y-95866666D02*
X109647619Y-95866666D01*
X110219047Y-96152380D02*
X109885714Y-95152380D01*
X109552380Y-96152380D01*
X109266666Y-95247619D02*
X109219047Y-95200000D01*
X109123809Y-95152380D01*
X108885714Y-95152380D01*
X108790476Y-95200000D01*
X108742857Y-95247619D01*
X108695238Y-95342857D01*
X108695238Y-95438095D01*
X108742857Y-95580952D01*
X109314285Y-96152380D01*
X108695238Y-96152380D01*
X107552380Y-95866666D02*
X107076190Y-95866666D01*
X107647619Y-96152380D02*
X107314285Y-95152380D01*
X106980952Y-96152380D01*
X106123809Y-96152380D02*
X106695238Y-96152380D01*
X106409523Y-96152380D02*
X106409523Y-95152380D01*
X106504761Y-95295238D01*
X106600000Y-95390476D01*
X106695238Y-95438095D01*
X104980952Y-95866666D02*
X104504761Y-95866666D01*
X105076190Y-96152380D02*
X104742857Y-95152380D01*
X104409523Y-96152380D01*
X103647619Y-96152380D02*
X103647619Y-95152380D01*
X103647619Y-96104761D02*
X103742857Y-96152380D01*
X103933333Y-96152380D01*
X104028571Y-96104761D01*
X104076190Y-96057142D01*
X104123809Y-95961904D01*
X104123809Y-95676190D01*
X104076190Y-95580952D01*
X104028571Y-95533333D01*
X103933333Y-95485714D01*
X103742857Y-95485714D01*
X103647619Y-95533333D01*
X102742857Y-96152380D02*
X102742857Y-95152380D01*
X102742857Y-96104761D02*
X102838095Y-96152380D01*
X103028571Y-96152380D01*
X103123809Y-96104761D01*
X103171428Y-96057142D01*
X103219047Y-95961904D01*
X103219047Y-95676190D01*
X103171428Y-95580952D01*
X103123809Y-95533333D01*
X103028571Y-95485714D01*
X102838095Y-95485714D01*
X102742857Y-95533333D01*
X102266666Y-96152380D02*
X102266666Y-95485714D01*
X102266666Y-95676190D02*
X102219047Y-95580952D01*
X102171428Y-95533333D01*
X102076190Y-95485714D01*
X101980952Y-95485714D01*
X109219047Y-96802380D02*
X109123809Y-96802380D01*
X109028571Y-96850000D01*
X108980952Y-96897619D01*
X108933333Y-96992857D01*
X108885714Y-97183333D01*
X108885714Y-97421428D01*
X108933333Y-97611904D01*
X108980952Y-97707142D01*
X109028571Y-97754761D01*
X109123809Y-97802380D01*
X109219047Y-97802380D01*
X109314285Y-97754761D01*
X109361904Y-97707142D01*
X109409523Y-97611904D01*
X109457142Y-97421428D01*
X109457142Y-97183333D01*
X109409523Y-96992857D01*
X109361904Y-96897619D01*
X109314285Y-96850000D01*
X109219047Y-96802380D01*
X106742857Y-96802380D02*
X106647619Y-96802380D01*
X106552380Y-96850000D01*
X106504761Y-96897619D01*
X106457142Y-96992857D01*
X106409523Y-97183333D01*
X106409523Y-97421428D01*
X106457142Y-97611904D01*
X106504761Y-97707142D01*
X106552380Y-97754761D01*
X106647619Y-97802380D01*
X106742857Y-97802380D01*
X106838095Y-97754761D01*
X106885714Y-97707142D01*
X106933333Y-97611904D01*
X106980952Y-97421428D01*
X106980952Y-97183333D01*
X106933333Y-96992857D01*
X106885714Y-96897619D01*
X106838095Y-96850000D01*
X106742857Y-96802380D01*
X105028571Y-96802380D02*
X104933333Y-96802380D01*
X104838095Y-96850000D01*
X104790476Y-96897619D01*
X104742857Y-96992857D01*
X104695238Y-97183333D01*
X104695238Y-97421428D01*
X104742857Y-97611904D01*
X104790476Y-97707142D01*
X104838095Y-97754761D01*
X104933333Y-97802380D01*
X105028571Y-97802380D01*
X105123809Y-97754761D01*
X105171428Y-97707142D01*
X105219047Y-97611904D01*
X105266666Y-97421428D01*
X105266666Y-97183333D01*
X105219047Y-96992857D01*
X105171428Y-96897619D01*
X105123809Y-96850000D01*
X105028571Y-96802380D01*
X104361904Y-97802380D02*
X103838095Y-97135714D01*
X104361904Y-97135714D02*
X103838095Y-97802380D01*
X102980952Y-96802380D02*
X103457142Y-96802380D01*
X103504761Y-97278571D01*
X103457142Y-97230952D01*
X103361904Y-97183333D01*
X103123809Y-97183333D01*
X103028571Y-97230952D01*
X102980952Y-97278571D01*
X102933333Y-97373809D01*
X102933333Y-97611904D01*
X102980952Y-97707142D01*
X103028571Y-97754761D01*
X103123809Y-97802380D01*
X103361904Y-97802380D01*
X103457142Y-97754761D01*
X103504761Y-97707142D01*
X101980952Y-97802380D02*
X102552380Y-97802380D01*
X102266666Y-97802380D02*
X102266666Y-96802380D01*
X102361904Y-96945238D01*
X102457142Y-97040476D01*
X102552380Y-97088095D01*
X109219047Y-98452380D02*
X109123809Y-98452380D01*
X109028571Y-98500000D01*
X108980952Y-98547619D01*
X108933333Y-98642857D01*
X108885714Y-98833333D01*
X108885714Y-99071428D01*
X108933333Y-99261904D01*
X108980952Y-99357142D01*
X109028571Y-99404761D01*
X109123809Y-99452380D01*
X109219047Y-99452380D01*
X109314285Y-99404761D01*
X109361904Y-99357142D01*
X109409523Y-99261904D01*
X109457142Y-99071428D01*
X109457142Y-98833333D01*
X109409523Y-98642857D01*
X109361904Y-98547619D01*
X109314285Y-98500000D01*
X109219047Y-98452380D01*
X106409523Y-99452380D02*
X106980952Y-99452380D01*
X106695238Y-99452380D02*
X106695238Y-98452380D01*
X106790476Y-98595238D01*
X106885714Y-98690476D01*
X106980952Y-98738095D01*
X105028571Y-98452380D02*
X104933333Y-98452380D01*
X104838095Y-98500000D01*
X104790476Y-98547619D01*
X104742857Y-98642857D01*
X104695238Y-98833333D01*
X104695238Y-99071428D01*
X104742857Y-99261904D01*
X104790476Y-99357142D01*
X104838095Y-99404761D01*
X104933333Y-99452380D01*
X105028571Y-99452380D01*
X105123809Y-99404761D01*
X105171428Y-99357142D01*
X105219047Y-99261904D01*
X105266666Y-99071428D01*
X105266666Y-98833333D01*
X105219047Y-98642857D01*
X105171428Y-98547619D01*
X105123809Y-98500000D01*
X105028571Y-98452380D01*
X104361904Y-99452380D02*
X103838095Y-98785714D01*
X104361904Y-98785714D02*
X103838095Y-99452380D01*
X102980952Y-98452380D02*
X103457142Y-98452380D01*
X103504761Y-98928571D01*
X103457142Y-98880952D01*
X103361904Y-98833333D01*
X103123809Y-98833333D01*
X103028571Y-98880952D01*
X102980952Y-98928571D01*
X102933333Y-99023809D01*
X102933333Y-99261904D01*
X102980952Y-99357142D01*
X103028571Y-99404761D01*
X103123809Y-99452380D01*
X103361904Y-99452380D01*
X103457142Y-99404761D01*
X103504761Y-99357142D01*
X102600000Y-98452380D02*
X101980952Y-98452380D01*
X102314285Y-98833333D01*
X102171428Y-98833333D01*
X102076190Y-98880952D01*
X102028571Y-98928571D01*
X101980952Y-99023809D01*
X101980952Y-99261904D01*
X102028571Y-99357142D01*
X102076190Y-99404761D01*
X102171428Y-99452380D01*
X102457142Y-99452380D01*
X102552380Y-99404761D01*
X102600000Y-99357142D01*
X108885714Y-101102380D02*
X109457142Y-101102380D01*
X109171428Y-101102380D02*
X109171428Y-100102380D01*
X109266666Y-100245238D01*
X109361904Y-100340476D01*
X109457142Y-100388095D01*
X106742857Y-100102380D02*
X106647619Y-100102380D01*
X106552380Y-100150000D01*
X106504761Y-100197619D01*
X106457142Y-100292857D01*
X106409523Y-100483333D01*
X106409523Y-100721428D01*
X106457142Y-100911904D01*
X106504761Y-101007142D01*
X106552380Y-101054761D01*
X106647619Y-101102380D01*
X106742857Y-101102380D01*
X106838095Y-101054761D01*
X106885714Y-101007142D01*
X106933333Y-100911904D01*
X106980952Y-100721428D01*
X106980952Y-100483333D01*
X106933333Y-100292857D01*
X106885714Y-100197619D01*
X106838095Y-100150000D01*
X106742857Y-100102380D01*
X105028571Y-100102380D02*
X104933333Y-100102380D01*
X104838095Y-100150000D01*
X104790476Y-100197619D01*
X104742857Y-100292857D01*
X104695238Y-100483333D01*
X104695238Y-100721428D01*
X104742857Y-100911904D01*
X104790476Y-101007142D01*
X104838095Y-101054761D01*
X104933333Y-101102380D01*
X105028571Y-101102380D01*
X105123809Y-101054761D01*
X105171428Y-101007142D01*
X105219047Y-100911904D01*
X105266666Y-100721428D01*
X105266666Y-100483333D01*
X105219047Y-100292857D01*
X105171428Y-100197619D01*
X105123809Y-100150000D01*
X105028571Y-100102380D01*
X104361904Y-101102380D02*
X103838095Y-100435714D01*
X104361904Y-100435714D02*
X103838095Y-101102380D01*
X102980952Y-100102380D02*
X103457142Y-100102380D01*
X103504761Y-100578571D01*
X103457142Y-100530952D01*
X103361904Y-100483333D01*
X103123809Y-100483333D01*
X103028571Y-100530952D01*
X102980952Y-100578571D01*
X102933333Y-100673809D01*
X102933333Y-100911904D01*
X102980952Y-101007142D01*
X103028571Y-101054761D01*
X103123809Y-101102380D01*
X103361904Y-101102380D01*
X103457142Y-101054761D01*
X103504761Y-101007142D01*
X102028571Y-100102380D02*
X102504761Y-100102380D01*
X102552380Y-100578571D01*
X102504761Y-100530952D01*
X102409523Y-100483333D01*
X102171428Y-100483333D01*
X102076190Y-100530952D01*
X102028571Y-100578571D01*
X101980952Y-100673809D01*
X101980952Y-100911904D01*
X102028571Y-101007142D01*
X102076190Y-101054761D01*
X102171428Y-101102380D01*
X102409523Y-101102380D01*
X102504761Y-101054761D01*
X102552380Y-101007142D01*
X108885714Y-102752380D02*
X109457142Y-102752380D01*
X109171428Y-102752380D02*
X109171428Y-101752380D01*
X109266666Y-101895238D01*
X109361904Y-101990476D01*
X109457142Y-102038095D01*
X106409523Y-102752380D02*
X106980952Y-102752380D01*
X106695238Y-102752380D02*
X106695238Y-101752380D01*
X106790476Y-101895238D01*
X106885714Y-101990476D01*
X106980952Y-102038095D01*
X105028571Y-101752380D02*
X104933333Y-101752380D01*
X104838095Y-101800000D01*
X104790476Y-101847619D01*
X104742857Y-101942857D01*
X104695238Y-102133333D01*
X104695238Y-102371428D01*
X104742857Y-102561904D01*
X104790476Y-102657142D01*
X104838095Y-102704761D01*
X104933333Y-102752380D01*
X105028571Y-102752380D01*
X105123809Y-102704761D01*
X105171428Y-102657142D01*
X105219047Y-102561904D01*
X105266666Y-102371428D01*
X105266666Y-102133333D01*
X105219047Y-101942857D01*
X105171428Y-101847619D01*
X105123809Y-101800000D01*
X105028571Y-101752380D01*
X104361904Y-102752380D02*
X103838095Y-102085714D01*
X104361904Y-102085714D02*
X103838095Y-102752380D01*
X102980952Y-101752380D02*
X103457142Y-101752380D01*
X103504761Y-102228571D01*
X103457142Y-102180952D01*
X103361904Y-102133333D01*
X103123809Y-102133333D01*
X103028571Y-102180952D01*
X102980952Y-102228571D01*
X102933333Y-102323809D01*
X102933333Y-102561904D01*
X102980952Y-102657142D01*
X103028571Y-102704761D01*
X103123809Y-102752380D01*
X103361904Y-102752380D01*
X103457142Y-102704761D01*
X103504761Y-102657142D01*
X102600000Y-101752380D02*
X101933333Y-101752380D01*
X102361904Y-102752380D01*
X120466666Y-134885714D02*
X120466666Y-135885714D01*
X120466666Y-134933333D02*
X120371428Y-134885714D01*
X120180952Y-134885714D01*
X120085714Y-134933333D01*
X120038095Y-134980952D01*
X119990476Y-135076190D01*
X119990476Y-135361904D01*
X120038095Y-135457142D01*
X120085714Y-135504761D01*
X120180952Y-135552380D01*
X120371428Y-135552380D01*
X120466666Y-135504761D01*
X119133333Y-135504761D02*
X119228571Y-135552380D01*
X119419047Y-135552380D01*
X119514285Y-135504761D01*
X119561904Y-135457142D01*
X119609523Y-135361904D01*
X119609523Y-135076190D01*
X119561904Y-134980952D01*
X119514285Y-134933333D01*
X119419047Y-134885714D01*
X119228571Y-134885714D01*
X119133333Y-134933333D01*
X118704761Y-135552380D02*
X118704761Y-134552380D01*
X118704761Y-134933333D02*
X118609523Y-134885714D01*
X118419047Y-134885714D01*
X118323809Y-134933333D01*
X118276190Y-134980952D01*
X118228571Y-135076190D01*
X118228571Y-135361904D01*
X118276190Y-135457142D01*
X118323809Y-135504761D01*
X118419047Y-135552380D01*
X118609523Y-135552380D01*
X118704761Y-135504761D01*
X117800000Y-135457142D02*
X117752380Y-135504761D01*
X117800000Y-135552380D01*
X117847619Y-135504761D01*
X117800000Y-135457142D01*
X117800000Y-135552380D01*
X117466666Y-134885714D02*
X117085714Y-134885714D01*
X117323809Y-135552380D02*
X117323809Y-134695238D01*
X117276190Y-134600000D01*
X117180952Y-134552380D01*
X117085714Y-134552380D01*
X116609523Y-135552380D02*
X116704761Y-135504761D01*
X116752380Y-135409523D01*
X116752380Y-134552380D01*
X116085714Y-135552380D02*
X116180952Y-135504761D01*
X116228571Y-135457142D01*
X116276190Y-135361904D01*
X116276190Y-135076190D01*
X116228571Y-134980952D01*
X116180952Y-134933333D01*
X116085714Y-134885714D01*
X115942857Y-134885714D01*
X115847619Y-134933333D01*
X115800000Y-134980952D01*
X115752380Y-135076190D01*
X115752380Y-135361904D01*
X115800000Y-135457142D01*
X115847619Y-135504761D01*
X115942857Y-135552380D01*
X116085714Y-135552380D01*
X115323809Y-135552380D02*
X115323809Y-134885714D01*
X115323809Y-135076190D02*
X115276190Y-134980952D01*
X115228571Y-134933333D01*
X115133333Y-134885714D01*
X115038095Y-134885714D01*
X114704761Y-135552380D02*
X114704761Y-134885714D01*
X114704761Y-134552380D02*
X114752380Y-134600000D01*
X114704761Y-134647619D01*
X114657142Y-134600000D01*
X114704761Y-134552380D01*
X114704761Y-134647619D01*
X113800000Y-135552380D02*
X113800000Y-135028571D01*
X113847619Y-134933333D01*
X113942857Y-134885714D01*
X114133333Y-134885714D01*
X114228571Y-134933333D01*
X113800000Y-135504761D02*
X113895238Y-135552380D01*
X114133333Y-135552380D01*
X114228571Y-135504761D01*
X114276190Y-135409523D01*
X114276190Y-135314285D01*
X114228571Y-135219047D01*
X114133333Y-135171428D01*
X113895238Y-135171428D01*
X113800000Y-135123809D01*
X113323809Y-134885714D02*
X113323809Y-135552380D01*
X113323809Y-134980952D02*
X113276190Y-134933333D01*
X113180952Y-134885714D01*
X113038095Y-134885714D01*
X112942857Y-134933333D01*
X112895238Y-135028571D01*
X112895238Y-135552380D01*
X112419047Y-135552380D02*
X112419047Y-134885714D01*
X112419047Y-135076190D02*
X112371428Y-134980952D01*
X112323809Y-134933333D01*
X112228571Y-134885714D01*
X112133333Y-134885714D01*
X111800000Y-135552380D02*
X111800000Y-134885714D01*
X111800000Y-134552380D02*
X111847619Y-134600000D01*
X111800000Y-134647619D01*
X111752380Y-134600000D01*
X111800000Y-134552380D01*
X111800000Y-134647619D01*
X111323809Y-134885714D02*
X111323809Y-135552380D01*
X111323809Y-134980952D02*
X111276190Y-134933333D01*
X111180952Y-134885714D01*
X111038095Y-134885714D01*
X110942857Y-134933333D01*
X110895238Y-135028571D01*
X110895238Y-135552380D01*
X110419047Y-135552380D02*
X110419047Y-134552380D01*
X110323809Y-135171428D02*
X110038095Y-135552380D01*
X110038095Y-134885714D02*
X110419047Y-135266666D01*
X109228571Y-135504761D02*
X109323809Y-135552380D01*
X109514285Y-135552380D01*
X109609523Y-135504761D01*
X109657142Y-135409523D01*
X109657142Y-135028571D01*
X109609523Y-134933333D01*
X109514285Y-134885714D01*
X109323809Y-134885714D01*
X109228571Y-134933333D01*
X109180952Y-135028571D01*
X109180952Y-135123809D01*
X109657142Y-135219047D01*
X108752380Y-135457142D02*
X108704761Y-135504761D01*
X108752380Y-135552380D01*
X108800000Y-135504761D01*
X108752380Y-135457142D01*
X108752380Y-135552380D01*
X107847619Y-135552380D02*
X107847619Y-134552380D01*
X107847619Y-135504761D02*
X107942857Y-135552380D01*
X108133333Y-135552380D01*
X108228571Y-135504761D01*
X108276190Y-135457142D01*
X108323809Y-135361904D01*
X108323809Y-135076190D01*
X108276190Y-134980952D01*
X108228571Y-134933333D01*
X108133333Y-134885714D01*
X107942857Y-134885714D01*
X107847619Y-134933333D01*
X106990476Y-135504761D02*
X107085714Y-135552380D01*
X107276190Y-135552380D01*
X107371428Y-135504761D01*
X107419047Y-135409523D01*
X107419047Y-135028571D01*
X107371428Y-134933333D01*
X107276190Y-134885714D01*
X107085714Y-134885714D01*
X106990476Y-134933333D01*
X106942857Y-135028571D01*
X106942857Y-135123809D01*
X107419047Y-135219047D01*
X105800000Y-134504761D02*
X106657142Y-135790476D01*
X105466666Y-134885714D02*
X105466666Y-135885714D01*
X105466666Y-134933333D02*
X105371428Y-134885714D01*
X105180952Y-134885714D01*
X105085714Y-134933333D01*
X105038095Y-134980952D01*
X104990476Y-135076190D01*
X104990476Y-135361904D01*
X105038095Y-135457142D01*
X105085714Y-135504761D01*
X105180952Y-135552380D01*
X105371428Y-135552380D01*
X105466666Y-135504761D01*
X104133333Y-135504761D02*
X104228571Y-135552380D01*
X104419047Y-135552380D01*
X104514285Y-135504761D01*
X104561904Y-135457142D01*
X104609523Y-135361904D01*
X104609523Y-135076190D01*
X104561904Y-134980952D01*
X104514285Y-134933333D01*
X104419047Y-134885714D01*
X104228571Y-134885714D01*
X104133333Y-134933333D01*
X103704761Y-135552380D02*
X103704761Y-134552380D01*
X103704761Y-134933333D02*
X103609523Y-134885714D01*
X103419047Y-134885714D01*
X103323809Y-134933333D01*
X103276190Y-134980952D01*
X103228571Y-135076190D01*
X103228571Y-135361904D01*
X103276190Y-135457142D01*
X103323809Y-135504761D01*
X103419047Y-135552380D01*
X103609523Y-135552380D01*
X103704761Y-135504761D01*
X102085714Y-134504761D02*
X102942857Y-135790476D01*
X101752380Y-135552380D02*
X101752380Y-134552380D01*
X101752380Y-134933333D02*
X101657142Y-134885714D01*
X101466666Y-134885714D01*
X101371428Y-134933333D01*
X101323809Y-134980952D01*
X101276190Y-135076190D01*
X101276190Y-135361904D01*
X101323809Y-135457142D01*
X101371428Y-135504761D01*
X101466666Y-135552380D01*
X101657142Y-135552380D01*
X101752380Y-135504761D01*
X100847619Y-135552380D02*
X100847619Y-134552380D01*
X100847619Y-134933333D02*
X100752380Y-134885714D01*
X100561904Y-134885714D01*
X100466666Y-134933333D01*
X100419047Y-134980952D01*
X100371428Y-135076190D01*
X100371428Y-135361904D01*
X100419047Y-135457142D01*
X100466666Y-135504761D01*
X100561904Y-135552380D01*
X100752380Y-135552380D01*
X100847619Y-135504761D01*
X99800000Y-135552380D02*
X99895238Y-135504761D01*
X99942857Y-135457142D01*
X99990476Y-135361904D01*
X99990476Y-135076190D01*
X99942857Y-134980952D01*
X99895238Y-134933333D01*
X99800000Y-134885714D01*
X99657142Y-134885714D01*
X99561904Y-134933333D01*
X99514285Y-134980952D01*
X99466666Y-135076190D01*
X99466666Y-135361904D01*
X99514285Y-135457142D01*
X99561904Y-135504761D01*
X99657142Y-135552380D01*
X99800000Y-135552380D01*
X98609523Y-134885714D02*
X98609523Y-135552380D01*
X99038095Y-134885714D02*
X99038095Y-135409523D01*
X98990476Y-135504761D01*
X98895238Y-135552380D01*
X98752380Y-135552380D01*
X98657142Y-135504761D01*
X98609523Y-135457142D01*
X98276190Y-134885714D02*
X97895238Y-134885714D01*
X98133333Y-134552380D02*
X98133333Y-135409523D01*
X98085714Y-135504761D01*
X97990476Y-135552380D01*
X97895238Y-135552380D01*
X97561904Y-134885714D02*
X97561904Y-135885714D01*
X97561904Y-134933333D02*
X97466666Y-134885714D01*
X97276190Y-134885714D01*
X97180952Y-134933333D01*
X97133333Y-134980952D01*
X97085714Y-135076190D01*
X97085714Y-135361904D01*
X97133333Y-135457142D01*
X97180952Y-135504761D01*
X97276190Y-135552380D01*
X97466666Y-135552380D01*
X97561904Y-135504761D01*
X96228571Y-134885714D02*
X96228571Y-135552380D01*
X96657142Y-134885714D02*
X96657142Y-135409523D01*
X96609523Y-135504761D01*
X96514285Y-135552380D01*
X96371428Y-135552380D01*
X96276190Y-135504761D01*
X96228571Y-135457142D01*
X95895238Y-134885714D02*
X95514285Y-134885714D01*
X95752380Y-134552380D02*
X95752380Y-135409523D01*
X95704761Y-135504761D01*
X95609523Y-135552380D01*
X95514285Y-135552380D01*
X94752380Y-135504761D02*
X94847619Y-135552380D01*
X95038095Y-135552380D01*
X95133333Y-135504761D01*
X95180952Y-135457142D01*
X95228571Y-135361904D01*
X95228571Y-135076190D01*
X95180952Y-134980952D01*
X95133333Y-134933333D01*
X95038095Y-134885714D01*
X94847619Y-134885714D01*
X94752380Y-134933333D01*
X93895238Y-135552380D02*
X93895238Y-135028571D01*
X93942857Y-134933333D01*
X94038095Y-134885714D01*
X94228571Y-134885714D01*
X94323809Y-134933333D01*
X93895238Y-135504761D02*
X93990476Y-135552380D01*
X94228571Y-135552380D01*
X94323809Y-135504761D01*
X94371428Y-135409523D01*
X94371428Y-135314285D01*
X94323809Y-135219047D01*
X94228571Y-135171428D01*
X93990476Y-135171428D01*
X93895238Y-135123809D01*
X93419047Y-134885714D02*
X93419047Y-135885714D01*
X93419047Y-134933333D02*
X93323809Y-134885714D01*
X93133333Y-134885714D01*
X93038095Y-134933333D01*
X92990476Y-134980952D01*
X92942857Y-135076190D01*
X92942857Y-135361904D01*
X92990476Y-135457142D01*
X93038095Y-135504761D01*
X93133333Y-135552380D01*
X93323809Y-135552380D01*
X93419047Y-135504761D01*
X92133333Y-135504761D02*
X92228571Y-135552380D01*
X92419047Y-135552380D01*
X92514285Y-135504761D01*
X92561904Y-135409523D01*
X92561904Y-135028571D01*
X92514285Y-134933333D01*
X92419047Y-134885714D01*
X92228571Y-134885714D01*
X92133333Y-134933333D01*
X92085714Y-135028571D01*
X92085714Y-135123809D01*
X92561904Y-135219047D01*
X126895238Y-144452380D02*
X126895238Y-143452380D01*
X126466666Y-144452380D02*
X126466666Y-143928571D01*
X126514285Y-143833333D01*
X126609523Y-143785714D01*
X126752380Y-143785714D01*
X126847619Y-143833333D01*
X126895238Y-143880952D01*
X126133333Y-143785714D02*
X125752380Y-143785714D01*
X125990476Y-143452380D02*
X125990476Y-144309523D01*
X125942857Y-144404761D01*
X125847619Y-144452380D01*
X125752380Y-144452380D01*
X125561904Y-143785714D02*
X125180952Y-143785714D01*
X125419047Y-143452380D02*
X125419047Y-144309523D01*
X125371428Y-144404761D01*
X125276190Y-144452380D01*
X125180952Y-144452380D01*
X124847619Y-143785714D02*
X124847619Y-144785714D01*
X124847619Y-143833333D02*
X124752380Y-143785714D01*
X124561904Y-143785714D01*
X124466666Y-143833333D01*
X124419047Y-143880952D01*
X124371428Y-143976190D01*
X124371428Y-144261904D01*
X124419047Y-144357142D01*
X124466666Y-144404761D01*
X124561904Y-144452380D01*
X124752380Y-144452380D01*
X124847619Y-144404761D01*
X123942857Y-144357142D02*
X123895238Y-144404761D01*
X123942857Y-144452380D01*
X123990476Y-144404761D01*
X123942857Y-144357142D01*
X123942857Y-144452380D01*
X123942857Y-143833333D02*
X123895238Y-143880952D01*
X123942857Y-143928571D01*
X123990476Y-143880952D01*
X123942857Y-143833333D01*
X123942857Y-143928571D01*
X122752380Y-143404761D02*
X123609523Y-144690476D01*
X121704761Y-143404761D02*
X122561904Y-144690476D01*
X120942857Y-144404761D02*
X121038095Y-144452380D01*
X121228571Y-144452380D01*
X121323809Y-144404761D01*
X121371428Y-144357142D01*
X121419047Y-144261904D01*
X121419047Y-143976190D01*
X121371428Y-143880952D01*
X121323809Y-143833333D01*
X121228571Y-143785714D01*
X121038095Y-143785714D01*
X120942857Y-143833333D01*
X120514285Y-144452380D02*
X120514285Y-143785714D01*
X120514285Y-143976190D02*
X120466666Y-143880952D01*
X120419047Y-143833333D01*
X120323809Y-143785714D01*
X120228571Y-143785714D01*
X119514285Y-144404761D02*
X119609523Y-144452380D01*
X119800000Y-144452380D01*
X119895238Y-144404761D01*
X119942857Y-144309523D01*
X119942857Y-143928571D01*
X119895238Y-143833333D01*
X119800000Y-143785714D01*
X119609523Y-143785714D01*
X119514285Y-143833333D01*
X119466666Y-143928571D01*
X119466666Y-144023809D01*
X119942857Y-144119047D01*
X118609523Y-144452380D02*
X118609523Y-143928571D01*
X118657142Y-143833333D01*
X118752380Y-143785714D01*
X118942857Y-143785714D01*
X119038095Y-143833333D01*
X118609523Y-144404761D02*
X118704761Y-144452380D01*
X118942857Y-144452380D01*
X119038095Y-144404761D01*
X119085714Y-144309523D01*
X119085714Y-144214285D01*
X119038095Y-144119047D01*
X118942857Y-144071428D01*
X118704761Y-144071428D01*
X118609523Y-144023809D01*
X118276190Y-143785714D02*
X117895238Y-143785714D01*
X118133333Y-143452380D02*
X118133333Y-144309523D01*
X118085714Y-144404761D01*
X117990476Y-144452380D01*
X117895238Y-144452380D01*
X117561904Y-144452380D02*
X117561904Y-143785714D01*
X117561904Y-143452380D02*
X117609523Y-143500000D01*
X117561904Y-143547619D01*
X117514285Y-143500000D01*
X117561904Y-143452380D01*
X117561904Y-143547619D01*
X117180952Y-143785714D02*
X116942857Y-144452380D01*
X116704761Y-143785714D01*
X115942857Y-144404761D02*
X116038095Y-144452380D01*
X116228571Y-144452380D01*
X116323809Y-144404761D01*
X116371428Y-144309523D01*
X116371428Y-143928571D01*
X116323809Y-143833333D01*
X116228571Y-143785714D01*
X116038095Y-143785714D01*
X115942857Y-143833333D01*
X115895238Y-143928571D01*
X115895238Y-144023809D01*
X116371428Y-144119047D01*
X115038095Y-144404761D02*
X115133333Y-144452380D01*
X115323809Y-144452380D01*
X115419047Y-144404761D01*
X115466666Y-144357142D01*
X115514285Y-144261904D01*
X115514285Y-143976190D01*
X115466666Y-143880952D01*
X115419047Y-143833333D01*
X115323809Y-143785714D01*
X115133333Y-143785714D01*
X115038095Y-143833333D01*
X114466666Y-144452380D02*
X114561904Y-144404761D01*
X114609523Y-144357142D01*
X114657142Y-144261904D01*
X114657142Y-143976190D01*
X114609523Y-143880952D01*
X114561904Y-143833333D01*
X114466666Y-143785714D01*
X114323809Y-143785714D01*
X114228571Y-143833333D01*
X114180952Y-143880952D01*
X114133333Y-143976190D01*
X114133333Y-144261904D01*
X114180952Y-144357142D01*
X114228571Y-144404761D01*
X114323809Y-144452380D01*
X114466666Y-144452380D01*
X113704761Y-144452380D02*
X113704761Y-143785714D01*
X113704761Y-143880952D02*
X113657142Y-143833333D01*
X113561904Y-143785714D01*
X113419047Y-143785714D01*
X113323809Y-143833333D01*
X113276190Y-143928571D01*
X113276190Y-144452380D01*
X113276190Y-143928571D02*
X113228571Y-143833333D01*
X113133333Y-143785714D01*
X112990476Y-143785714D01*
X112895238Y-143833333D01*
X112847619Y-143928571D01*
X112847619Y-144452380D01*
X112371428Y-144452380D02*
X112371428Y-143785714D01*
X112371428Y-143880952D02*
X112323809Y-143833333D01*
X112228571Y-143785714D01*
X112085714Y-143785714D01*
X111990476Y-143833333D01*
X111942857Y-143928571D01*
X111942857Y-144452380D01*
X111942857Y-143928571D02*
X111895238Y-143833333D01*
X111800000Y-143785714D01*
X111657142Y-143785714D01*
X111561904Y-143833333D01*
X111514285Y-143928571D01*
X111514285Y-144452380D01*
X110895238Y-144452380D02*
X110990476Y-144404761D01*
X111038095Y-144357142D01*
X111085714Y-144261904D01*
X111085714Y-143976190D01*
X111038095Y-143880952D01*
X110990476Y-143833333D01*
X110895238Y-143785714D01*
X110752380Y-143785714D01*
X110657142Y-143833333D01*
X110609523Y-143880952D01*
X110561904Y-143976190D01*
X110561904Y-144261904D01*
X110609523Y-144357142D01*
X110657142Y-144404761D01*
X110752380Y-144452380D01*
X110895238Y-144452380D01*
X110133333Y-143785714D02*
X110133333Y-144452380D01*
X110133333Y-143880952D02*
X110085714Y-143833333D01*
X109990476Y-143785714D01*
X109847619Y-143785714D01*
X109752380Y-143833333D01*
X109704761Y-143928571D01*
X109704761Y-144452380D01*
X109276190Y-144404761D02*
X109180952Y-144452380D01*
X108990476Y-144452380D01*
X108895238Y-144404761D01*
X108847619Y-144309523D01*
X108847619Y-144261904D01*
X108895238Y-144166666D01*
X108990476Y-144119047D01*
X109133333Y-144119047D01*
X109228571Y-144071428D01*
X109276190Y-143976190D01*
X109276190Y-143928571D01*
X109228571Y-143833333D01*
X109133333Y-143785714D01*
X108990476Y-143785714D01*
X108895238Y-143833333D01*
X108419047Y-144357142D02*
X108371428Y-144404761D01*
X108419047Y-144452380D01*
X108466666Y-144404761D01*
X108419047Y-144357142D01*
X108419047Y-144452380D01*
X107800000Y-144452380D02*
X107895238Y-144404761D01*
X107942857Y-144357142D01*
X107990476Y-144261904D01*
X107990476Y-143976190D01*
X107942857Y-143880952D01*
X107895238Y-143833333D01*
X107800000Y-143785714D01*
X107657142Y-143785714D01*
X107561904Y-143833333D01*
X107514285Y-143880952D01*
X107466666Y-143976190D01*
X107466666Y-144261904D01*
X107514285Y-144357142D01*
X107561904Y-144404761D01*
X107657142Y-144452380D01*
X107800000Y-144452380D01*
X107038095Y-144452380D02*
X107038095Y-143785714D01*
X107038095Y-143976190D02*
X106990476Y-143880952D01*
X106942857Y-143833333D01*
X106847619Y-143785714D01*
X106752380Y-143785714D01*
X105990476Y-143785714D02*
X105990476Y-144595238D01*
X106038095Y-144690476D01*
X106085714Y-144738095D01*
X106180952Y-144785714D01*
X106323809Y-144785714D01*
X106419047Y-144738095D01*
X105990476Y-144404761D02*
X106085714Y-144452380D01*
X106276190Y-144452380D01*
X106371428Y-144404761D01*
X106419047Y-144357142D01*
X106466666Y-144261904D01*
X106466666Y-143976190D01*
X106419047Y-143880952D01*
X106371428Y-143833333D01*
X106276190Y-143785714D01*
X106085714Y-143785714D01*
X105990476Y-143833333D01*
X104800000Y-143404761D02*
X105657142Y-144690476D01*
X104323809Y-144452380D02*
X104419047Y-144404761D01*
X104466666Y-144309523D01*
X104466666Y-143452380D01*
X103942857Y-144452380D02*
X103942857Y-143785714D01*
X103942857Y-143452380D02*
X103990476Y-143500000D01*
X103942857Y-143547619D01*
X103895238Y-143500000D01*
X103942857Y-143452380D01*
X103942857Y-143547619D01*
X103038095Y-144404761D02*
X103133333Y-144452380D01*
X103323809Y-144452380D01*
X103419047Y-144404761D01*
X103466666Y-144357142D01*
X103514285Y-144261904D01*
X103514285Y-143976190D01*
X103466666Y-143880952D01*
X103419047Y-143833333D01*
X103323809Y-143785714D01*
X103133333Y-143785714D01*
X103038095Y-143833333D01*
X102228571Y-144404761D02*
X102323809Y-144452380D01*
X102514285Y-144452380D01*
X102609523Y-144404761D01*
X102657142Y-144309523D01*
X102657142Y-143928571D01*
X102609523Y-143833333D01*
X102514285Y-143785714D01*
X102323809Y-143785714D01*
X102228571Y-143833333D01*
X102180952Y-143928571D01*
X102180952Y-144023809D01*
X102657142Y-144119047D01*
X101752380Y-143785714D02*
X101752380Y-144452380D01*
X101752380Y-143880952D02*
X101704761Y-143833333D01*
X101609523Y-143785714D01*
X101466666Y-143785714D01*
X101371428Y-143833333D01*
X101323809Y-143928571D01*
X101323809Y-144452380D01*
X100895238Y-144404761D02*
X100800000Y-144452380D01*
X100609523Y-144452380D01*
X100514285Y-144404761D01*
X100466666Y-144309523D01*
X100466666Y-144261904D01*
X100514285Y-144166666D01*
X100609523Y-144119047D01*
X100752380Y-144119047D01*
X100847619Y-144071428D01*
X100895238Y-143976190D01*
X100895238Y-143928571D01*
X100847619Y-143833333D01*
X100752380Y-143785714D01*
X100609523Y-143785714D01*
X100514285Y-143833333D01*
X99657142Y-144404761D02*
X99752380Y-144452380D01*
X99942857Y-144452380D01*
X100038095Y-144404761D01*
X100085714Y-144309523D01*
X100085714Y-143928571D01*
X100038095Y-143833333D01*
X99942857Y-143785714D01*
X99752380Y-143785714D01*
X99657142Y-143833333D01*
X99609523Y-143928571D01*
X99609523Y-144023809D01*
X100085714Y-144119047D01*
X99228571Y-144404761D02*
X99133333Y-144452380D01*
X98942857Y-144452380D01*
X98847619Y-144404761D01*
X98800000Y-144309523D01*
X98800000Y-144261904D01*
X98847619Y-144166666D01*
X98942857Y-144119047D01*
X99085714Y-144119047D01*
X99180952Y-144071428D01*
X99228571Y-143976190D01*
X99228571Y-143928571D01*
X99180952Y-143833333D01*
X99085714Y-143785714D01*
X98942857Y-143785714D01*
X98847619Y-143833333D01*
X97657142Y-143404761D02*
X98514285Y-144690476D01*
X97323809Y-144452380D02*
X97323809Y-143452380D01*
X97323809Y-143833333D02*
X97228571Y-143785714D01*
X97038095Y-143785714D01*
X96942857Y-143833333D01*
X96895238Y-143880952D01*
X96847619Y-143976190D01*
X96847619Y-144261904D01*
X96895238Y-144357142D01*
X96942857Y-144404761D01*
X97038095Y-144452380D01*
X97228571Y-144452380D01*
X97323809Y-144404761D01*
X96514285Y-143785714D02*
X96276190Y-144452380D01*
X96038095Y-143785714D02*
X96276190Y-144452380D01*
X96371428Y-144690476D01*
X96419047Y-144738095D01*
X96514285Y-144785714D01*
X95657142Y-144071428D02*
X94895238Y-144071428D01*
X94419047Y-143785714D02*
X94419047Y-144452380D01*
X94419047Y-143880952D02*
X94371428Y-143833333D01*
X94276190Y-143785714D01*
X94133333Y-143785714D01*
X94038095Y-143833333D01*
X93990476Y-143928571D01*
X93990476Y-144452380D01*
X93085714Y-144404761D02*
X93180952Y-144452380D01*
X93371428Y-144452380D01*
X93466666Y-144404761D01*
X93514285Y-144357142D01*
X93561904Y-144261904D01*
X93561904Y-143976190D01*
X93514285Y-143880952D01*
X93466666Y-143833333D01*
X93371428Y-143785714D01*
X93180952Y-143785714D01*
X93085714Y-143833333D01*
X92657142Y-144071428D02*
X91895238Y-144071428D01*
X91466666Y-144404761D02*
X91371428Y-144452380D01*
X91180952Y-144452380D01*
X91085714Y-144404761D01*
X91038095Y-144309523D01*
X91038095Y-144261904D01*
X91085714Y-144166666D01*
X91180952Y-144119047D01*
X91323809Y-144119047D01*
X91419047Y-144071428D01*
X91466666Y-143976190D01*
X91466666Y-143928571D01*
X91419047Y-143833333D01*
X91323809Y-143785714D01*
X91180952Y-143785714D01*
X91085714Y-143833333D01*
X90180952Y-144452380D02*
X90180952Y-143928571D01*
X90228571Y-143833333D01*
X90323809Y-143785714D01*
X90514285Y-143785714D01*
X90609523Y-143833333D01*
X90180952Y-144404761D02*
X90276190Y-144452380D01*
X90514285Y-144452380D01*
X90609523Y-144404761D01*
X90657142Y-144309523D01*
X90657142Y-144214285D01*
X90609523Y-144119047D01*
X90514285Y-144071428D01*
X90276190Y-144071428D01*
X90180952Y-144023809D01*
X88990476Y-143404761D02*
X89847619Y-144690476D01*
X88228571Y-143785714D02*
X88228571Y-144452380D01*
X88466666Y-143404761D02*
X88704761Y-144119047D01*
X88085714Y-144119047D01*
X87704761Y-144357142D02*
X87657142Y-144404761D01*
X87704761Y-144452380D01*
X87752380Y-144404761D01*
X87704761Y-144357142D01*
X87704761Y-144452380D01*
X87038095Y-143452380D02*
X86942857Y-143452380D01*
X86847619Y-143500000D01*
X86800000Y-143547619D01*
X86752380Y-143642857D01*
X86704761Y-143833333D01*
X86704761Y-144071428D01*
X86752380Y-144261904D01*
X86800000Y-144357142D01*
X86847619Y-144404761D01*
X86942857Y-144452380D01*
X87038095Y-144452380D01*
X87133333Y-144404761D01*
X87180952Y-144357142D01*
X87228571Y-144261904D01*
X87276190Y-144071428D01*
X87276190Y-143833333D01*
X87228571Y-143642857D01*
X87180952Y-143547619D01*
X87133333Y-143500000D01*
X87038095Y-143452380D01*
X85561904Y-143404761D02*
X86419047Y-144690476D01*
X90247619Y-61947619D02*
X90247619Y-62947619D01*
X90580952Y-62233333D01*
X90914285Y-62947619D01*
X90914285Y-61947619D01*
X91819047Y-61947619D02*
X91819047Y-62471428D01*
X91771428Y-62566666D01*
X91676190Y-62614285D01*
X91485714Y-62614285D01*
X91390476Y-62566666D01*
X91819047Y-61995238D02*
X91723809Y-61947619D01*
X91485714Y-61947619D01*
X91390476Y-61995238D01*
X91342857Y-62090476D01*
X91342857Y-62185714D01*
X91390476Y-62280952D01*
X91485714Y-62328571D01*
X91723809Y-62328571D01*
X91819047Y-62376190D01*
X92200000Y-61947619D02*
X92723809Y-62614285D01*
X92200000Y-62614285D02*
X92723809Y-61947619D01*
X93771428Y-62947619D02*
X94390476Y-62947619D01*
X94057142Y-62566666D01*
X94200000Y-62566666D01*
X94295238Y-62519047D01*
X94342857Y-62471428D01*
X94390476Y-62376190D01*
X94390476Y-62138095D01*
X94342857Y-62042857D01*
X94295238Y-61995238D01*
X94200000Y-61947619D01*
X93914285Y-61947619D01*
X93819047Y-61995238D01*
X93771428Y-62042857D01*
X95009523Y-62947619D02*
X95104761Y-62947619D01*
X95200000Y-62900000D01*
X95247619Y-62852380D01*
X95295238Y-62757142D01*
X95342857Y-62566666D01*
X95342857Y-62328571D01*
X95295238Y-62138095D01*
X95247619Y-62042857D01*
X95200000Y-61995238D01*
X95104761Y-61947619D01*
X95009523Y-61947619D01*
X94914285Y-61995238D01*
X94866666Y-62042857D01*
X94819047Y-62138095D01*
X94771428Y-62328571D01*
X94771428Y-62566666D01*
X94819047Y-62757142D01*
X94866666Y-62852380D01*
X94914285Y-62900000D01*
X95009523Y-62947619D01*
X95628571Y-62947619D02*
X95961904Y-61947619D01*
X96295238Y-62947619D01*
X91180952Y-60771428D02*
X90419047Y-60771428D01*
X96280952Y-60771428D02*
X95519047Y-60771428D01*
X95900000Y-61152380D02*
X95900000Y-60390476D01*
D12*
%TO.C,REF\u002A\u002A*%
X99000000Y-139500000D02*
G75*
G03*
X99000000Y-139500000I-3000000J0D01*
G01*
D13*
X94300000Y-139550000D02*
X94301913Y-139646502D01*
X94301913Y-139646502D02*
X94307654Y-139740946D01*
X94307654Y-139740946D02*
X94317221Y-139833332D01*
X94317221Y-139833332D02*
X94330615Y-139923659D01*
X94330615Y-139923659D02*
X94347835Y-140011928D01*
X94347835Y-140011928D02*
X94368881Y-140098139D01*
X94368881Y-140098139D02*
X94393752Y-140182292D01*
X94393752Y-140182292D02*
X94422449Y-140264388D01*
X94422449Y-140264388D02*
X94454970Y-140344426D01*
X94454970Y-140344426D02*
X94491316Y-140422406D01*
X94491316Y-140422406D02*
X94531486Y-140498329D01*
X94531486Y-140498329D02*
X94575481Y-140572196D01*
X94575481Y-140572196D02*
X94623298Y-140644005D01*
X94623298Y-140644005D02*
X94674939Y-140713757D01*
X94674939Y-140713757D02*
X94730404Y-140781453D01*
X94730404Y-140781453D02*
X94789691Y-140847093D01*
X95382358Y-140348301D02*
X95331275Y-140268004D01*
X95331275Y-140268004D02*
X95287007Y-140181264D01*
X95287007Y-140181264D02*
X95249553Y-140088088D01*
X95249553Y-140088088D02*
X95218911Y-139988481D01*
X95218911Y-139988481D02*
X95200400Y-139909559D01*
X95200400Y-139909559D02*
X95185720Y-139827026D01*
X95185720Y-139827026D02*
X95174870Y-139740885D01*
X95174870Y-139740885D02*
X95167850Y-139651137D01*
X95167850Y-139651137D02*
X95164659Y-139557787D01*
X95164659Y-139557787D02*
X95164447Y-139525870D01*
X94789691Y-140847093D02*
X94852097Y-140909687D01*
X94852097Y-140909687D02*
X94916762Y-140968248D01*
X94916762Y-140968248D02*
X94983686Y-141022774D01*
X94983686Y-141022774D02*
X95052871Y-141073265D01*
X95052871Y-141073265D02*
X95124319Y-141119721D01*
X95124319Y-141119721D02*
X95198030Y-141162140D01*
X95198030Y-141162140D02*
X95274006Y-141200522D01*
X95274006Y-141200522D02*
X95352248Y-141234866D01*
X95352248Y-141234866D02*
X95432756Y-141265173D01*
X95432756Y-141265173D02*
X95515534Y-141291440D01*
X95515534Y-141291440D02*
X95600580Y-141313668D01*
X95600580Y-141313668D02*
X95687898Y-141331856D01*
X95687898Y-141331856D02*
X95777488Y-141346003D01*
X95777488Y-141346003D02*
X95869351Y-141356109D01*
X95869351Y-141356109D02*
X95963489Y-141362173D01*
X95963489Y-141362173D02*
X96059903Y-141364195D01*
X96452650Y-139023797D02*
X97123845Y-139695097D01*
X95363943Y-138706403D02*
X95416599Y-138640506D01*
X95416599Y-138640506D02*
X95474720Y-138583393D01*
X95474720Y-138583393D02*
X95555067Y-138524352D01*
X95555067Y-138524352D02*
X95643979Y-138479037D01*
X95643979Y-138479037D02*
X95721284Y-138452671D01*
X95721284Y-138452671D02*
X95804088Y-138435091D01*
X95804088Y-138435091D02*
X95892396Y-138426301D01*
X95892396Y-138426301D02*
X95938618Y-138425203D01*
X96059903Y-141364195D02*
X96166243Y-141361167D01*
X96166243Y-141361167D02*
X96269820Y-141352082D01*
X96269820Y-141352082D02*
X96370634Y-141336940D01*
X96370634Y-141336940D02*
X96468683Y-141315740D01*
X96468683Y-141315740D02*
X96563968Y-141288480D01*
X96563968Y-141288480D02*
X96656487Y-141255159D01*
X96656487Y-141255159D02*
X96746241Y-141215776D01*
X96746241Y-141215776D02*
X96833228Y-141170331D01*
X96833228Y-141170331D02*
X96917449Y-141118822D01*
X96917449Y-141118822D02*
X96998902Y-141061248D01*
X96998902Y-141061248D02*
X97051667Y-141019496D01*
X97553634Y-140039797D02*
X96700724Y-140039797D01*
X96700618Y-139023797D02*
X96452650Y-139023797D01*
X94771700Y-138231634D02*
X94714585Y-138297022D01*
X94714585Y-138297022D02*
X94661155Y-138364681D01*
X94661155Y-138364681D02*
X94611408Y-138434608D01*
X94611408Y-138434608D02*
X94565346Y-138506804D01*
X94565346Y-138506804D02*
X94522967Y-138581268D01*
X94522967Y-138581268D02*
X94484273Y-138658000D01*
X94484273Y-138658000D02*
X94449263Y-138737000D01*
X94449263Y-138737000D02*
X94417938Y-138818268D01*
X94417938Y-138818268D02*
X94390297Y-138901803D01*
X94390297Y-138901803D02*
X94366342Y-138987604D01*
X94366342Y-138987604D02*
X94346071Y-139075672D01*
X94346071Y-139075672D02*
X94329486Y-139166006D01*
X94329486Y-139166006D02*
X94316586Y-139258607D01*
X94316586Y-139258607D02*
X94307371Y-139353472D01*
X94307371Y-139353472D02*
X94301842Y-139450603D01*
X94301842Y-139450603D02*
X94300000Y-139550000D01*
X97123845Y-139695097D02*
X97795146Y-139023797D01*
X95956821Y-140656699D02*
X95869842Y-140651877D01*
X95869842Y-140651877D02*
X95787185Y-140637414D01*
X95787185Y-140637414D02*
X95708856Y-140613311D01*
X95708856Y-140613311D02*
X95634863Y-140579573D01*
X95634863Y-140579573D02*
X95565209Y-140536199D01*
X95565209Y-140536199D02*
X95499903Y-140483195D01*
X95499903Y-140483195D02*
X95438951Y-140420561D01*
X95438951Y-140420561D02*
X95382358Y-140348301D01*
X95164447Y-139525870D02*
X95166202Y-139427197D01*
X95166202Y-139427197D02*
X95171466Y-139333049D01*
X95171466Y-139333049D02*
X95180239Y-139243425D01*
X95180239Y-139243425D02*
X95192519Y-139158322D01*
X95192519Y-139158322D02*
X95208306Y-139077738D01*
X95208306Y-139077738D02*
X95234807Y-138977323D01*
X95234807Y-138977323D02*
X95267537Y-138884936D01*
X95267537Y-138884936D02*
X95306494Y-138800574D01*
X95306494Y-138800574D02*
X95351675Y-138724235D01*
X95351675Y-138724235D02*
X95363943Y-138706403D01*
X97051667Y-141019496D02*
X97126993Y-140952297D01*
X97126993Y-140952297D02*
X97196467Y-140880001D01*
X97196467Y-140880001D02*
X97260090Y-140802608D01*
X97260090Y-140802608D02*
X97317863Y-140720117D01*
X97317863Y-140720117D02*
X97369787Y-140632525D01*
X97369787Y-140632525D02*
X97415865Y-140539833D01*
X97415865Y-140539833D02*
X97456097Y-140442039D01*
X97456097Y-140442039D02*
X97490486Y-140339143D01*
X97490486Y-140339143D02*
X97519033Y-140231142D01*
X97519033Y-140231142D02*
X97541740Y-140118037D01*
X97541740Y-140118037D02*
X97553634Y-140039797D01*
X97795146Y-139023797D02*
X97529293Y-139023903D01*
X95938618Y-138425203D02*
X96020993Y-138427540D01*
X96020993Y-138427540D02*
X96135864Y-138439814D01*
X96135864Y-138439814D02*
X96240307Y-138462610D01*
X96240307Y-138462610D02*
X96334323Y-138495927D01*
X96334323Y-138495927D02*
X96417914Y-138539766D01*
X96417914Y-138539766D02*
X96491081Y-138594128D01*
X96491081Y-138594128D02*
X96553826Y-138659013D01*
X96553826Y-138659013D02*
X96606151Y-138734422D01*
X96606151Y-138734422D02*
X96648057Y-138820355D01*
X96648057Y-138820355D02*
X96679545Y-138916813D01*
X96679545Y-138916813D02*
X96700618Y-139023797D01*
X97529293Y-139023903D02*
X97508455Y-138909575D01*
X97508455Y-138909575D02*
X97482198Y-138800191D01*
X97482198Y-138800191D02*
X97450519Y-138695753D01*
X97450519Y-138695753D02*
X97413418Y-138596260D01*
X97413418Y-138596260D02*
X97370894Y-138501711D01*
X97370894Y-138501711D02*
X97322945Y-138412107D01*
X97322945Y-138412107D02*
X97269571Y-138327448D01*
X97269571Y-138327448D02*
X97210770Y-138247734D01*
X97210770Y-138247734D02*
X97146542Y-138172964D01*
X97146542Y-138172964D02*
X97076885Y-138103139D01*
X97076885Y-138103139D02*
X97027431Y-138059337D01*
X96700724Y-140039797D02*
X96689060Y-140150044D01*
X96689060Y-140150044D02*
X96665380Y-140249447D01*
X96665380Y-140249447D02*
X96629685Y-140338006D01*
X96629685Y-140338006D02*
X96581973Y-140415721D01*
X96581973Y-140415721D02*
X96522246Y-140482592D01*
X96522246Y-140482592D02*
X96450502Y-140538620D01*
X96450502Y-140538620D02*
X96366743Y-140583803D01*
X96366743Y-140583803D02*
X96270967Y-140618142D01*
X96270967Y-140618142D02*
X96163175Y-140641637D01*
X96163175Y-140641637D02*
X96043368Y-140654289D01*
X96043368Y-140654289D02*
X95956821Y-140656699D01*
X96041700Y-137717707D02*
X95943216Y-137719716D01*
X95943216Y-137719716D02*
X95847277Y-137725742D01*
X95847277Y-137725742D02*
X95753881Y-137735786D01*
X95753881Y-137735786D02*
X95663031Y-137749847D01*
X95663031Y-137749847D02*
X95574727Y-137767923D01*
X95574727Y-137767923D02*
X95488970Y-137790015D01*
X95488970Y-137790015D02*
X95405762Y-137816121D01*
X95405762Y-137816121D02*
X95325102Y-137846241D01*
X95325102Y-137846241D02*
X95246992Y-137880375D01*
X95246992Y-137880375D02*
X95171433Y-137918521D01*
X95171433Y-137918521D02*
X95098426Y-137960680D01*
X95098426Y-137960680D02*
X95027971Y-138006850D01*
X95027971Y-138006850D02*
X94960070Y-138057031D01*
X94960070Y-138057031D02*
X94894724Y-138111222D01*
X94894724Y-138111222D02*
X94831934Y-138169423D01*
X94831934Y-138169423D02*
X94771700Y-138231634D01*
X97027431Y-138059337D02*
X96949928Y-137998284D01*
X96949928Y-137998284D02*
X96869344Y-137943236D01*
X96869344Y-137943236D02*
X96785677Y-137894193D01*
X96785677Y-137894193D02*
X96698926Y-137851156D01*
X96698926Y-137851156D02*
X96609090Y-137814124D01*
X96609090Y-137814124D02*
X96516168Y-137783097D01*
X96516168Y-137783097D02*
X96420160Y-137758075D01*
X96420160Y-137758075D02*
X96321063Y-137739058D01*
X96321063Y-137739058D02*
X96218877Y-137726047D01*
X96218877Y-137726047D02*
X96113601Y-137719041D01*
X96113601Y-137719041D02*
X96041700Y-137717707D01*
D14*
G36*
X95350000Y-137850000D02*
G01*
X95050000Y-138050000D01*
X94700000Y-138450000D01*
X94450000Y-138900000D01*
X94350000Y-139200000D01*
X94350000Y-139500000D01*
X94350000Y-139900000D01*
X94500000Y-140400000D01*
X94700000Y-140700000D01*
X94900000Y-140900000D01*
X95200000Y-141150000D01*
X95600000Y-141300000D01*
X95900000Y-141350000D01*
X96200000Y-141350000D01*
X96575000Y-141250000D01*
X96900000Y-141100000D01*
X97150000Y-140900000D01*
X97350000Y-140600000D01*
X97500000Y-140100000D01*
X96750000Y-140100000D01*
X96750000Y-140250000D01*
X96600000Y-140500000D01*
X96300000Y-140700000D01*
X95800000Y-140700000D01*
X95400000Y-140500000D01*
X95150000Y-140050000D01*
X95100000Y-139500000D01*
X95150000Y-138950000D01*
X95350000Y-138600000D01*
X95750000Y-138400000D01*
X96250000Y-138400000D01*
X96600000Y-138600000D01*
X96800000Y-139050000D01*
X96550000Y-139050000D01*
X97100000Y-139600000D01*
X97700000Y-139050000D01*
X97500000Y-139050000D01*
X97400000Y-138700000D01*
X97250000Y-138350000D01*
X96900000Y-138000000D01*
X96300000Y-137750000D01*
X95700000Y-137800000D01*
X95350000Y-137850000D01*
G37*
X95350000Y-137850000D02*
X95050000Y-138050000D01*
X94700000Y-138450000D01*
X94450000Y-138900000D01*
X94350000Y-139200000D01*
X94350000Y-139500000D01*
X94350000Y-139900000D01*
X94500000Y-140400000D01*
X94700000Y-140700000D01*
X94900000Y-140900000D01*
X95200000Y-141150000D01*
X95600000Y-141300000D01*
X95900000Y-141350000D01*
X96200000Y-141350000D01*
X96575000Y-141250000D01*
X96900000Y-141100000D01*
X97150000Y-140900000D01*
X97350000Y-140600000D01*
X97500000Y-140100000D01*
X96750000Y-140100000D01*
X96750000Y-140250000D01*
X96600000Y-140500000D01*
X96300000Y-140700000D01*
X95800000Y-140700000D01*
X95400000Y-140500000D01*
X95150000Y-140050000D01*
X95100000Y-139500000D01*
X95150000Y-138950000D01*
X95350000Y-138600000D01*
X95750000Y-138400000D01*
X96250000Y-138400000D01*
X96600000Y-138600000D01*
X96800000Y-139050000D01*
X96550000Y-139050000D01*
X97100000Y-139600000D01*
X97700000Y-139050000D01*
X97500000Y-139050000D01*
X97400000Y-138700000D01*
X97250000Y-138350000D01*
X96900000Y-138000000D01*
X96300000Y-137750000D01*
X95700000Y-137800000D01*
X95350000Y-137850000D01*
G36*
X102450000Y-140000000D02*
G01*
X103750000Y-140000000D01*
X103700000Y-140250000D01*
X103450000Y-140600000D01*
X103200000Y-140700000D01*
X102850000Y-140800000D01*
X102550000Y-140800000D01*
X102150000Y-140650000D01*
X102050000Y-141200000D01*
X102300000Y-141300000D01*
X102750000Y-141400000D01*
X103150000Y-141350000D01*
X103550000Y-141250000D01*
X103950000Y-141050000D01*
X104250000Y-140700000D01*
X104450000Y-140400000D01*
X104550000Y-140000000D01*
X104900000Y-140000000D01*
X104900000Y-139700000D01*
X104600000Y-139700000D01*
X104600000Y-139300000D01*
X104900000Y-139300000D01*
X104900000Y-139000000D01*
X104850000Y-139000000D01*
X102450000Y-140000000D01*
G37*
X102450000Y-140000000D02*
X103750000Y-140000000D01*
X103700000Y-140250000D01*
X103450000Y-140600000D01*
X103200000Y-140700000D01*
X102850000Y-140800000D01*
X102550000Y-140800000D01*
X102150000Y-140650000D01*
X102050000Y-141200000D01*
X102300000Y-141300000D01*
X102750000Y-141400000D01*
X103150000Y-141350000D01*
X103550000Y-141250000D01*
X103950000Y-141050000D01*
X104250000Y-140700000D01*
X104450000Y-140400000D01*
X104550000Y-140000000D01*
X104900000Y-140000000D01*
X104900000Y-139700000D01*
X104600000Y-139700000D01*
X104600000Y-139300000D01*
X104900000Y-139300000D01*
X104900000Y-139000000D01*
X104850000Y-139000000D01*
X102450000Y-140000000D01*
G36*
X102400000Y-137700000D02*
G01*
X102050000Y-137800000D01*
X102200000Y-138350000D01*
X102600000Y-138200000D01*
X103100000Y-138250000D01*
X103450000Y-138450000D01*
X103700000Y-138750000D01*
X104300000Y-138500000D01*
X104200000Y-138250000D01*
X103950000Y-138050000D01*
X103500000Y-137750000D01*
X102950000Y-137650000D01*
X102400000Y-137700000D01*
G37*
X102400000Y-137700000D02*
X102050000Y-137800000D01*
X102200000Y-138350000D01*
X102600000Y-138200000D01*
X103100000Y-138250000D01*
X103450000Y-138450000D01*
X103700000Y-138750000D01*
X104300000Y-138500000D01*
X104200000Y-138250000D01*
X103950000Y-138050000D01*
X103500000Y-137750000D01*
X102950000Y-137650000D01*
X102400000Y-137700000D01*
G36*
X102249101Y-139366086D02*
G01*
X103250000Y-139000000D01*
X102250000Y-139000000D01*
X102249101Y-139366086D01*
G37*
X102249101Y-139366086D02*
X103250000Y-139000000D01*
X102250000Y-139000000D01*
X102249101Y-139366086D01*
G36*
X100250000Y-140350000D02*
G01*
X100450000Y-140850000D01*
X105900000Y-138500000D01*
X105600000Y-137950000D01*
X100250000Y-140350000D01*
G37*
X100250000Y-140350000D02*
X100450000Y-140850000D01*
X105900000Y-138500000D01*
X105600000Y-137950000D01*
X100250000Y-140350000D01*
D13*
X105850000Y-138550000D02*
X104896848Y-138958047D01*
X103692013Y-140044683D02*
X102442328Y-140044683D01*
X104646200Y-139636645D02*
X104962445Y-139636645D01*
X102249101Y-138958047D02*
X103222359Y-138958047D01*
X103222359Y-138958047D02*
X103617823Y-138783053D01*
X104962445Y-139636645D02*
X104962445Y-140044683D01*
X102249101Y-139366086D02*
X102249101Y-138958047D01*
X104962445Y-138958047D02*
X104962445Y-139366295D01*
X101990488Y-137756564D02*
X102072614Y-137722821D01*
X102072614Y-137722821D02*
X102163274Y-137690942D01*
X102163274Y-137690942D02*
X102261864Y-137661740D01*
X102261864Y-137661740D02*
X102340648Y-137642083D01*
X102340648Y-137642083D02*
X102423299Y-137624730D01*
X102423299Y-137624730D02*
X102509564Y-137610025D01*
X102509564Y-137610025D02*
X102599188Y-137598310D01*
X102599188Y-137598310D02*
X102691916Y-137589928D01*
X102691916Y-137589928D02*
X102787494Y-137585221D01*
X102787494Y-137585221D02*
X102852672Y-137584295D01*
X104962445Y-140044683D02*
X104588986Y-140044683D01*
X104373544Y-138448365D02*
X105600000Y-137900000D01*
X104640331Y-139366295D02*
X104642990Y-139447268D01*
X104642990Y-139447268D02*
X104646134Y-139528010D01*
X104646134Y-139528010D02*
X104646200Y-139538774D01*
X102760879Y-140740257D02*
X102841234Y-140737955D01*
X102841234Y-140737955D02*
X102946342Y-140727519D01*
X102946342Y-140727519D02*
X103048394Y-140708292D01*
X103048394Y-140708292D02*
X103146590Y-140679869D01*
X103146590Y-140679869D02*
X103240133Y-140641845D01*
X103240133Y-140641845D02*
X103328222Y-140593815D01*
X103328222Y-140593815D02*
X103410060Y-140535374D01*
X103410060Y-140535374D02*
X103484847Y-140466116D01*
X103484847Y-140466116D02*
X103502349Y-140447064D01*
X104962445Y-139366295D02*
X104640331Y-139366295D01*
X103502349Y-140447064D02*
X103555604Y-140377940D01*
X103555604Y-140377940D02*
X103602277Y-140298511D01*
X103602277Y-140298511D02*
X103637038Y-140221982D01*
X103637038Y-140221982D02*
X103666951Y-140137440D01*
X103666951Y-140137440D02*
X103692013Y-140044683D01*
X102442328Y-140044683D02*
X100550000Y-140850000D01*
X102300446Y-139366086D02*
X102249101Y-139366086D01*
X102151440Y-138411899D02*
X101990488Y-137756564D01*
X104646200Y-139538774D02*
X104646200Y-139636645D01*
X103617823Y-138783053D02*
X103580492Y-138707299D01*
X103580492Y-138707299D02*
X103538598Y-138638934D01*
X103538598Y-138638934D02*
X103496481Y-138584587D01*
X102105963Y-140591041D02*
X102188580Y-140628279D01*
X102188580Y-140628279D02*
X102277051Y-140659883D01*
X102277051Y-140659883D02*
X102358121Y-140683746D01*
X102358121Y-140683746D02*
X102446375Y-140704965D01*
X102446375Y-140704965D02*
X102539997Y-140722266D01*
X102539997Y-140722266D02*
X102637174Y-140734372D01*
X102637174Y-140734372D02*
X102736090Y-140740008D01*
X102736090Y-140740008D02*
X102760879Y-140740257D01*
X104267082Y-140792021D02*
X104204468Y-140869490D01*
X104204468Y-140869490D02*
X104137489Y-140942321D01*
X104137489Y-140942321D02*
X104066365Y-141010465D01*
X104066365Y-141010465D02*
X103991314Y-141073871D01*
X103991314Y-141073871D02*
X103912556Y-141132490D01*
X103912556Y-141132490D02*
X103830311Y-141186272D01*
X103830311Y-141186272D02*
X103744799Y-141235168D01*
X103744799Y-141235168D02*
X103656240Y-141279128D01*
X103656240Y-141279128D02*
X103564852Y-141318102D01*
X103564852Y-141318102D02*
X103470856Y-141352040D01*
X103470856Y-141352040D02*
X103374472Y-141380893D01*
X103374472Y-141380893D02*
X103275918Y-141404612D01*
X103275918Y-141404612D02*
X103175416Y-141423146D01*
X103175416Y-141423146D02*
X103073183Y-141436447D01*
X103073183Y-141436447D02*
X102969440Y-141444463D01*
X102969440Y-141444463D02*
X102864408Y-141447147D01*
X101967854Y-141228772D02*
X102105963Y-140591041D01*
X103496481Y-138584587D02*
X103426246Y-138508425D01*
X103426246Y-138508425D02*
X103349616Y-138443756D01*
X103349616Y-138443756D02*
X103267195Y-138390168D01*
X103267195Y-138390168D02*
X103179587Y-138347248D01*
X103179587Y-138347248D02*
X103087397Y-138314583D01*
X103087397Y-138314583D02*
X102991230Y-138291762D01*
X102991230Y-138291762D02*
X102891690Y-138278371D01*
X102891690Y-138278371D02*
X102789381Y-138274000D01*
X102864408Y-141447147D02*
X102761909Y-141444361D01*
X102761909Y-141444361D02*
X102661772Y-141436363D01*
X102661772Y-141436363D02*
X102564501Y-141423691D01*
X102564501Y-141423691D02*
X102470599Y-141406881D01*
X102470599Y-141406881D02*
X102380570Y-141386472D01*
X102380570Y-141386472D02*
X102294917Y-141363000D01*
X102294917Y-141363000D02*
X102214143Y-141337004D01*
X102214143Y-141337004D02*
X102138752Y-141309020D01*
X102138752Y-141309020D02*
X102047474Y-141269547D01*
X102047474Y-141269547D02*
X101967854Y-141228772D01*
X102852672Y-137584295D02*
X102953016Y-137586836D01*
X102953016Y-137586836D02*
X103051402Y-137594395D01*
X103051402Y-137594395D02*
X103147751Y-137606869D01*
X103147751Y-137606869D02*
X103241990Y-137624158D01*
X103241990Y-137624158D02*
X103334041Y-137646162D01*
X103334041Y-137646162D02*
X103423829Y-137672778D01*
X103423829Y-137672778D02*
X103511277Y-137703906D01*
X103511277Y-137703906D02*
X103596311Y-137739446D01*
X103596311Y-137739446D02*
X103678854Y-137779297D01*
X103678854Y-137779297D02*
X103758829Y-137823357D01*
X103758829Y-137823357D02*
X103836162Y-137871526D01*
X103836162Y-137871526D02*
X103910776Y-137923702D01*
X103910776Y-137923702D02*
X103982596Y-137979786D01*
X103982596Y-137979786D02*
X104051545Y-138039676D01*
X104051545Y-138039676D02*
X104117547Y-138103271D01*
X104117547Y-138103271D02*
X104180528Y-138170471D01*
X102852672Y-137584295D02*
X102852672Y-137584295D01*
X104180528Y-138170471D02*
X104233335Y-138235318D01*
X104233335Y-138235318D02*
X104282870Y-138303542D01*
X104282870Y-138303542D02*
X104329487Y-138374704D01*
X104329487Y-138374704D02*
X104373544Y-138448365D01*
X104896848Y-138958047D02*
X104962445Y-138958047D01*
X104588986Y-140044683D02*
X104572762Y-140128878D01*
X104572762Y-140128878D02*
X104553320Y-140210067D01*
X104553320Y-140210067D02*
X104530774Y-140288279D01*
X104530774Y-140288279D02*
X104496084Y-140387979D01*
X104496084Y-140387979D02*
X104456351Y-140482504D01*
X104456351Y-140482504D02*
X104411848Y-140571920D01*
X104411848Y-140571920D02*
X104362845Y-140656295D01*
X104362845Y-140656295D02*
X104309615Y-140735695D01*
X104309615Y-140735695D02*
X104267082Y-140792021D01*
X100300000Y-140250000D02*
X102300446Y-139366086D01*
X102789381Y-138274000D02*
X102695482Y-138277333D01*
X102695482Y-138277333D02*
X102604010Y-138286659D01*
X102604010Y-138286659D02*
X102515773Y-138300968D01*
X102515773Y-138300968D02*
X102431580Y-138319249D01*
X102431580Y-138319249D02*
X102352241Y-138340493D01*
X102352241Y-138340493D02*
X102261126Y-138369675D01*
X102261126Y-138369675D02*
X102180440Y-138399935D01*
X102180440Y-138399935D02*
X102151440Y-138411899D01*
D12*
X106000000Y-139500000D02*
G75*
G03*
X106000000Y-139500000I-3000000J0D01*
G01*
X113000000Y-139500000D02*
G75*
G03*
X113000000Y-139500000I-3000000J0D01*
G01*
D13*
X110475000Y-137750000D02*
X110475000Y-137750000D01*
X110003195Y-138221699D02*
X110087487Y-138217552D01*
X110087487Y-138217552D02*
X110186990Y-138199123D01*
X110186990Y-138199123D02*
X110271763Y-138165952D01*
X110271763Y-138165952D02*
X110341802Y-138118041D01*
X110341802Y-138118041D02*
X110397102Y-138055391D01*
X110397102Y-138055391D02*
X110437661Y-137978003D01*
X110437661Y-137978003D02*
X110463474Y-137885878D01*
X110463474Y-137885878D02*
X110474538Y-137779017D01*
X110474538Y-137779017D02*
X110475000Y-137750000D01*
X109531496Y-137750000D02*
X109535642Y-137834289D01*
X109535642Y-137834289D02*
X109554071Y-137933782D01*
X109554071Y-137933782D02*
X109587242Y-138018539D01*
X109587242Y-138018539D02*
X109635153Y-138088559D01*
X109635153Y-138088559D02*
X109697803Y-138143839D01*
X109697803Y-138143839D02*
X109775191Y-138184380D01*
X109775191Y-138184380D02*
X109867316Y-138210180D01*
X109867316Y-138210180D02*
X109974177Y-138221238D01*
X109974177Y-138221238D02*
X110003195Y-138221699D01*
X110003195Y-137272269D02*
X109918856Y-137276466D01*
X109918856Y-137276466D02*
X109819327Y-137295121D01*
X109819327Y-137295121D02*
X109734561Y-137328703D01*
X109734561Y-137328703D02*
X109664551Y-137377214D01*
X109664551Y-137377214D02*
X109609292Y-137440657D01*
X109609292Y-137440657D02*
X109568777Y-137519034D01*
X109568777Y-137519034D02*
X109543001Y-137612348D01*
X109543001Y-137612348D02*
X109533336Y-137692138D01*
X109533336Y-137692138D02*
X109531496Y-137750000D01*
X110529292Y-141650487D02*
X110529292Y-140005732D01*
X110475000Y-137750000D02*
X110470855Y-137664656D01*
X110470855Y-137664656D02*
X110452435Y-137563909D01*
X110452435Y-137563909D02*
X110419274Y-137478072D01*
X110419274Y-137478072D02*
X110371368Y-137407153D01*
X110371368Y-137407153D02*
X110308715Y-137351154D01*
X110308715Y-137351154D02*
X110231310Y-137310082D01*
X110231310Y-137310082D02*
X110139150Y-137283941D01*
X110139150Y-137283941D02*
X110032231Y-137272735D01*
X110032231Y-137272735D02*
X110003195Y-137272269D01*
X109156422Y-138466598D02*
X109108786Y-138532117D01*
X109108786Y-138532117D02*
X109090024Y-138615157D01*
X109090024Y-138615157D02*
X109089959Y-138620797D01*
X109089959Y-140005626D02*
X109476886Y-140005626D01*
X109476886Y-141650487D02*
X110529292Y-141650487D01*
X110916219Y-140005732D02*
X110916219Y-138620797D01*
X110698626Y-138403098D02*
X109307552Y-138403098D01*
X110852825Y-138466598D02*
X110782432Y-138419012D01*
X110782432Y-138419012D02*
X110698626Y-138403098D01*
X109089959Y-138620797D02*
X109089959Y-138620797D01*
X109089959Y-138620797D02*
X109089959Y-140005626D01*
X109307552Y-138403098D02*
X109227423Y-138418972D01*
X109227423Y-138418972D02*
X109156422Y-138466598D01*
X110529292Y-140005732D02*
X110916219Y-140005732D01*
X109476886Y-140005626D02*
X109476886Y-141650487D01*
X110916219Y-138620797D02*
X110902277Y-138541714D01*
X110902277Y-138541714D02*
X110856722Y-138470593D01*
X110856722Y-138470593D02*
X110852825Y-138466598D01*
D14*
G36*
X109675000Y-137400000D02*
G01*
X109550000Y-137750000D01*
X109650000Y-138075000D01*
X110000000Y-138200000D01*
X110350000Y-138075000D01*
X110450000Y-137750000D01*
X110325000Y-137400000D01*
X110000000Y-137300000D01*
X109675000Y-137400000D01*
G37*
X109675000Y-137400000D02*
X109550000Y-137750000D01*
X109650000Y-138075000D01*
X110000000Y-138200000D01*
X110350000Y-138075000D01*
X110450000Y-137750000D01*
X110325000Y-137400000D01*
X110000000Y-137300000D01*
X109675000Y-137400000D01*
G36*
X109125000Y-138600000D02*
G01*
X109125000Y-139975000D01*
X109500000Y-139975000D01*
X109500000Y-141625000D01*
X110500000Y-141625000D01*
X110500000Y-139975000D01*
X110875000Y-139975000D01*
X110875000Y-138625000D01*
X110750000Y-138425000D01*
X109250000Y-138425000D01*
X109125000Y-138600000D01*
G37*
X109125000Y-138600000D02*
X109125000Y-139975000D01*
X109500000Y-139975000D01*
X109500000Y-141625000D01*
X110500000Y-141625000D01*
X110500000Y-139975000D01*
X110875000Y-139975000D01*
X110875000Y-138625000D01*
X110750000Y-138425000D01*
X109250000Y-138425000D01*
X109125000Y-138600000D01*
D12*
X120000000Y-139500000D02*
G75*
G03*
X120000000Y-139500000I-3000000J0D01*
G01*
D13*
X117030000Y-138940000D02*
X117030000Y-138940000D01*
X118641842Y-138734578D02*
X118569238Y-138667972D01*
X118569238Y-138667972D02*
X118492000Y-138610240D01*
X118492000Y-138610240D02*
X118410125Y-138561382D01*
X118410125Y-138561382D02*
X118323614Y-138521403D01*
X118323614Y-138521403D02*
X118232464Y-138490303D01*
X118232464Y-138490303D02*
X118136674Y-138468086D01*
X118136674Y-138468086D02*
X118036243Y-138454754D01*
X118036243Y-138454754D02*
X117931171Y-138450310D01*
X115953569Y-140554806D02*
X116038143Y-140552363D01*
X116038143Y-140552363D02*
X116119465Y-140545036D01*
X116119465Y-140545036D02*
X116222836Y-140527662D01*
X116222836Y-140527662D02*
X116320429Y-140501595D01*
X116320429Y-140501595D02*
X116412246Y-140466828D01*
X116412246Y-140466828D02*
X116498290Y-140423358D01*
X116498290Y-140423358D02*
X116578563Y-140371178D01*
X116578563Y-140371178D02*
X116653068Y-140310285D01*
X116653068Y-140310285D02*
X116688158Y-140276570D01*
X118644911Y-140276570D02*
X118710097Y-140203634D01*
X118710097Y-140203634D02*
X118766592Y-140123893D01*
X118766592Y-140123893D02*
X118814396Y-140037349D01*
X118814396Y-140037349D02*
X118853508Y-139944001D01*
X118853508Y-139944001D02*
X118883928Y-139843853D01*
X118883928Y-139843853D02*
X118901040Y-139764278D01*
X118901040Y-139764278D02*
X118913262Y-139680880D01*
X118913262Y-139680880D02*
X118920596Y-139593657D01*
X118920596Y-139593657D02*
X118923041Y-139502611D01*
X115076634Y-138940000D02*
X115524203Y-139175903D01*
X116243976Y-139937797D02*
X116188546Y-140001454D01*
X116188546Y-140001454D02*
X116122675Y-140049486D01*
X116122675Y-140049486D02*
X116046341Y-140081887D01*
X116046341Y-140081887D02*
X115959525Y-140098649D01*
X115959525Y-140098649D02*
X115905203Y-140101204D01*
X117393008Y-140412671D02*
X117467828Y-140453641D01*
X117467828Y-140453641D02*
X117545045Y-140487656D01*
X117545045Y-140487656D02*
X117624649Y-140514719D01*
X117624649Y-140514719D02*
X117706635Y-140534836D01*
X117706635Y-140534836D02*
X117790995Y-140548012D01*
X117790995Y-140548012D02*
X117877721Y-140554251D01*
X117877721Y-140554251D02*
X117913073Y-140554806D01*
X115905203Y-140101204D02*
X115816946Y-140094112D01*
X115816946Y-140094112D02*
X115737226Y-140072839D01*
X115737226Y-140072839D02*
X115652843Y-140028602D01*
X115652843Y-140028602D02*
X115591937Y-139976150D01*
X115591937Y-139976150D02*
X115539598Y-139909533D01*
X115539598Y-139909533D02*
X115495836Y-139828757D01*
X115495836Y-139828757D02*
X115488114Y-139810903D01*
X117024073Y-140022570D02*
X117068157Y-140097513D01*
X117068157Y-140097513D02*
X117117264Y-140167267D01*
X117117264Y-140167267D02*
X117171394Y-140231838D01*
X117171394Y-140231838D02*
X117230547Y-140291230D01*
X117230547Y-140291230D02*
X117294723Y-140345448D01*
X117294723Y-140345448D02*
X117363922Y-140394497D01*
X117363922Y-140394497D02*
X117393008Y-140412671D01*
X118312277Y-139502505D02*
X118309471Y-139584870D01*
X118309471Y-139584870D02*
X118298700Y-139676678D01*
X118298700Y-139676678D02*
X118279854Y-139760831D01*
X118279854Y-139760831D02*
X118252940Y-139837339D01*
X118252940Y-139837339D02*
X118211346Y-139916954D01*
X118211346Y-139916954D02*
X118197447Y-139937797D01*
X116682232Y-138734578D02*
X116609663Y-138667972D01*
X116609663Y-138667972D02*
X116532453Y-138610240D01*
X116532453Y-138610240D02*
X116450601Y-138561382D01*
X116450601Y-138561382D02*
X116364110Y-138521403D01*
X116364110Y-138521403D02*
X116272980Y-138490303D01*
X116272980Y-138490303D02*
X116177213Y-138468086D01*
X116177213Y-138468086D02*
X116076810Y-138454754D01*
X116076810Y-138454754D02*
X115971773Y-138450310D01*
X115971773Y-138450310D02*
X115857025Y-138454561D01*
X115857025Y-138454561D02*
X115748649Y-138467434D01*
X115748649Y-138467434D02*
X115646646Y-138488928D01*
X115646646Y-138488928D02*
X115551018Y-138519042D01*
X115551018Y-138519042D02*
X115461769Y-138557774D01*
X115461769Y-138557774D02*
X115378902Y-138605123D01*
X115378902Y-138605123D02*
X115302417Y-138661089D01*
X115302417Y-138661089D02*
X115232319Y-138725671D01*
X115232319Y-138725671D02*
X115168610Y-138798867D01*
X115168610Y-138798867D02*
X115111293Y-138880676D01*
X115111293Y-138880676D02*
X115076634Y-138940000D01*
X117030000Y-138940000D02*
X117483707Y-139175903D01*
X116963537Y-139502611D02*
X116961067Y-139413642D01*
X116961067Y-139413642D02*
X116953656Y-139328189D01*
X116953656Y-139328189D02*
X116941303Y-139246248D01*
X116941303Y-139246248D02*
X116924006Y-139167819D01*
X116924006Y-139167819D02*
X116893250Y-139068707D01*
X116893250Y-139068707D02*
X116853698Y-138975830D01*
X116853698Y-138975830D02*
X116805347Y-138889185D01*
X116805347Y-138889185D02*
X116748193Y-138808769D01*
X116748193Y-138808769D02*
X116682232Y-138734578D01*
X117858675Y-138903806D02*
X117939705Y-138909066D01*
X117939705Y-138909066D02*
X118035363Y-138932446D01*
X118035363Y-138932446D02*
X118116864Y-138974534D01*
X118116864Y-138974534D02*
X118184202Y-139035331D01*
X118184202Y-139035331D02*
X118237373Y-139114840D01*
X118237373Y-139114840D02*
X118276372Y-139213064D01*
X118276372Y-139213064D02*
X118296317Y-139299014D01*
X118296317Y-139299014D02*
X118308286Y-139395494D01*
X118308286Y-139395494D02*
X118312277Y-139502505D01*
X115905203Y-138903806D02*
X115986261Y-138909066D01*
X115986261Y-138909066D02*
X116081947Y-138932446D01*
X116081947Y-138932446D02*
X116163468Y-138974534D01*
X116163468Y-138974534D02*
X116230820Y-139035331D01*
X116230820Y-139035331D02*
X116284000Y-139114840D01*
X116284000Y-139114840D02*
X116323003Y-139213064D01*
X116323003Y-139213064D02*
X116342951Y-139299014D01*
X116342951Y-139299014D02*
X116354920Y-139395494D01*
X116354920Y-139395494D02*
X116358911Y-139502505D01*
X115524203Y-139175903D02*
X115567666Y-139098098D01*
X115567666Y-139098098D02*
X115616412Y-139034565D01*
X115616412Y-139034565D02*
X115676717Y-138980780D01*
X115676717Y-138980780D02*
X115702638Y-138964236D01*
X117441268Y-139810903D02*
X117024073Y-140022570D01*
X117913073Y-140554806D02*
X117996575Y-140552363D01*
X117996575Y-140552363D02*
X118077001Y-140545036D01*
X118077001Y-140545036D02*
X118179447Y-140527662D01*
X118179447Y-140527662D02*
X118276416Y-140501595D01*
X118276416Y-140501595D02*
X118367906Y-140466828D01*
X118367906Y-140466828D02*
X118453912Y-140423358D01*
X118453912Y-140423358D02*
X118534430Y-140371178D01*
X118534430Y-140371178D02*
X118609457Y-140310285D01*
X118609457Y-140310285D02*
X118644911Y-140276570D01*
X115488114Y-139810903D02*
X115064781Y-140022570D01*
X115064781Y-140022570D02*
X115110566Y-140097513D01*
X115110566Y-140097513D02*
X115161099Y-140167267D01*
X115161099Y-140167267D02*
X115216368Y-140231838D01*
X115216368Y-140231838D02*
X115276359Y-140291230D01*
X115276359Y-140291230D02*
X115341062Y-140345448D01*
X115341062Y-140345448D02*
X115410463Y-140394497D01*
X115410463Y-140394497D02*
X115439537Y-140412671D01*
X117931171Y-138450310D02*
X117816351Y-138454561D01*
X117816351Y-138454561D02*
X117707814Y-138467434D01*
X117707814Y-138467434D02*
X117605557Y-138488928D01*
X117605557Y-138488928D02*
X117509578Y-138519042D01*
X117509578Y-138519042D02*
X117419874Y-138557774D01*
X117419874Y-138557774D02*
X117336445Y-138605123D01*
X117336445Y-138605123D02*
X117259287Y-138661089D01*
X117259287Y-138661089D02*
X117188399Y-138725671D01*
X117188399Y-138725671D02*
X117123778Y-138798867D01*
X117123778Y-138798867D02*
X117065423Y-138880676D01*
X117065423Y-138880676D02*
X117030000Y-138940000D01*
X117858675Y-140101204D02*
X117770340Y-140094112D01*
X117770340Y-140094112D02*
X117690573Y-140072839D01*
X117690573Y-140072839D02*
X117606156Y-140028602D01*
X117606156Y-140028602D02*
X117545223Y-139976150D01*
X117545223Y-139976150D02*
X117492842Y-139909533D01*
X117492842Y-139909533D02*
X117449009Y-139828757D01*
X117449009Y-139828757D02*
X117441268Y-139810903D01*
X116358911Y-139502505D02*
X116356098Y-139584870D01*
X116356098Y-139584870D02*
X116345305Y-139676678D01*
X116345305Y-139676678D02*
X116326431Y-139760831D01*
X116326431Y-139760831D02*
X116299489Y-139837339D01*
X116299489Y-139837339D02*
X116257876Y-139916954D01*
X116257876Y-139916954D02*
X116243976Y-139937797D01*
X117483707Y-139175903D02*
X117527196Y-139098098D01*
X117527196Y-139098098D02*
X117575888Y-139034565D01*
X117575888Y-139034565D02*
X117636125Y-138980780D01*
X117636125Y-138980780D02*
X117662037Y-138964236D01*
X118923041Y-139502611D02*
X118920568Y-139413642D01*
X118920568Y-139413642D02*
X118913152Y-139328189D01*
X118913152Y-139328189D02*
X118900791Y-139246248D01*
X118900791Y-139246248D02*
X118883488Y-139167819D01*
X118883488Y-139167819D02*
X118852728Y-139068707D01*
X118852728Y-139068707D02*
X118813182Y-138975830D01*
X118813182Y-138975830D02*
X118764851Y-138889185D01*
X118764851Y-138889185D02*
X118707737Y-138808769D01*
X118707737Y-138808769D02*
X118641842Y-138734578D01*
X118197447Y-139937797D02*
X118141951Y-140001454D01*
X118141951Y-140001454D02*
X118076034Y-140049486D01*
X118076034Y-140049486D02*
X117999694Y-140081887D01*
X117999694Y-140081887D02*
X117912932Y-140098649D01*
X117912932Y-140098649D02*
X117858675Y-140101204D01*
X115702638Y-138964236D02*
X115780860Y-138927442D01*
X115780860Y-138927442D02*
X115862562Y-138906705D01*
X115862562Y-138906705D02*
X115905203Y-138903806D01*
X115439537Y-140412671D02*
X115514287Y-140453641D01*
X115514287Y-140453641D02*
X115591099Y-140487656D01*
X115591099Y-140487656D02*
X115669973Y-140514719D01*
X115669973Y-140514719D02*
X115750909Y-140534836D01*
X115750909Y-140534836D02*
X115833907Y-140548012D01*
X115833907Y-140548012D02*
X115918967Y-140554251D01*
X115918967Y-140554251D02*
X115953569Y-140554806D01*
X115076634Y-138940000D02*
X115076634Y-138940000D01*
X117662037Y-138964236D02*
X117739313Y-138927442D01*
X117739313Y-138927442D02*
X117818232Y-138906705D01*
X117818232Y-138906705D02*
X117858675Y-138903806D01*
X116688158Y-140276570D02*
X116752740Y-140203634D01*
X116752740Y-140203634D02*
X116808695Y-140123893D01*
X116808695Y-140123893D02*
X116856029Y-140037349D01*
X116856029Y-140037349D02*
X116894745Y-139944001D01*
X116894745Y-139944001D02*
X116924849Y-139843853D01*
X116924849Y-139843853D02*
X116941778Y-139764278D01*
X116941778Y-139764278D02*
X116953867Y-139680880D01*
X116953867Y-139680880D02*
X116961120Y-139593657D01*
X116961120Y-139593657D02*
X116963537Y-139502611D01*
D14*
G36*
X117630000Y-138500000D02*
G01*
X117270000Y-138680000D01*
X117060000Y-138940000D01*
X117470000Y-139140000D01*
X117570000Y-139000000D01*
X117730000Y-138900000D01*
X117990000Y-138830000D01*
X118250000Y-138970000D01*
X118370000Y-139330000D01*
X118370000Y-139640000D01*
X118240000Y-140010000D01*
X117970000Y-140150000D01*
X117630000Y-140120000D01*
X117410000Y-139880000D01*
X117100000Y-140030000D01*
X117230000Y-140230000D01*
X117550000Y-140440000D01*
X117930000Y-140500000D01*
X118340000Y-140420000D01*
X118700000Y-140140000D01*
X118850000Y-139780000D01*
X118870000Y-139320000D01*
X118710000Y-138870000D01*
X118390000Y-138590000D01*
X118050000Y-138480000D01*
X117630000Y-138500000D01*
G37*
X117630000Y-138500000D02*
X117270000Y-138680000D01*
X117060000Y-138940000D01*
X117470000Y-139140000D01*
X117570000Y-139000000D01*
X117730000Y-138900000D01*
X117990000Y-138830000D01*
X118250000Y-138970000D01*
X118370000Y-139330000D01*
X118370000Y-139640000D01*
X118240000Y-140010000D01*
X117970000Y-140150000D01*
X117630000Y-140120000D01*
X117410000Y-139880000D01*
X117100000Y-140030000D01*
X117230000Y-140230000D01*
X117550000Y-140440000D01*
X117930000Y-140500000D01*
X118340000Y-140420000D01*
X118700000Y-140140000D01*
X118850000Y-139780000D01*
X118870000Y-139320000D01*
X118710000Y-138870000D01*
X118390000Y-138590000D01*
X118050000Y-138480000D01*
X117630000Y-138500000D01*
G36*
X115670000Y-138500000D02*
G01*
X115310000Y-138680000D01*
X115100000Y-138940000D01*
X115510000Y-139140000D01*
X115610000Y-139000000D01*
X115770000Y-138900000D01*
X116030000Y-138830000D01*
X116290000Y-138970000D01*
X116410000Y-139330000D01*
X116410000Y-139640000D01*
X116280000Y-140010000D01*
X116010000Y-140150000D01*
X115670000Y-140120000D01*
X115450000Y-139880000D01*
X115140000Y-140030000D01*
X115270000Y-140230000D01*
X115590000Y-140440000D01*
X115970000Y-140500000D01*
X116380000Y-140420000D01*
X116740000Y-140140000D01*
X116890000Y-139780000D01*
X116910000Y-139320000D01*
X116750000Y-138870000D01*
X116430000Y-138590000D01*
X116090000Y-138480000D01*
X115670000Y-138500000D01*
G37*
X115670000Y-138500000D02*
X115310000Y-138680000D01*
X115100000Y-138940000D01*
X115510000Y-139140000D01*
X115610000Y-139000000D01*
X115770000Y-138900000D01*
X116030000Y-138830000D01*
X116290000Y-138970000D01*
X116410000Y-139330000D01*
X116410000Y-139640000D01*
X116280000Y-140010000D01*
X116010000Y-140150000D01*
X115670000Y-140120000D01*
X115450000Y-139880000D01*
X115140000Y-140030000D01*
X115270000Y-140230000D01*
X115590000Y-140440000D01*
X115970000Y-140500000D01*
X116380000Y-140420000D01*
X116740000Y-140140000D01*
X116890000Y-139780000D01*
X116910000Y-139320000D01*
X116750000Y-138870000D01*
X116430000Y-138590000D01*
X116090000Y-138480000D01*
X115670000Y-138500000D01*
D10*
%TO.C,U104*%
X133050000Y-77777000D02*
X127850000Y-77777000D01*
X133050000Y-136317000D02*
X127850000Y-136317000D01*
X134490000Y-78347000D02*
X133050000Y-78347000D01*
X133050000Y-77777000D02*
X133050000Y-78347000D01*
X127850000Y-77777000D02*
X127850000Y-78347000D01*
X133050000Y-135747000D02*
X133050000Y-136317000D01*
X127850000Y-135747000D02*
X127850000Y-136317000D01*
X133050000Y-79867000D02*
X133050000Y-80887000D01*
X127850000Y-79867000D02*
X127850000Y-80887000D01*
X133050000Y-82407000D02*
X133050000Y-83427000D01*
X127850000Y-82407000D02*
X127850000Y-83427000D01*
X133050000Y-84947000D02*
X133050000Y-85967000D01*
X127850000Y-84947000D02*
X127850000Y-85967000D01*
X133050000Y-87487000D02*
X133050000Y-88507000D01*
X127850000Y-87487000D02*
X127850000Y-88507000D01*
X133050000Y-90027000D02*
X133050000Y-91047000D01*
X127850000Y-90027000D02*
X127850000Y-91047000D01*
X133050000Y-92567000D02*
X133050000Y-93587000D01*
X127850000Y-92567000D02*
X127850000Y-93587000D01*
X133050000Y-95107000D02*
X133050000Y-96127000D01*
X127850000Y-95107000D02*
X127850000Y-96127000D01*
X133050000Y-97647000D02*
X133050000Y-98667000D01*
X127850000Y-97647000D02*
X127850000Y-98667000D01*
X133050000Y-100187000D02*
X133050000Y-101207000D01*
X127850000Y-100187000D02*
X127850000Y-101207000D01*
X133050000Y-102727000D02*
X133050000Y-103747000D01*
X127850000Y-102727000D02*
X127850000Y-103747000D01*
X133050000Y-105267000D02*
X133050000Y-106287000D01*
X127850000Y-105267000D02*
X127850000Y-106287000D01*
X133050000Y-107807000D02*
X133050000Y-108827000D01*
X127850000Y-107807000D02*
X127850000Y-108827000D01*
X133050000Y-110347000D02*
X133050000Y-111367000D01*
X127850000Y-110347000D02*
X127850000Y-111367000D01*
X133050000Y-112887000D02*
X133050000Y-113907000D01*
X127850000Y-112887000D02*
X127850000Y-113907000D01*
X133050000Y-115427000D02*
X133050000Y-116447000D01*
X127850000Y-115427000D02*
X127850000Y-116447000D01*
X133050000Y-117967000D02*
X133050000Y-118987000D01*
X127850000Y-117967000D02*
X127850000Y-118987000D01*
X133050000Y-120507000D02*
X133050000Y-121527000D01*
X127850000Y-120507000D02*
X127850000Y-121527000D01*
X133050000Y-123047000D02*
X133050000Y-124067000D01*
X127850000Y-123047000D02*
X127850000Y-124067000D01*
X133050000Y-125587000D02*
X133050000Y-126607000D01*
X127850000Y-125587000D02*
X127850000Y-126607000D01*
X133050000Y-128127000D02*
X133050000Y-129147000D01*
X127850000Y-128127000D02*
X127850000Y-129147000D01*
X133050000Y-130667000D02*
X133050000Y-131687000D01*
X127850000Y-130667000D02*
X127850000Y-131687000D01*
X133050000Y-133207000D02*
X133050000Y-134227000D01*
X127850000Y-133207000D02*
X127850000Y-134227000D01*
%TO.C,U103*%
X79463000Y-133207000D02*
X79463000Y-134227000D01*
X84663000Y-133207000D02*
X84663000Y-134227000D01*
X79463000Y-130667000D02*
X79463000Y-131687000D01*
X84663000Y-130667000D02*
X84663000Y-131687000D01*
X79463000Y-128127000D02*
X79463000Y-129147000D01*
X84663000Y-128127000D02*
X84663000Y-129147000D01*
X79463000Y-125587000D02*
X79463000Y-126607000D01*
X84663000Y-125587000D02*
X84663000Y-126607000D01*
X79463000Y-123047000D02*
X79463000Y-124067000D01*
X84663000Y-123047000D02*
X84663000Y-124067000D01*
X79463000Y-120507000D02*
X79463000Y-121527000D01*
X84663000Y-120507000D02*
X84663000Y-121527000D01*
X79463000Y-117967000D02*
X79463000Y-118987000D01*
X84663000Y-117967000D02*
X84663000Y-118987000D01*
X79463000Y-115427000D02*
X79463000Y-116447000D01*
X84663000Y-115427000D02*
X84663000Y-116447000D01*
X79463000Y-112887000D02*
X79463000Y-113907000D01*
X84663000Y-112887000D02*
X84663000Y-113907000D01*
X79463000Y-110347000D02*
X79463000Y-111367000D01*
X84663000Y-110347000D02*
X84663000Y-111367000D01*
X79463000Y-107807000D02*
X79463000Y-108827000D01*
X84663000Y-107807000D02*
X84663000Y-108827000D01*
X79463000Y-105267000D02*
X79463000Y-106287000D01*
X84663000Y-105267000D02*
X84663000Y-106287000D01*
X79463000Y-102727000D02*
X79463000Y-103747000D01*
X84663000Y-102727000D02*
X84663000Y-103747000D01*
X79463000Y-100187000D02*
X79463000Y-101207000D01*
X84663000Y-100187000D02*
X84663000Y-101207000D01*
X79463000Y-97647000D02*
X79463000Y-98667000D01*
X84663000Y-97647000D02*
X84663000Y-98667000D01*
X79463000Y-95107000D02*
X79463000Y-96127000D01*
X84663000Y-95107000D02*
X84663000Y-96127000D01*
X79463000Y-92567000D02*
X79463000Y-93587000D01*
X84663000Y-92567000D02*
X84663000Y-93587000D01*
X79463000Y-90027000D02*
X79463000Y-91047000D01*
X84663000Y-90027000D02*
X84663000Y-91047000D01*
X79463000Y-87487000D02*
X79463000Y-88507000D01*
X84663000Y-87487000D02*
X84663000Y-88507000D01*
X79463000Y-84947000D02*
X79463000Y-85967000D01*
X84663000Y-84947000D02*
X84663000Y-85967000D01*
X79463000Y-82407000D02*
X79463000Y-83427000D01*
X84663000Y-82407000D02*
X84663000Y-83427000D01*
X79463000Y-79867000D02*
X79463000Y-80887000D01*
X84663000Y-79867000D02*
X84663000Y-80887000D01*
X79463000Y-135747000D02*
X79463000Y-136317000D01*
X84663000Y-135747000D02*
X84663000Y-136317000D01*
X79463000Y-77777000D02*
X79463000Y-78347000D01*
X84663000Y-77777000D02*
X84663000Y-78347000D01*
X86103000Y-78347000D02*
X84663000Y-78347000D01*
X84663000Y-136317000D02*
X79463000Y-136317000D01*
X84663000Y-77777000D02*
X79463000Y-77777000D01*
%TD*%
%LPC*%
D15*
%TO.C,JP101*%
X97100000Y-81270000D03*
D16*
X97100000Y-80000000D03*
%TD*%
D17*
%TO.C,U104*%
X127925000Y-134987000D03*
X132975000Y-134987000D03*
X127925000Y-132447000D03*
X132975000Y-132447000D03*
X127925000Y-129907000D03*
X132975000Y-129907000D03*
X127925000Y-127367000D03*
X132975000Y-127367000D03*
X127925000Y-124827000D03*
X132975000Y-124827000D03*
X127925000Y-122287000D03*
X132975000Y-122287000D03*
X127925000Y-119747000D03*
X132975000Y-119747000D03*
X127925000Y-117207000D03*
X132975000Y-117207000D03*
X127925000Y-114667000D03*
X132975000Y-114667000D03*
X127925000Y-112127000D03*
X132975000Y-112127000D03*
X127925000Y-109587000D03*
X132975000Y-109587000D03*
X127925000Y-107047000D03*
X132975000Y-107047000D03*
X127925000Y-104507000D03*
X132975000Y-104507000D03*
X127925000Y-101967000D03*
X132975000Y-101967000D03*
X127925000Y-99427000D03*
X132975000Y-99427000D03*
X127925000Y-96887000D03*
X132975000Y-96887000D03*
X127925000Y-94347000D03*
X132975000Y-94347000D03*
X127925000Y-91807000D03*
X132975000Y-91807000D03*
X127925000Y-89267000D03*
X132975000Y-89267000D03*
X127925000Y-86727000D03*
X132975000Y-86727000D03*
X127925000Y-84187000D03*
X132975000Y-84187000D03*
X127925000Y-81647000D03*
X132975000Y-81647000D03*
X127925000Y-79107000D03*
X132975000Y-79107000D03*
%TD*%
D18*
%TO.C,J102*%
X119300000Y-80800000D03*
X119300000Y-84300000D03*
X119300000Y-87800000D03*
X119300000Y-91300000D03*
X119300000Y-94800000D03*
X119300000Y-98300000D03*
X119300000Y-101800000D03*
X119300000Y-105300000D03*
X119300000Y-108800000D03*
X119300000Y-112300000D03*
X119300000Y-115800000D03*
X119300000Y-119300000D03*
X119300000Y-122800000D03*
X119300000Y-126300000D03*
X119300000Y-129800000D03*
G36*
G01*
X120850000Y-134200000D02*
X117750000Y-134200000D01*
G75*
G02*
X117500000Y-133950000I0J250000D01*
G01*
X117500000Y-132650000D01*
G75*
G02*
X117750000Y-132400000I250000J0D01*
G01*
X120850000Y-132400000D01*
G75*
G02*
X121100000Y-132650000I0J-250000D01*
G01*
X121100000Y-133950000D01*
G75*
G02*
X120850000Y-134200000I-250000J0D01*
G01*
G37*
%TD*%
%TO.C,J101*%
X93100000Y-133300000D03*
X93100000Y-129800000D03*
X93100000Y-126300000D03*
X93100000Y-122800000D03*
X93100000Y-119300000D03*
X93100000Y-115800000D03*
X93100000Y-112300000D03*
X93100000Y-108800000D03*
X93100000Y-105300000D03*
X93100000Y-101800000D03*
X93100000Y-98300000D03*
X93100000Y-94800000D03*
X93100000Y-91300000D03*
X93100000Y-87800000D03*
X93100000Y-84300000D03*
G36*
G01*
X91550000Y-79900000D02*
X94650000Y-79900000D01*
G75*
G02*
X94900000Y-80150000I0J-250000D01*
G01*
X94900000Y-81450000D01*
G75*
G02*
X94650000Y-81700000I-250000J0D01*
G01*
X91550000Y-81700000D01*
G75*
G02*
X91300000Y-81450000I0J250000D01*
G01*
X91300000Y-80150000D01*
G75*
G02*
X91550000Y-79900000I250000J0D01*
G01*
G37*
%TD*%
D17*
%TO.C,U103*%
X79538000Y-134987000D03*
X84588000Y-134987000D03*
X79538000Y-132447000D03*
X84588000Y-132447000D03*
X79538000Y-129907000D03*
X84588000Y-129907000D03*
X79538000Y-127367000D03*
X84588000Y-127367000D03*
X79538000Y-124827000D03*
X84588000Y-124827000D03*
X79538000Y-122287000D03*
X84588000Y-122287000D03*
X79538000Y-119747000D03*
X84588000Y-119747000D03*
X79538000Y-117207000D03*
X84588000Y-117207000D03*
X79538000Y-114667000D03*
X84588000Y-114667000D03*
X79538000Y-112127000D03*
X84588000Y-112127000D03*
X79538000Y-109587000D03*
X84588000Y-109587000D03*
X79538000Y-107047000D03*
X84588000Y-107047000D03*
X79538000Y-104507000D03*
X84588000Y-104507000D03*
X79538000Y-101967000D03*
X84588000Y-101967000D03*
X79538000Y-99427000D03*
X84588000Y-99427000D03*
X79538000Y-96887000D03*
X84588000Y-96887000D03*
X79538000Y-94347000D03*
X84588000Y-94347000D03*
X79538000Y-91807000D03*
X84588000Y-91807000D03*
X79538000Y-89267000D03*
X84588000Y-89267000D03*
X79538000Y-86727000D03*
X84588000Y-86727000D03*
X79538000Y-84187000D03*
X84588000Y-84187000D03*
X79538000Y-81647000D03*
X84588000Y-81647000D03*
X79538000Y-79107000D03*
X84588000Y-79107000D03*
%TD*%
D19*
%TO.C,J103*%
X90779000Y-69963000D03*
G36*
G01*
X96779000Y-68413000D02*
X96779000Y-71513000D01*
G75*
G02*
X96529000Y-71763000I-250000J0D01*
G01*
X95029000Y-71763000D01*
G75*
G02*
X94779000Y-71513000I0J250000D01*
G01*
X94779000Y-68413000D01*
G75*
G02*
X95029000Y-68163000I250000J0D01*
G01*
X96529000Y-68163000D01*
G75*
G02*
X96779000Y-68413000I0J-250000D01*
G01*
G37*
%TD*%
D20*
%TO.C,H104*%
X127153080Y-140046680D03*
%TD*%
%TO.C,H103*%
X85243080Y-140046680D03*
%TD*%
%TO.C,H102*%
X130328080Y-74006680D03*
%TD*%
%TO.C,H101*%
X82068080Y-74009220D03*
%TD*%
M02*
